NotoSans.glyphspackage
{
category = Punctuation;
glyphname = parenleft;
kernRight = paren.left;
layers = (
{
layerId = "0A718E2F-231D-484E-9433-16A5230D2CE8";
shapes = (
{
closed = 1;
nodes = (
(36,123,o),
(72,-41,o),
(173,-158,c),
(331,-158,l),
(242,-36,o),
(204,130,o),
(204,285,cs),
(204,443,o),
(242,609,o),
(332,734,c),
(173,734,l),
(72,613,o),
(36,447,o),
(36,284,cs)
);
}
);
width = 359;
},
{
layerId = "98E204A9-1C79-49C7-AB3E-40A925F56409";
shapes = (
{
closed = 1;
nodes = (
(43,97,o),
(97,-43,o),
(176,-158,c),
(324,-158,l),
(243,-17,o),
(197,117,o),
(197,285,cs),
(197,459,o),
(238,604,o),
(324,734,c),
(176,734,l),
(101,623,o),
(43,473,o),
(43,284,cs)
);
}
);
width = 326;
},
{
layerId = "9FF96064-8718-4A86-A5C8-73C592101F67";
shapes = (
{
closed = 1;
nodes = (
(40,113,o),
(86,-41,o),
(187,-158,c),
(269,-158,l),
(177,-33,o),
(129,120,o),
(129,275,cs),
(129,433,o),
(177,589,o),
(270,714,c),
(187,714,l),
(86,593,o),
(40,437,o),
(40,274,cs)
);
}
);
width = 300;
},
{
layerId = "134B12F2-BF5D-48E3-8003-C7502B438C7E";
shapes = (
{
closed = 1;
nodes = (
(40,113,o),
(86,-41,o),
(187,-158,c),
(308,-158,l),
(218,-35,o),
(170,120,o),
(170,275,cs),
(170,433,o),
(218,589,o),
(309,714,c),
(187,714,l),
(86,593,o),
(40,437,o),
(40,274,cs)
);
}
);
width = 339;
},
{
layerId = "36F3C8CB-53EE-4548-BFDE-2C03212BACAA";
shapes = (
{
closed = 1;
nodes = (
(49,110,o),
(97,-44,o),
(191,-158,c),
(261,-158,l),
(177,-34,o),
(131,122,o),
(131,278,cs),
(131,436,o),
(175,589,o),
(262,720,c),
(191,720,l),
(100,604,o),
(49,446,o),
(49,277,cs)
);
}
);
width = 291;
},
{
layerId = "43B45EC1-5522-4B1A-B0C7-88628E50A583";
shapes = (
{
closed = 1;
nodes = (
(45,102,o),
(97,-43,o),
(181,-158,c),
(299,-158,l),
(217,-24,o),
(171,119,o),
(171,282,cs),
(171,450,o),
(213,598,o),
(300,728,c),
(181,728,l),
(100,615,o),
(45,462,o),
(45,281,cs)
);
}
);
width = 312;
},
{
layerId = "AB666A95-3AF9-4DE8-B258-097FFCFE8A59";
shapes = (
{
closed = 1;
nodes = (
(42,99,o),
(96,-46,o),
(187,-158,c),
(220,-158,l),
(119,-39,o),
(69,109,o),
(69,275,cs),
(69,443,o),
(117,596,o),
(220,714,c),
(187,714,l),
(96,606,o),
(42,451,o),
(42,274,cs)
);
}
);
width = 255;
},
{
layerId = "029FEF0C-5FA4-4A3E-AC23-838A1147A554";
shapes = (
{
closed = 1;
nodes = (
(51,95,o),
(110,-55,o),
(194,-158,c),
(223,-158,l),
(140,-53,o),
(78,99,o),
(78,278,cs),
(78,449,o),
(134,600,o),
(223,714,c),
(195,714,l),
(100,599,o),
(51,444,o),
(51,278,cs)
);
}
);
width = 263;
}
);
script = "";
subCategory = Parenthesis;
unicode = 40;
}
{
category = Punctuation;
glyphname = hyphen;
kernLeft = hyphen.right;
kernRight = hyphen.left;
layers = (
{
layerId = "0A718E2F-231D-484E-9433-16A5230D2CE8";
shapes = (
{
closed = 1;
nodes = (
(297,192,l),
(297,344,l),
(21,344,l),
(21,192,l)
);
}
);
width = 318;
},
{
layerId = "98E204A9-1C79-49C7-AB3E-40A925F56409";
shapes = (
{
closed = 1;
nodes = (
(296,192,l),
(296,344,l),
(29,344,l),
(29,192,l)
);
}
);
width = 325;
},
{
layerId = "9FF96064-8718-4A86-A5C8-73C592101F67";
shapes = (
{
closed = 1;
nodes = (
(282,229,l),
(282,307,l),
(40,307,l),
(40,229,l)
);
}
);
width = 322;
},
{
layerId = "134B12F2-BF5D-48E3-8003-C7502B438C7E";
shapes = (
{
closed = 1;
nodes = (
(292,207,l),
(292,329,l),
(30,329,l),
(30,207,l)
);
}
);
width = 322;
},
{
layerId = "36F3C8CB-53EE-4548-BFDE-2C03212BACAA";
shapes = (
{
closed = 1;
nodes = (
(247,229,l),
(247,310,l),
(27,310,l),
(27,229,l)
);
}
);
width = 274;
},
{
layerId = "43B45EC1-5522-4B1A-B0C7-88628E50A583";
shapes = (
{
closed = 1;
nodes = (
(277,206,l),
(277,331,l),
(28,331,l),
(28,206,l)
);
}
);
width = 305;
},
{
layerId = "AB666A95-3AF9-4DE8-B258-097FFCFE8A59";
shapes = (
{
closed = 1;
nodes = (
(282,259,l),
(282,284,l),
(40,284,l),
(40,259,l)
);
}
);
width = 322;
},
{
layerId = "029FEF0C-5FA4-4A3E-AC23-838A1147A554";
shapes = (
{
closed = 1;
nodes = (
(237,259,l),
(237,286,l),
(26,286,l),
(26,259,l)
);
}
);
width = 263;
}
);
script = "";
subCategory = Dash;
unicode = 45;
}
{
category = Number;
glyphname = two;
layers = (
{
layerId = "0A718E2F-231D-484E-9433-16A5230D2CE8";
shapes = (
{
closed = 1;
nodes = (
(548,159,l),
(278,159,l),
(278,164,l),
(330,211,ls),
(466,334,o),
(534,405,o),
(534,529,cs),
(534,641,o),
(441,724,o),
(296,724,cs),
(154,724,o),
(86,667,o),
(22,610,c),
(128,486,l),
(186,536,o),
(229,562,o),
(274,562,cs),
(311,562,o),
(343,544,o),
(343,502,cs),
(343,450,o),
(312,416,o),
(204,303,cs),
(30,127,l),
(30,0,l),
(548,0,l)
);
}
);
width = 586;
},
{
layerId = "98E204A9-1C79-49C7-AB3E-40A925F56409";
shapes = (
{
closed = 1;
nodes = (
(442,146,l),
(226,146,l),
(226,151,l),
(308,250,ls),
(409,371,o),
(432,441,o),
(432,524,cs),
(432,645,o),
(346,724,o),
(229,724,cs),
(146,724,o),
(84,694,o),
(20,610,c),
(101,501,l),
(145,560,o),
(175,578,o),
(209,578,cs),
(247,578,o),
(265,553,o),
(265,513,cs),
(265,465,o),
(251,421,o),
(161,300,cs),
(26,119,l),
(26,0,l),
(442,0,l)
);
}
);
width = 495;
},
{
layerId = "9FF96064-8718-4A86-A5C8-73C592101F67";
shapes = (
{
closed = 1;
nodes = (
(520,80,l),
(159,80,l),
(159,84,l),
(308,231,ls),
(418,338,o),
(491,422,o),
(491,534,cs),
(491,652,o),
(408,724,o),
(275,724,cs),
(184,724,o),
(112,687,o),
(56,640,c),
(103,581,l),
(158,624,o),
(205,649,o),
(275,649,cs),
(350,649,o),
(401,607,o),
(401,529,cs),
(401,432,o),
(342,370,o),
(235,262,cs),
(48,73,l),
(48,0,l),
(520,0,l)
);
}
);
width = 572;
},
{
layerId = "134B12F2-BF5D-48E3-8003-C7502B438C7E";
shapes = (
{
closed = 1;
nodes = (
(539,127,l),
(228,127,l),
(228,134,l),
(320,220,ls),
(446,336,o),
(519,412,o),
(519,531,cs),
(519,641,o),
(433,724,o),
(293,724,cs),
(165,724,o),
(99,675,o),
(38,622,c),
(120,525,l),
(177,572,o),
(227,598,o),
(282,598,cs),
(335,598,o),
(369,570,o),
(369,513,cs),
(369,443,o),
(327,397,o),
(219,286,cs),
(40,105,l),
(40,0,l),
(539,0,l)
);
}
);
width = 572;
},
{
layerId = "36F3C8CB-53EE-4548-BFDE-2C03212BACAA";
shapes = (
{
closed = 1;
nodes = (
(382,75,l),
(131,75,l),
(131,79,l),
(248,244,l),
(330,357,o),
(368,431,o),
(368,545,cs),
(368,651,o),
(304,724,o),
(197,724,cs),
(134,724,o),
(89,705,o),
(38,657,c),
(81,599,l),
(117,635,o),
(148,649,o),
(190,649,cs),
(251,649,o),
(284,606,o),
(284,542,cs),
(284,450,o),
(259,393,o),
(174,269,cs),
(33,62,l),
(33,0,l),
(382,0,l)
);
}
);
width = 429;
},
{
layerId = "43B45EC1-5522-4B1A-B0C7-88628E50A583";
shapes = (
{
closed = 1;
nodes = (
(418,118,l),
(189,118,l),
(189,123,l),
(284,248,l),
(378,365,o),
(407,437,o),
(407,532,cs),
(407,647,o),
(330,724,o),
(217,724,cs),
(141,724,o),
(86,698,o),
(27,628,c),
(93,539,l),
(134,589,o),
(164,606,o),
(201,606,cs),
(248,606,o),
(272,574,o),
(272,524,cs),
(272,459,o),
(254,410,o),
(166,288,cs),
(29,97,l),
(29,0,l),
(418,0,l)
);
}
);
width = 469;
},
{
layerId = "AB666A95-3AF9-4DE8-B258-097FFCFE8A59";
shapes = (
{
closed = 1;
nodes = (
(491,25,l),
(95,25,l),
(95,26,l),
(303,246,ls),
(400,348,o),
(458,419,o),
(458,539,cs),
(458,649,o),
(382,724,o),
(268,724,cs),
(211,724,o),
(141,705,o),
(80,655,c),
(95,635,l),
(148,678,o),
(211,699,o),
(268,699,cs),
(370,699,o),
(431,639,o),
(431,539,cs),
(431,428,o),
(380,362,o),
(283,260,cs),
(59,23,l),
(59,0,l),
(491,0,l)
);
}
);
width = 570;
},
{
layerId = "029FEF0C-5FA4-4A3E-AC23-838A1147A554";
shapes = (
{
closed = 1;
nodes = (
(347,25,l),
(75,25,l),
(75,27,l),
(207,220,ls),
(276,320,o),
(330,416,o),
(330,539,cs),
(330,661,o),
(274,724,o),
(183,724,cs),
(133,724,o),
(87,705,o),
(55,681,c),
(70,660,l),
(99,682,o),
(140,699,o),
(183,699,cs),
(254,699,o),
(303,652,o),
(303,538,cs),
(303,426,o),
(255,334,o),
(187,234,cs),
(40,19,l),
(40,0,l),
(347,0,l)
);
}
);
width = 394;
}
);
script = "";
subCategory = "Decimal Digit";
unicode = 50;
}
{
category = Punctuation;
glyphname = semicolon;
kernLeft = colon;
layers = (
{
layerId = "0A718E2F-231D-484E-9433-16A5230D2CE8";
shapes = (
{
closed = 1;
nodes = (
(243,146,l),
(76,146,l),
(67,66,o),
(47,-48,o),
(28,-139,c),
(164,-139,l),
(197,-65,o),
(232,63,o),
(250,135,c)
);
},
{
closed = 1;
nodes = (
(45,400,o),
(91,373,o),
(148,373,cs),
(202,373,o),
(249,400,o),
(249,467,cs),
(249,535,o),
(202,560,o),
(148,560,cs),
(91,560,o),
(45,535,o),
(45,467,c)
);
}
);
width = 297;
},
{
layerId = "98E204A9-1C79-49C7-AB3E-40A925F56409";
shapes = (
{
closed = 1;
nodes = (
(225,146,l),
(67,146,l),
(61,69,o),
(46,-60,o),
(30,-139,c),
(165,-139,l),
(193,-66,o),
(215,25,o),
(230,135,c)
);
},
{
closed = 1;
nodes = (
(49,408,o),
(84,374,o),
(142,374,cs),
(198,374,o),
(231,408,o),
(231,467,cs),
(231,527,o),
(200,561,o),
(142,561,cs),
(81,561,o),
(49,527,o),
(49,467,cs)
);
}
);
width = 280;
},
{
layerId = "9FF96064-8718-4A86-A5C8-73C592101F67";
shapes = (
{
closed = 1;
nodes = (
(176,116,l),
(82,116,l),
(72,46,o),
(50,-54,o),
(31,-129,c),
(97,-129,l),
(129,-58,o),
(165,35,o),
(183,105,c)
);
},
{
closed = 1;
nodes = (
(70,434,o),
(97,414,o),
(131,414,cs),
(166,414,o),
(194,434,o),
(194,482,cs),
(194,532,o),
(166,550,o),
(131,550,cs),
(97,550,o),
(70,532,o),
(70,482,cs)
);
}
);
width = 268;
},
{
layerId = "134B12F2-BF5D-48E3-8003-C7502B438C7E";
shapes = (
{
closed = 1;
nodes = (
(217,116,l),
(80,116,l),
(70,47,o),
(50,-50,o),
(31,-129,c),
(138,-129,l),
(171,-56,o),
(206,34,o),
(224,105,c)
);
},
{
closed = 1;
nodes = (
(57,414,o),
(95,390,o),
(143,390,cs),
(189,390,o),
(228,414,o),
(228,473,cs),
(228,534,o),
(189,556,o),
(143,556,cs),
(95,556,o),
(57,534,o),
(57,473,c)
);
}
);
width = 285;
},
{
layerId = "36F3C8CB-53EE-4548-BFDE-2C03212BACAA";
shapes = (
{
closed = 1;
nodes = (
(167,114,l),
(82,114,l),
(74,42,o),
(58,-50,o),
(36,-132,c),
(98,-132,l),
(130,-60,o),
(155,19,o),
(174,103,c)
);
},
{
closed = 1;
nodes = (
(60,433,o),
(79,411,o),
(114,411,cs),
(145,411,o),
(168,432,o),
(168,476,cs),
(168,518,o),
(149,540,o),
(114,540,cs),
(78,540,o),
(60,518,o),
(60,476,cs)
);
}
);
width = 228;
},
{
layerId = "43B45EC1-5522-4B1A-B0C7-88628E50A583";
shapes = (
{
closed = 1;
nodes = (
(202,133,l),
(72,133,l),
(66,58,o),
(50,-56,o),
(32,-136,c),
(139,-136,l),
(168,-63,o),
(191,22,o),
(208,122,c)
);
},
{
closed = 1;
nodes = (
(53,418,o),
(82,388,o),
(131,388,cs),
(177,388,o),
(206,417,o),
(206,470,cs),
(206,523,o),
(180,553,o),
(131,553,cs),
(80,553,o),
(53,523,o),
(53,470,cs)
);
}
);
width = 260;
},
{
layerId = "AB666A95-3AF9-4DE8-B258-097FFCFE8A59";
shapes = (
{
closed = 1;
nodes = (
(122,116,l),
(94,116,l),
(83,40,o),
(67,-32,o),
(38,-129,c),
(60,-129,l),
(88,-60,o),
(110,30,o),
(125,104,c)
);
},
{
closed = 1;
nodes = (
(85,484,o),
(90,470,o),
(110,470,cs),
(134,470,o),
(137,484,o),
(137,501,cs),
(137,517,o),
(134,532,o),
(110,532,cs),
(90,532,o),
(85,517,o),
(85,501,cs)
);
}
);
width = 220;
},
{
layerId = "029FEF0C-5FA4-4A3E-AC23-838A1147A554";
shapes = (
{
closed = 1;
nodes = (
(117,101,l),
(89,101,l),
(79,22,o),
(72,-13,o),
(38,-129,c),
(59,-129,l),
(88,-58,o),
(110,26,o),
(121,88,c)
);
},
{
closed = 1;
nodes = (
(70,476,o),
(75,461,o),
(95,461,cs),
(113,461,o),
(121,474,o),
(121,497,cs),
(121,520,o),
(114,532,o),
(95,532,cs),
(75,532,o),
(70,516,o),
(70,497,cs)
);
}
);
width = 177;
}
);
script = "";
subCategory = Other;
unicode = 59;
}
{
category = Letter;
glyphname = E;
kernRight = E.left;
layers = (
{
anchors = (
{
name = bottom;
pos = (295,0);
},
{
name = center;
pos = (289,357);
},
{
name = top;
pos = (289,714);
},
{
name = topright;
pos = (529,714);
}
);
layerId = "0A718E2F-231D-484E-9433-16A5230D2CE8";
shapes = (
{
closed = 1;
nodes = (
(501,157,l),
(270,157,l),
(270,292,l),
(484,292,l),
(484,447,l),
(270,447,l),
(270,559,l),
(501,559,l),
(501,714,l),
(77,714,l),
(77,0,l),
(501,0,l)
);
}
);
width = 549;
},
{
anchors = (
{
name = bottom;
pos = (233,0);
},
{
name = center;
pos = (231,357);
},
{
name = top;
pos = (229,714);
},
{
name = topright;
pos = (423,714);
}
);
layerId = "98E204A9-1C79-49C7-AB3E-40A925F56409";
shapes = (
{
closed = 1;
nodes = (
(403,146,l),
(229,146,l),
(229,297,l),
(390,297,l),
(390,441,l),
(229,441,l),
(229,570,l),
(403,570,l),
(403,714,l),
(59,714,l),
(59,0,l),
(403,0,l)
);
}
);
width = 443;
},
{
anchors = (
{
name = bottom;
pos = (300,0);
},
{
name = center;
pos = (296,357);
},
{
name = top;
pos = (305,714);
},
{
name = topright;
pos = (536,714);
}
);
layerId = "9FF96064-8718-4A86-A5C8-73C592101F67";
shapes = (
{
closed = 1;
nodes = (
(496,79,l),
(187,79,l),
(187,334,l),
(478,334,l),
(478,412,l),
(187,412,l),
(187,635,l),
(496,635,l),
(496,714,l),
(97,714,l),
(97,0,l),
(496,0,l)
);
}
);
width = 556;
},
{
anchors = (
{
name = bottom;
pos = (303,0);
},
{
name = center;
pos = (295,357);
},
{
name = top;
pos = (301,714);
},
{
name = topright;
pos = (540,714);
}
);
layerId = "134B12F2-BF5D-48E3-8003-C7502B438C7E";
shapes = (
{
closed = 1;
nodes = (
(501,125,l),
(241,125,l),
(241,309,l),
(483,309,l),
(483,433,l),
(241,433,l),
(241,590,l),
(501,590,l),
(501,714,l),
(90,714,l),
(90,0,l),
(501,0,l)
);
}
);
width = 560;
},
{
anchors = (
{
name = bottom;
pos = (221,0);
},
{
name = center;
pos = (215,357);
},
{
name = top;
pos = (216,714);
},
{
name = topright;
pos = (382,714);
}
);
layerId = "36F3C8CB-53EE-4548-BFDE-2C03212BACAA";
shapes = (
{
closed = 1;
nodes = (
(357,76,l),
(157,76,l),
(157,335,l),
(345,335,l),
(345,410,l),
(157,410,l),
(157,639,l),
(357,639,l),
(357,714,l),
(73,714,l),
(73,0,l),
(357,0,l)
);
}
);
width = 402;
},
{
anchors = (
{
name = bottom;
pos = (228,0);
},
{
name = center;
pos = (224,357);
},
{
name = top;
pos = (224,714);
},
{
name = topright;
pos = (407,714);
}
);
layerId = "43B45EC1-5522-4B1A-B0C7-88628E50A583";
shapes = (
{
closed = 1;
nodes = (
(385,119,l),
(201,119,l),
(201,312,l),
(372,312,l),
(372,429,l),
(201,429,l),
(201,597,l),
(385,597,l),
(385,714,l),
(64,714,l),
(64,0,l),
(385,0,l)
);
}
);
width = 427;
},
{
anchors = (
{
name = bottom;
pos = (295,0);
},
{
name = center;
pos = (295,357);
},
{
name = top;
pos = (305,714);
},
{
name = topright;
pos = (530,714);
}
);
layerId = "AB666A95-3AF9-4DE8-B258-097FFCFE8A59";
shapes = (
{
closed = 1;
nodes = (
(488,25,l),
(129,25,l),
(129,364,l),
(468,364,l),
(468,389,l),
(129,389,l),
(129,689,l),
(488,689,l),
(488,714,l),
(103,714,l),
(103,0,l),
(488,0,l)
);
}
);
width = 550;
},
{
anchors = (
{
name = bottom;
pos = (201,0);
},
{
name = center;
pos = (205,357);
},
{
name = top;
pos = (216,714);
},
{
name = topright;
pos = (361,714);
}
);
layerId = "029FEF0C-5FA4-4A3E-AC23-838A1147A554";
shapes = (
{
closed = 1;
nodes = (
(333,25,l),
(104,25,l),
(104,363,l),
(320,363,l),
(320,388,l),
(104,388,l),
(104,689,l),
(333,689,l),
(333,714,l),
(78,714,l),
(78,0,l),
(333,0,l)
);
}
);
width = 381;
}
);
script = latin;
subCategory = Uppercase;
unicode = 69;
}
{
category = Letter;
glyphname = T;
kernLeft = T.right;
kernRight = T.left;
layers = (
{
anchors = (
{
name = bottom;
pos = (296,0);
},
{
name = center;
pos = (296,357);
},
{
name = top;
pos = (296,714);
},
{
name = topright;
pos = (571,714);
}
);
layerId = "0A718E2F-231D-484E-9433-16A5230D2CE8";
shapes = (
{
closed = 1;
nodes = (
(392,556,l),
(566,556,l),
(566,714,l),
(25,714,l),
(25,556,l),
(199,556,l),
(199,0,l),
(392,0,l)
);
}
);
width = 591;
},
{
anchors = (
{
name = bottom;
pos = (230,0);
},
{
name = center;
pos = (230,357);
},
{
name = top;
pos = (230,714);
},
{
name = topright;
pos = (440,714);
}
);
layerId = "98E204A9-1C79-49C7-AB3E-40A925F56409";
shapes = (
{
closed = 1;
nodes = (
(315,567,l),
(443,567,l),
(443,714,l),
(17,714,l),
(17,567,l),
(146,567,l),
(146,0,l),
(315,0,l)
);
}
);
width = 460;
},
{
anchors = (
{
name = bottom;
pos = (278,0);
},
{
name = center;
pos = (278,357);
},
{
name = top;
pos = (278,714);
},
{
name = topright;
pos = (536,714);
}
);
layerId = "9FF96064-8718-4A86-A5C8-73C592101F67";
shapes = (
{
closed = 1;
nodes = (
(323,635,l),
(545,635,l),
(545,714,l),
(10,714,l),
(10,635,l),
(233,635,l),
(233,0,l),
(323,0,l)
);
}
);
width = 556;
},
{
anchors = (
{
name = bottom;
pos = (290,0);
},
{
name = center;
pos = (290,357);
},
{
name = top;
pos = (290,714);
},
{
name = topright;
pos = (559,714);
}
);
layerId = "134B12F2-BF5D-48E3-8003-C7502B438C7E";
shapes = (
{
closed = 1;
nodes = (
(365,588,l),
(559,588,l),
(559,714,l),
(20,714,l),
(20,588,l),
(214,588,l),
(214,0,l),
(365,0,l)
);
}
);
width = 579;
},
{
anchors = (
{
name = bottom;
pos = (191,0);
},
{
name = center;
pos = (191,357);
},
{
name = top;
pos = (191,714);
},
{
name = topright;
pos = (361,714);
}
);
layerId = "36F3C8CB-53EE-4548-BFDE-2C03212BACAA";
shapes = (
{
closed = 1;
nodes = (
(232,638,l),
(370,638,l),
(370,714,l),
(10,714,l),
(10,638,l),
(148,638,l),
(148,0,l),
(232,0,l)
);
}
);
width = 381;
},
{
anchors = (
{
name = bottom;
pos = (215,0);
},
{
name = center;
pos = (215,357);
},
{
name = top;
pos = (215,714);
},
{
name = topright;
pos = (409,714);
}
);
layerId = "43B45EC1-5522-4B1A-B0C7-88628E50A583";
shapes = (
{
closed = 1;
nodes = (
(282,595,l),
(414,595,l),
(414,714,l),
(14,714,l),
(14,595,l),
(147,595,l),
(147,0,l),
(282,0,l)
);
}
);
width = 429;
},
{
anchors = (
{
name = bottom;
pos = (253,0);
},
{
name = center;
pos = (253,357);
},
{
name = top;
pos = (253,714);
},
{
name = topright;
pos = (485,714);
}
);
layerId = "AB666A95-3AF9-4DE8-B258-097FFCFE8A59";
shapes = (
{
closed = 1;
nodes = (
(265,689,l),
(503,689,l),
(503,714,l),
(2,714,l),
(2,689,l),
(239,689,l),
(239,0,l),
(265,0,l)
);
}
);
width = 505;
},
{
anchors = (
{
name = bottom;
pos = (168,0);
},
{
name = center;
pos = (168,357);
},
{
name = top;
pos = (168,714);
},
{
name = topright;
pos = (316,714);
}
);
layerId = "029FEF0C-5FA4-4A3E-AC23-838A1147A554";
shapes = (
{
closed = 1;
nodes = (
(180,689,l),
(328,689,l),
(328,714,l),
(7,714,l),
(7,689,l),
(154,689,l),
(154,0,l),
(180,0,l)
);
}
);
width = 336;
}
);
script = latin;
subCategory = Uppercase;
unicode = 84;
}
{
category = Punctuation;
glyphname = bracketright;
kernLeft = Paren.right;
layers = (
{
layerId = "0A718E2F-231D-484E-9433-16A5230D2CE8";
shapes = (
{
closed = 1;
nodes = (
(23,-168,l),
(267,-168,l),
(267,734,l),
(23,734,l),
(23,610,l),
(112,610,l),
(112,-44,l),
(23,-44,l)
);
}
);
width = 324;
},
{
layerId = "98E204A9-1C79-49C7-AB3E-40A925F56409";
shapes = (
{
closed = 1;
nodes = (
(18,-168,l),
(262,-168,l),
(262,734,l),
(18,734,l),
(18,610,l),
(112,610,l),
(112,-44,l),
(18,-44,l)
);
}
);
width = 303;
},
{
layerId = "9FF96064-8718-4A86-A5C8-73C592101F67";
shapes = (
{
closed = 1;
nodes = (
(25,-158,l),
(249,-158,l),
(249,714,l),
(25,714,l),
(25,642,l),
(163,642,l),
(163,-86,l),
(25,-86,l)
);
}
);
width = 329;
},
{
layerId = "134B12F2-BF5D-48E3-8003-C7502B438C7E";
shapes = (
{
closed = 1;
nodes = (
(25,-158,l),
(261,-158,l),
(261,714,l),
(25,714,l),
(25,611,l),
(134,611,l),
(134,-55,l),
(25,-55,l)
);
}
);
width = 331;
},
{
layerId = "36F3C8CB-53EE-4548-BFDE-2C03212BACAA";
shapes = (
{
closed = 1;
nodes = (
(31,-161,l),
(240,-161,l),
(240,720,l),
(31,720,l),
(31,652,l),
(163,652,l),
(163,-93,l),
(31,-93,l)
);
}
);
width = 312;
},
{
layerId = "43B45EC1-5522-4B1A-B0C7-88628E50A583";
shapes = (
{
closed = 1;
nodes = (
(23,-165,l),
(253,-165,l),
(253,728,l),
(23,728,l),
(23,626,l),
(132,626,l),
(132,-63,l),
(23,-63,l)
);
}
);
width = 306;
},
{
layerId = "AB666A95-3AF9-4DE8-B258-097FFCFE8A59";
shapes = (
{
closed = 1;
nodes = (
(25,-158,l),
(225,-158,l),
(225,714,l),
(25,714,l),
(25,689,l),
(200,689,l),
(200,-133,l),
(25,-133,l)
);
}
);
width = 313;
},
{
layerId = "029FEF0C-5FA4-4A3E-AC23-838A1147A554";
shapes = (
{
closed = 1;
nodes = (
(36,-158,l),
(222,-158,l),
(222,714,l),
(36,714,l),
(36,690,l),
(197,690,l),
(197,-134,l),
(36,-134,l)
);
}
);
width = 306;
}
);
script = "";
subCategory = Parenthesis;
unicode = 93;
}
{
category = Mark;
glyphname = grave;
layers = (
{
layerId = "0A718E2F-231D-484E-9433-16A5230D2CE8";
shapes = (
{
closed = 1;
nodes = (
(40,766,l),
(40,756,l),
(88,718,o),
(197,640,o),
(251,606,c),
(378,606,l),
(378,620,l),
(345,657,o),
(284,721,o),
(250,766,c)
);
}
);
width = 418;
},
{
layerId = "98E204A9-1C79-49C7-AB3E-40A925F56409";
shapes = (
{
closed = 1;
nodes = (
(40,766,l),
(40,756,l),
(66,724,o),
(149,636,o),
(181,606,c),
(300,606,l),
(300,620,l),
(282,648,o),
(239,727,o),
(222,766,c)
);
}
);
width = 340;
},
{
layerId = "9FF96064-8718-4A86-A5C8-73C592101F67";
shapes = (
{
closed = 1;
nodes = (
(40,766,l),
(40,756,l),
(63,719,o),
(136,642,o),
(182,606,c),
(241,606,l),
(241,618,l),
(210,655,o),
(167,721,o),
(145,766,c)
);
}
);
width = 281;
},
{
layerId = "134B12F2-BF5D-48E3-8003-C7502B438C7E";
shapes = (
{
closed = 1;
nodes = (
(40,766,l),
(40,756,l),
(78,719,o),
(172,641,o),
(223,606,c),
(322,606,l),
(322,619,l),
(290,656,o),
(236,721,o),
(207,766,c)
);
}
);
width = 362;
},
{
layerId = "36F3C8CB-53EE-4548-BFDE-2C03212BACAA";
shapes = (
{
closed = 1;
nodes = (
(40,766,l),
(40,757,l),
(66,714,o),
(134,640,o),
(174,606,c),
(226,606,l),
(226,617,l),
(198,654,o),
(158,720,o),
(137,766,c)
);
}
);
width = 266;
},
{
layerId = "43B45EC1-5522-4B1A-B0C7-88628E50A583";
shapes = (
{
closed = 1;
nodes = (
(40,766,l),
(40,757,l),
(66,720,o),
(143,637,o),
(178,606,c),
(271,606,l),
(271,619,l),
(249,650,o),
(207,724,o),
(189,766,c)
);
}
);
width = 311;
},
{
layerId = "AB666A95-3AF9-4DE8-B258-097FFCFE8A59";
shapes = (
{
closed = 1;
nodes = (
(40,766,l),
(40,759,l),
(75,714,o),
(135,650,o),
(188,606,c),
(209,606,l),
(209,612,l),
(164,652,o),
(99,723,o),
(70,766,c)
);
}
);
width = 249;
},
{
layerId = "029FEF0C-5FA4-4A3E-AC23-838A1147A554";
shapes = (
{
closed = 1;
nodes = (
(40,763,l),
(40,756,l),
(73,705,o),
(131,644,o),
(169,606,c),
(185,606,l),
(185,617,l),
(146,663,o),
(106,708,o),
(71,763,c)
);
}
);
width = 225;
}
);
script = "";
subCategory = Spacing;
unicode = 96;
}
{
category = Letter;
glyphname = i;
layers = (
{
anchors = (
{
name = bottom;
pos = (166,0);
},
{
name = center;
pos = (163,388);
},
{
name = top;
pos = (163,776);
},
{
name = topright;
pos = (305,776);
}
);
layerId = "0A718E2F-231D-484E-9433-16A5230D2CE8";
shapes = (
{
closed = 1;
nodes = (
(67,553,l),
(67,0,l),
(258,0,l),
(258,553,l)
);
},
{
closed = 1;
nodes = (
(107,776,o),
(62,759,o),
(62,691,c),
(62,625,o),
(107,607,o),
(163,607,cs),
(218,607,o),
(265,625,o),
(265,691,cs),
(265,759,o),
(218,776,o),
(163,776,cs)
);
}
);
width = 325;
},
{
anchors = (
{
name = bottom;
pos = (135,0);
},
{
name = center;
pos = (132,388);
},
{
name = top;
pos = (133,776);
},
{
name = topright;
pos = (245,776);
}
);
layerId = "98E204A9-1C79-49C7-AB3E-40A925F56409";
shapes = (
{
closed = 1;
nodes = (
(51,553,l),
(51,0,l),
(213,0,l),
(213,553,l)
);
},
{
closed = 1;
nodes = (
(72,776,o),
(46,748,o),
(46,691,cs),
(46,635,o),
(75,607,o),
(132,607,cs),
(189,607,o),
(218,635,o),
(218,691,cs),
(218,747,o),
(192,776,o),
(132,776,cs)
);
}
);
width = 265;
},
{
anchors = (
{
name = bottom;
pos = (131,0);
},
{
name = center;
pos = (129,368);
},
{
name = top;
pos = (129,737);
},
{
name = topright;
pos = (238,737);
}
);
layerId = "9FF96064-8718-4A86-A5C8-73C592101F67";
shapes = (
{
closed = 1;
nodes = (
(85,536,l),
(85,0,l),
(173,0,l),
(173,536,l)
);
},
{
closed = 1;
nodes = (
(101,737,o),
(78,720,o),
(78,681,cs),
(78,643,o),
(101,625,o),
(130,625,cs),
(157,625,o),
(181,643,o),
(181,681,cs),
(181,720,o),
(157,737,o),
(130,737,cs)
);
}
);
width = 258;
},
{
anchors = (
{
name = bottom;
pos = (155,0);
},
{
name = center;
pos = (153,380);
},
{
name = top;
pos = (153,760);
},
{
name = topright;
pos = (285,760);
}
);
layerId = "134B12F2-BF5D-48E3-8003-C7502B438C7E";
shapes = (
{
closed = 1;
nodes = (
(78,546,l),
(78,0,l),
(227,0,l),
(227,546,l)
);
},
{
closed = 1;
nodes = (
(108,760,o),
(72,743,o),
(72,687,c),
(72,632,o),
(108,614,o),
(153,614,cs),
(197,614,o),
(234,632,o),
(234,687,cs),
(234,743,o),
(197,760,o),
(153,760,cs)
);
}
);
width = 305;
},
{
anchors = (
{
name = bottom;
pos = (107,0);
},
{
name = center;
pos = (106,369);
},
{
name = top;
pos = (106,739);
},
{
name = topright;
pos = (191,739);
}
);
layerId = "36F3C8CB-53EE-4548-BFDE-2C03212BACAA";
shapes = (
{
closed = 1;
nodes = (
(65,537,l),
(65,0,l),
(146,0,l),
(146,537,l)
);
},
{
closed = 1;
nodes = (
(76,739,o),
(59,719,o),
(59,681,cs),
(59,645,o),
(77,624,o),
(107,624,cs),
(137,624,o),
(153,645,o),
(153,681,cs),
(153,718,o),
(138,739,o),
(107,739,cs)
);
}
);
width = 211;
},
{
anchors = (
{
name = bottom;
pos = (124,0);
},
{
name = center;
pos = (122,381);
},
{
name = top;
pos = (122,762);
},
{
name = topright;
pos = (224,762);
}
);
layerId = "43B45EC1-5522-4B1A-B0C7-88628E50A583";
shapes = (
{
closed = 1;
nodes = (
(57,547,l),
(57,0,l),
(187,0,l),
(187,547,l)
);
},
{
closed = 1;
nodes = (
(73,762,o),
(51,737,o),
(51,687,cs),
(51,639,o),
(76,614,o),
(122,614,cs),
(169,614,o),
(193,639,o),
(193,687,cs),
(193,736,o),
(171,762,o),
(122,762,cs)
);
}
);
width = 244;
},
{
anchors = (
{
name = bottom;
pos = (104,0);
},
{
name = center;
pos = (104,360);
},
{
name = top;
pos = (104,721);
},
{
name = topright;
pos = (187,721);
}
);
layerId = "AB666A95-3AF9-4DE8-B258-097FFCFE8A59";
shapes = (
{
closed = 1;
nodes = (
(90,528,l),
(90,0,l),
(116,0,l),
(116,528,l)
);
},
{
closed = 1;
nodes = (
(83,721,o),
(78,706,o),
(78,690,cs),
(78,673,o),
(83,659,o),
(103,659,cs),
(127,659,o),
(130,673,o),
(130,690,cs),
(130,706,o),
(127,721,o),
(103,721,cs)
);
}
);
width = 207;
},
{
anchors = (
{
name = bottom;
pos = (89,0);
},
{
name = center;
pos = (90,362);
},
{
name = top;
pos = (89,724);
},
{
name = topright;
pos = (157,724);
}
);
layerId = "029FEF0C-5FA4-4A3E-AC23-838A1147A554";
shapes = (
{
closed = 1;
nodes = (
(77,527,l),
(77,0,l),
(103,0,l),
(103,527,l)
);
},
{
closed = 1;
nodes = (
(71,724,o),
(65,706,o),
(65,690,cs),
(65,672,o),
(73,656,o),
(90,656,cs),
(106,656,o),
(116,670,o),
(116,691,cs),
(116,707,o),
(110,724,o),
(91,724,cs)
);
}
);
width = 177;
}
);
script = latin;
subCategory = Lowercase;
unicode = 105;
}
{
category = Letter;
glyphname = n;
kernLeft = n.right;
kernRight = n.left;
layers = (
{
anchors = (
{
name = bottom;
pos = (335,0);
},
{
name = center;
pos = (336,281);
},
{
name = top;
pos = (335,553);
},
{
name = topright;
pos = (636,553);
}
);
layerId = "0A718E2F-231D-484E-9433-16A5230D2CE8";
shapes = (
{
closed = 1;
nodes = (
(334,563,o),
(278,532,o),
(243,480,c),
(236,480,l),
(210,553,l),
(66,553,l),
(66,0,l),
(257,0,l),
(257,242,ls),
(257,352,o),
(276,413,o),
(348,413,cs),
(395,413,o),
(415,375,o),
(415,302,cs),
(415,0,l),
(606,0,l),
(606,360,ls),
(606,502,o),
(526,563,o),
(412,563,cs)
);
}
);
width = 670;
},
{
anchors = (
{
name = bottom;
pos = (265,0);
},
{
name = center;
pos = (265,281);
},
{
name = top;
pos = (275,553);
},
{
name = topright;
pos = (500,553);
}
);
layerId = "98E204A9-1C79-49C7-AB3E-40A925F56409";
shapes = (
{
closed = 1;
nodes = (
(269,563,o),
(229,537,o),
(204,485,c),
(195,485,l),
(177,553,l),
(50,553,l),
(50,0,l),
(212,0,l),
(212,253,ls),
(212,378,o),
(224,419,o),
(270,419,cs),
(310,419,o),
(318,381,o),
(318,308,cs),
(318,0,l),
(480,0,l),
(480,360,ls),
(480,489,o),
(424,563,o),
(328,563,cs)
);
}
);
width = 529;
},
{
anchors = (
{
name = bottom;
pos = (309,0);
},
{
name = center;
pos = (311,273);
},
{
name = top;
pos = (309,536);
},
{
name = topright;
pos = (562,536);
}
);
layerId = "9FF96064-8718-4A86-A5C8-73C592101F67";
shapes = (
{
closed = 1;
nodes = (
(275,546,o),
(209,519,o),
(174,463,c),
(169,463,l),
(156,536,l),
(85,536,l),
(85,0,l),
(173,0,l),
(173,278,ls),
(173,403,o),
(211,472,o),
(330,472,cs),
(412,472,o),
(450,429,o),
(450,343,cs),
(450,0,l),
(537,0,l),
(537,349,ls),
(537,487,o),
(471,546,o),
(343,546,cs)
);
}
);
width = 618;
},
{
anchors = (
{
name = bottom;
pos = (329,0);
},
{
name = center;
pos = (330,278);
},
{
name = top;
pos = (329,546);
},
{
name = topright;
pos = (607,546);
}
);
layerId = "134B12F2-BF5D-48E3-8003-C7502B438C7E";
shapes = (
{
closed = 1;
nodes = (
(320,556,o),
(255,532,o),
(220,476,c),
(212,476,l),
(192,546,l),
(78,546,l),
(78,0,l),
(227,0,l),
(227,257,ls),
(227,373,o),
(254,437,o),
(345,437,cs),
(406,437,o),
(433,397,o),
(433,319,cs),
(433,0,l),
(582,0,l),
(582,356,l),
(582,496,o),
(505,556,o),
(388,556,cs)
);
}
);
width = 657;
},
{
anchors = (
{
name = bottom;
pos = (229,0);
},
{
name = center;
pos = (229,273);
},
{
name = top;
pos = (236,537);
},
{
name = topright;
pos = (418,537);
}
);
layerId = "36F3C8CB-53EE-4548-BFDE-2C03212BACAA";
shapes = (
{
closed = 1;
nodes = (
(211,547,o),
(167,517,o),
(144,464,c),
(139,464,l),
(130,537,l),
(65,537,l),
(65,0,l),
(146,0,l),
(146,279,ls),
(146,417,o),
(174,475,o),
(244,475,cs),
(292,475,o),
(312,432,o),
(312,348,cs),
(312,0,l),
(393,0,l),
(393,364,ls),
(393,488,o),
(348,547,o),
(262,547,cs)
);
}
);
width = 456;
},
{
anchors = (
{
name = bottom;
pos = (251,0);
},
{
name = center;
pos = (251,278);
},
{
name = top;
pos = (260,547);
},
{
name = topright;
pos = (468,547);
}
);
layerId = "43B45EC1-5522-4B1A-B0C7-88628E50A583";
shapes = (
{
closed = 1;
nodes = (
(247,557,o),
(205,529,o),
(181,477,c),
(173,477,l),
(159,547,l),
(56,547,l),
(56,0,l),
(186,0,l),
(186,263,ls),
(186,393,o),
(205,441,o),
(260,441,cs),
(303,441,o),
(316,401,o),
(316,324,cs),
(316,0,l),
(446,0,l),
(446,362,ls),
(446,489,o),
(394,557,o),
(302,557,cs)
);
}
);
width = 501;
},
{
anchors = (
{
name = bottom;
pos = (287,0);
},
{
name = center;
pos = (289,269);
},
{
name = top;
pos = (287,528);
},
{
name = topright;
pos = (553,528);
}
);
layerId = "AB666A95-3AF9-4DE8-B258-097FFCFE8A59";
shapes = (
{
closed = 1;
nodes = (
(197,538,o),
(140,478,o),
(117,417,c),
(115,417,l),
(111,528,l),
(90,528,l),
(90,0,l),
(116,0,l),
(116,302,ls),
(116,446,o),
(194,513,o),
(309,513,cs),
(406,513,o),
(463,462,o),
(463,345,cs),
(463,0,l),
(489,0,l),
(489,346,ls),
(489,477,o),
(423,538,o),
(309,538,cs)
);
}
);
width = 573;
},
{
anchors = (
{
name = bottom;
pos = (204,0);
},
{
name = center;
pos = (205,268);
},
{
name = top;
pos = (204,527);
},
{
name = topright;
pos = (388,527);
}
);
layerId = "029FEF0C-5FA4-4A3E-AC23-838A1147A554";
shapes = (
{
closed = 1;
nodes = (
(145,537,o),
(108,474,o),
(94,415,c),
(92,415,l),
(91,527,l),
(71,527,l),
(71,0,l),
(97,0,l),
(97,311,ls),
(97,445,o),
(156,513,o),
(225,513,cs),
(279,513,o),
(313,471,o),
(313,365,cs),
(313,0,l),
(339,0,l),
(339,375,ls),
(339,488,o),
(298,537,o),
(225,537,cs)
);
}
);
width = 408;
}
);
script = latin;
subCategory = Lowercase;
unicode = 110;
}
{
category = Letter;
glyphname = t;
kernLeft = t.right;
kernRight = t.left;
layers = (
{
anchors = (
{
name = bottom;
pos = (264,0);
},
{
name = center;
pos = (230,277);
},
{
name = top;
pos = (219,664);
},
{
name = topright;
pos = (321,890);
}
);
layerId = "0A718E2F-231D-484E-9433-16A5230D2CE8";
shapes = (
{
closed = 1;
nodes = (
(304,141,o),
(285,159,o),
(285,195,cs),
(285,410,l),
(421,410,l),
(421,553,l),
(285,553,l),
(285,664,l),
(160,664,l),
(111,548,l),
(26,488,l),
(26,410,l),
(93,410,l),
(93,182,ls),
(93,32,o),
(166,-10,o),
(274,-10,cs),
(346,-10,o),
(387,3,o),
(429,21,c),
(429,160,l),
(398,149,o),
(371,141,o),
(337,141,cs)
);
}
);
width = 460;
},
{
anchors = (
{
name = bottom;
pos = (208,0);
},
{
name = center;
pos = (177,277);
},
{
name = top;
pos = (163,664);
},
{
name = topright;
pos = (211,880);
}
);
layerId = "98E204A9-1C79-49C7-AB3E-40A925F56409";
shapes = (
{
closed = 1;
nodes = (
(238,130,o),
(225,148,o),
(225,184,cs),
(225,420,l),
(329,420,l),
(329,553,l),
(225,553,l),
(225,664,l),
(115,664,l),
(77,548,l),
(7,506,l),
(7,420,l),
(63,420,l),
(63,182,ls),
(63,52,o),
(107,-10,o),
(216,-10,cs),
(261,-10,o),
(300,1,o),
(336,21,c),
(336,149,l),
(309,137,o),
(285,130,o),
(265,130,cs)
);
}
);
width = 354;
},
{
anchors = (
{
name = bottom;
pos = (214,0);
},
{
name = center;
pos = (181,268);
},
{
name = top;
pos = (154,659);
},
{
name = topright;
pos = (225,840);
}
);
layerId = "9FF96064-8718-4A86-A5C8-73C592101F67";
shapes = (
{
closed = 1;
nodes = (
(215,62,o),
(180,93,o),
(180,158,cs),
(180,468,l),
(335,468,l),
(335,536,l),
(180,536,l),
(180,659,l),
(128,659,l),
(93,545,l),
(16,510,l),
(16,468,l),
(92,468,l),
(92,156,ls),
(92,26,o),
(165,-10,o),
(249,-10,cs),
(281,-10,o),
(320,-3,o),
(339,6,c),
(339,73,l),
(322,67,o),
(290,62,o),
(264,62,cs)
);
}
);
width = 361;
},
{
anchors = (
{
name = bottom;
pos = (241,0);
},
{
name = center;
pos = (217,273);
},
{
name = top;
pos = (198,662);
},
{
name = topright;
pos = (296,860);
}
);
layerId = "134B12F2-BF5D-48E3-8003-C7502B438C7E";
shapes = (
{
closed = 1;
nodes = (
(269,109,o),
(243,129,o),
(243,171,cs),
(243,434,l),
(396,434,l),
(396,546,l),
(243,546,l),
(243,662,l),
(148,662,l),
(105,547,l),
(23,497,l),
(23,434,l),
(94,434,l),
(94,171,ls),
(94,30,o),
(167,-10,o),
(265,-10,cs),
(321,-10,o),
(370,1,o),
(402,15,c),
(402,126,l),
(371,116,o),
(341,109,o),
(308,109,cs)
);
}
);
width = 434;
},
{
anchors = (
{
name = bottom;
pos = (159,0);
},
{
name = center;
pos = (130,268);
},
{
name = top;
pos = (119,658);
},
{
name = topright;
pos = (148,840);
}
);
layerId = "36F3C8CB-53EE-4548-BFDE-2C03212BACAA";
shapes = (
{
closed = 1;
nodes = (
(158,62,o),
(148,89,o),
(148,143,cs),
(148,469,l),
(238,469,l),
(238,537,l),
(148,537,l),
(148,658,l),
(93,658,l),
(71,535,l),
(17,513,l),
(17,469,l),
(67,469,l),
(67,133,ls),
(67,37,o),
(99,-10,o),
(170,-10,cs),
(200,-10,o),
(224,-4,o),
(245,6,c),
(245,72,l),
(229,66,o),
(213,62,o),
(197,62,cs)
);
}
);
width = 259;
},
{
anchors = (
{
name = bottom;
pos = (189,0);
},
{
name = center;
pos = (159,274);
},
{
name = top;
pos = (138,662);
},
{
name = topright;
pos = (196,860);
}
);
layerId = "43B45EC1-5522-4B1A-B0C7-88628E50A583";
shapes = (
{
closed = 1;
nodes = (
(207,104,o),
(195,125,o),
(195,168,cs),
(195,439,l),
(293,439,l),
(293,547,l),
(195,547,l),
(195,662,l),
(106,662,l),
(75,543,l),
(11,509,l),
(11,439,l),
(65,439,l),
(65,163,ls),
(65,46,o),
(104,-10,o),
(198,-10,cs),
(237,-10,o),
(271,-1,o),
(300,15,c),
(300,119,l),
(278,109,o),
(257,104,o),
(239,104,cs)
);
}
);
width = 317;
},
{
anchors = (
{
name = bottom;
pos = (191,0);
},
{
name = center;
pos = (160,264);
},
{
name = top;
pos = (109,659);
},
{
name = topright;
pos = (269,830);
}
);
layerId = "AB666A95-3AF9-4DE8-B258-097FFCFE8A59";
shapes = (
{
closed = 1;
nodes = (
(138,15,o),
(117,61,o),
(117,143,cs),
(117,503,l),
(289,503,l),
(289,528,l),
(117,528,l),
(117,659,l),
(96,659,l),
(90,528,l),
(10,525,l),
(10,503,l),
(91,503,l),
(91,140,ls),
(91,47,o),
(119,-10,o),
(212,-10,cs),
(247,-10,o),
(269,-4,o),
(291,3,c),
(291,28,l),
(269,20,o),
(245,15,o),
(212,15,cs)
);
}
);
width = 319;
},
{
anchors = (
{
name = bottom;
pos = (134,0);
},
{
name = center;
pos = (105,264);
},
{
name = top;
pos = (85,656);
},
{
name = topright;
pos = (119,800);
}
);
layerId = "029FEF0C-5FA4-4A3E-AC23-838A1147A554";
shapes = (
{
closed = 1;
nodes = (
(107,14,o),
(97,44,o),
(97,108,cs),
(97,503,l),
(196,503,l),
(196,527,l),
(97,527,l),
(97,656,l),
(76,656,l),
(69,528,l),
(21,521,l),
(21,503,l),
(71,503,l),
(71,112,ls),
(71,32,o),
(85,-10,o),
(146,-10,cs),
(165,-10,o),
(179,-6,o),
(192,0,c),
(192,25,l),
(182,19,o),
(164,14,o),
(147,14,cs)
);
}
);
width = 209;
}
);
script = latin;
subCategory = Lowercase;
unicode = 116;
}
{
category = Symbol;
glyphname = sterling;
layers = (
{
layerId = "0A718E2F-231D-484E-9433-16A5230D2CE8";
shapes = (
{
closed = 1;
nodes = (
(221,725,o),
(131,661,o),
(131,510,cs),
(131,452,l),
(50,452,l),
(50,317,l),
(131,317,l),
(131,269,ls),
(131,202,o),
(104,184,o),
(51,153,c),
(51,0,l),
(569,0,l),
(569,159,l),
(241,159,l),
(276,176,o),
(319,206,o),
(319,270,cs),
(319,317,l),
(487,317,l),
(487,452,l),
(319,452,l),
(319,504,ls),
(319,557,o),
(343,571,o),
(374,571,cs),
(404,571,o),
(447,563,o),
(497,544,c),
(551,685,l),
(494,709,o),
(424,725,o),
(353,725,cs)
);
}
);
width = 586;
},
{
layerId = "98E204A9-1C79-49C7-AB3E-40A925F56409";
shapes = (
{
closed = 1;
nodes = (
(177,724,o),
(106,649,o),
(106,509,cs),
(106,429,l),
(44,429,l),
(44,307,l),
(106,307,l),
(106,256,ls),
(106,192,o),
(89,170,o),
(44,140,c),
(44,0,l),
(461,0,l),
(461,146,l),
(205,146,l),
(249,171,o),
(271,208,o),
(271,257,cs),
(271,307,l),
(399,307,l),
(399,429,l),
(271,429,l),
(271,510,ls),
(271,556,o),
(284,577,o),
(312,577,cs),
(338,577,o),
(370,568,o),
(407,550,c),
(448,684,l),
(399,711,o),
(349,724,o),
(296,724,cs)
);
}
);
width = 495;
},
{
layerId = "9FF96064-8718-4A86-A5C8-73C592101F67";
shapes = (
{
closed = 1;
nodes = (
(211,723,o),
(131,653,o),
(131,534,cs),
(131,386,l),
(35,386,l),
(35,320,l),
(131,320,l),
(131,215,ls),
(131,127,o),
(89,88,o),
(32,74,c),
(32,0,l),
(535,0,l),
(535,80,l),
(151,80,l),
(186,101,o),
(219,135,o),
(219,216,cs),
(219,320,l),
(423,320,l),
(423,386,l),
(219,386,l),
(219,525,ls),
(219,613,o),
(260,650,o),
(336,650,cs),
(390,650,o),
(440,631,o),
(480,612,c),
(511,682,l),
(465,705,o),
(407,723,o),
(334,723,cs)
);
}
);
width = 572;
},
{
layerId = "134B12F2-BF5D-48E3-8003-C7502B438C7E";
shapes = (
{
closed = 1;
nodes = (
(224,724,o),
(128,667,o),
(128,520,cs),
(128,425,l),
(41,425,l),
(41,318,l),
(128,318,l),
(128,247,ls),
(128,171,o),
(95,145,o),
(40,121,c),
(40,0,l),
(552,0,l),
(552,127,l),
(201,127,l),
(236,145,o),
(275,177,o),
(275,248,cs),
(275,318,l),
(458,318,l),
(458,425,l),
(275,425,l),
(275,519,ls),
(275,581,o),
(311,603,o),
(354,603,cs),
(395,603,o),
(441,591,o),
(487,572,c),
(532,684,l),
(480,706,o),
(414,724,o),
(342,724,cs)
);
}
);
width = 572;
},
{
layerId = "36F3C8CB-53EE-4548-BFDE-2C03212BACAA";
shapes = (
{
closed = 1;
nodes = (
(162,724,o),
(113,662,o),
(113,536,cs),
(113,391,l),
(40,391,l),
(40,326,l),
(113,326,l),
(113,211,ls),
(113,137,o),
(89,92,o),
(44,70,c),
(44,0,l),
(390,0,l),
(390,76,l),
(135,76,l),
(176,103,o),
(196,148,o),
(196,212,cs),
(196,326,l),
(319,326,l),
(319,391,l),
(196,391,l),
(196,536,ls),
(196,615,o),
(216,649,o),
(265,649,cs),
(295,649,o),
(322,639,o),
(356,616,c),
(387,682,l),
(349,710,o),
(308,724,o),
(261,724,cs)
);
}
);
width = 429;
},
{
layerId = "43B45EC1-5522-4B1A-B0C7-88628E50A583";
shapes = (
{
closed = 1;
nodes = (
(172,724,o),
(109,654,o),
(109,520,cs),
(109,414,l),
(43,414,l),
(43,314,l),
(109,314,l),
(109,238,ls),
(109,171,o),
(89,140,o),
(45,113,c),
(45,0,l),
(434,0,l),
(434,119,l),
(178,119,l),
(221,145,o),
(242,185,o),
(242,239,cs),
(242,314,l),
(368,314,l),
(368,414,l),
(242,414,l),
(242,520,ls),
(242,579,o),
(258,605,o),
(294,605,cs),
(322,605,o),
(352,596,o),
(388,576,c),
(425,683,l),
(380,711,o),
(334,724,o),
(283,724,cs)
);
}
);
width = 469;
},
{
layerId = "AB666A95-3AF9-4DE8-B258-097FFCFE8A59";
shapes = (
{
closed = 1;
nodes = (
(228,723,o),
(165,654,o),
(165,516,cs),
(165,360,l),
(58,360,l),
(58,335,l),
(165,335,l),
(165,187,ls),
(165,89,o),
(123,37,o),
(42,23,c),
(42,0,l),
(518,0,l),
(518,25,l),
(111,25,l),
(157,48,o),
(191,95,o),
(191,188,cs),
(191,335,l),
(390,335,l),
(390,360,l),
(191,360,l),
(191,512,ls),
(191,639,o),
(241,698,o),
(344,698,cs),
(400,698,o),
(438,687,o),
(482,669,c),
(491,694,l),
(452,710,o),
(407,723,o),
(344,723,cs)
);
}
);
width = 570;
},
{
layerId = "029FEF0C-5FA4-4A3E-AC23-838A1147A554";
shapes = (
{
closed = 1;
nodes = (
(148,724,o),
(120,647,o),
(120,548,cs),
(120,366,l),
(39,366,l),
(39,341,l),
(120,341,l),
(120,182,ls),
(120,88,o),
(93,42,o),
(40,23,c),
(40,0,l),
(347,0,l),
(347,25,l),
(80,25,l),
(120,45,o),
(146,97,o),
(146,177,cs),
(146,341,l),
(267,341,l),
(267,366,l),
(146,366,l),
(146,541,ls),
(146,651,o),
(177,699,o),
(247,699,cs),
(269,699,o),
(292,694,o),
(321,669,c),
(337,688,l),
(312,712,o),
(285,724,o),
(247,724,cs)
);
}
);
width = 386;
}
);
script = "";
subCategory = Currency;
unicode = 163;
}
{
category = Symbol;
glyphname = section;
layers = (
{
layerId = "0A718E2F-231D-484E-9433-16A5230D2CE8";
shapes = (
{
closed = 1;
nodes = (
(52,300,o),
(119,260,o),
(215,217,cs),
(285,186,o),
(298,170,o),
(298,143,cs),
(298,115,o),
(281,96,o),
(230,96,cs),
(185,96,o),
(114,118,o),
(57,149,c),
(57,30,l),
(105,2,o),
(162,-12,o),
(229,-12,cs),
(370,-12,o),
(442,57,o),
(442,147,cs),
(442,199,o),
(417,239,o),
(381,266,c),
(417,292,o),
(453,325,o),
(453,392,cs),
(453,455,o),
(406,507,o),
(292,553,cs),
(224,581,o),
(207,604,o),
(207,626,cs),
(207,650,o),
(226,662,o),
(260,662,cs),
(301,662,o),
(351,643,o),
(394,620,c),
(442,728,l),
(392,752,o),
(328,770,o),
(261,770,cs),
(134,770,o),
(63,710,o),
(63,626,cs),
(63,576,o),
(87,538,o),
(132,506,c),
(93,482,o),
(52,443,o),
(52,392,cs)
);
},
{
closed = 1;
nodes = (
(194,433,o),
(208,449,o),
(222,457,c),
(290,428,o),
(311,402,o),
(311,367,cs),
(311,341,o),
(300,325,o),
(291,315,c),
(278,322,l),
(219,353,o),
(194,374,o),
(194,407,cs)
);
}
);
width = 500;
},
{
layerId = "98E204A9-1C79-49C7-AB3E-40A925F56409";
shapes = (
{
closed = 1;
nodes = (
(38,297,o),
(75,256,o),
(178,203,cs),
(240,171,o),
(249,162,o),
(249,135,cs),
(249,107,o),
(229,93,o),
(191,93,cs),
(154,93,o),
(85,119,o),
(43,147,c),
(43,25,l),
(86,-3,o),
(137,-18,o),
(196,-18,cs),
(314,-18,o),
(386,44,o),
(386,141,cs),
(386,189,o),
(368,229,o),
(332,259,c),
(376,295,o),
(396,332,o),
(396,389,cs),
(396,464,o),
(356,507,o),
(259,553,cs),
(213,575,o),
(186,590,o),
(186,616,cs),
(186,640,o),
(201,651,o),
(232,651,cs),
(263,651,o),
(305,635,o),
(346,608,c),
(386,719,l),
(334,747,o),
(281,761,o),
(225,761,cs),
(120,761,o),
(48,707,o),
(48,619,cs),
(48,572,o),
(69,532,o),
(110,500,c),
(64,470,o),
(38,429,o),
(38,382,cs)
);
},
{
closed = 1;
nodes = (
(165,424,o),
(173,441,o),
(190,452,c),
(247,425,o),
(270,398,o),
(270,360,cs),
(270,340,o),
(264,323,o),
(252,309,c),
(226,324,ls),
(180,351,o),
(165,372,o),
(165,401,cs)
);
}
);
width = 436;
},
{
layerId = "9FF96064-8718-4A86-A5C8-73C592101F67";
shapes = (
{
closed = 1;
nodes = (
(67,307,o),
(128,270,o),
(233,231,cs),
(342,190,o),
(362,170,o),
(362,133,cs),
(362,95,o),
(331,62,o),
(232,62,cs),
(169,62,o),
(102,83,o),
(59,103,c),
(59,28,l),
(101,7,o),
(154,-5,o),
(228,-5,cs),
(365,-5,o),
(446,48,o),
(446,140,cs),
(446,191,o),
(419,225,o),
(372,250,c),
(411,273,o),
(447,315,o),
(447,383,cs),
(447,463,o),
(387,505,o),
(284,543,cs),
(182,580,o),
(152,601,o),
(152,638,cs),
(152,675,o),
(181,697,o),
(261,697,cs),
(325,697,o),
(365,682,o),
(411,664,c),
(438,731,l),
(388,751,o),
(342,765,o),
(267,765,cs),
(140,765,o),
(70,716,o),
(70,636,cs),
(70,582,o),
(98,547,o),
(146,521,c),
(105,501,o),
(67,461,o),
(67,395,cs)
);
},
{
closed = 1;
nodes = (
(142,449,o),
(177,481,o),
(214,491,c),
(337,452,o),
(371,420,o),
(371,370,cs),
(371,325,o),
(338,297,o),
(307,279,c),
(285,287,ls),
(178,327,o),
(142,356,o),
(142,405,cs)
);
}
);
width = 513;
},
{
layerId = "134B12F2-BF5D-48E3-8003-C7502B438C7E";
shapes = (
{
closed = 1;
nodes = (
(59,302,o),
(116,264,o),
(216,223,cs),
(302,187,o),
(317,172,o),
(317,139,cs),
(317,107,o),
(295,82,o),
(222,82,cs),
(172,82,o),
(103,104,o),
(52,130,c),
(52,29,l),
(97,4,o),
(151,-10,o),
(222,-10,cs),
(354,-10,o),
(437,52,o),
(437,148,cs),
(437,196,o),
(416,229,o),
(376,255,c),
(412,279,o),
(437,316,o),
(437,381,cs),
(437,460,o),
(375,509,o),
(282,546,cs),
(209,575,o),
(178,594,o),
(178,627,cs),
(178,657,o),
(201,672,o),
(254,672,cs),
(304,672,o),
(350,652,o),
(394,631,c),
(434,724,l),
(379,748,o),
(323,765,o),
(257,765,cs),
(138,765,o),
(59,709,o),
(59,625,cs),
(59,576,o),
(83,538,o),
(124,512,c),
(89,488,o),
(59,448,o),
(59,391,c)
);
},
{
closed = 1;
nodes = (
(168,435,o),
(189,460,o),
(212,469,c),
(303,437,o),
(326,408,o),
(326,368,cs),
(326,334,o),
(307,312,o),
(288,298,c),
(281,301,l),
(204,333,o),
(168,362,o),
(168,402,c)
);
}
);
width = 486;
},
{
layerId = "36F3C8CB-53EE-4548-BFDE-2C03212BACAA";
shapes = (
{
closed = 1;
nodes = (
(39,348,o),
(69,314,o),
(148,269,cs),
(223,226,o),
(247,211,o),
(247,164,cs),
(247,121,o),
(214,89,o),
(161,89,cs),
(120,89,o),
(71,106,o),
(40,131,c),
(40,60,l),
(73,39,o),
(114,28,o),
(163,28,cs),
(258,28,o),
(321,82,o),
(321,168,cs),
(321,211,o),
(304,245,o),
(264,278,c),
(300,301,o),
(323,345,o),
(323,395,cs),
(323,466,o),
(281,502,o),
(204,542,cs),
(151,571,o),
(122,591,o),
(122,635,cs),
(122,674,o),
(150,700,o),
(197,700,cs),
(226,700,o),
(253,692,o),
(288,671,c),
(314,729,l),
(274,751,o),
(242,760,o),
(196,760,cs),
(113,760,o),
(49,713,o),
(49,631,cs),
(49,588,o),
(69,551,o),
(111,521,c),
(66,499,o),
(39,459,o),
(39,408,cs)
);
},
{
closed = 1;
nodes = (
(109,451,o),
(126,479,o),
(159,491,c),
(239,446,o),
(254,429,o),
(254,384,cs),
(254,351,o),
(242,326,o),
(217,310,c),
(181,329,l),
(139,354,o),
(109,378,o),
(109,418,cs)
);
}
);
width = 370;
},
{
layerId = "43B45EC1-5522-4B1A-B0C7-88628E50A583";
shapes = (
{
closed = 1;
nodes = (
(39,317,o),
(73,279,o),
(167,229,cs),
(234,192,o),
(249,181,o),
(249,146,cs),
(249,112,o),
(224,92,o),
(180,92,cs),
(141,92,o),
(80,114,o),
(43,141,c),
(43,39,l),
(81,13,o),
(129,0,o),
(184,0,cs),
(293,0,o),
(361,59,o),
(361,152,cs),
(361,198,o),
(344,235,o),
(306,266,c),
(347,298,o),
(368,337,o),
(368,391,cs),
(368,465,o),
(327,505,o),
(238,549,cs),
(189,574,o),
(162,591,o),
(162,623,cs),
(162,653,o),
(182,670,o),
(219,670,cs),
(249,670,o),
(285,657,o),
(324,633,c),
(359,723,l),
(311,748,o),
(266,761,o),
(214,761,cs),
(118,761,o),
(49,709,o),
(49,624,cs),
(49,578,o),
(70,540,o),
(111,508,c),
(65,481,o),
(39,441,o),
(39,392,cs)
);
},
{
closed = 1;
nodes = (
(143,435,o),
(154,456,o),
(178,467,c),
(244,433,o),
(264,410,o),
(264,369,cs),
(264,344,o),
(255,324,o),
(238,309,c),
(208,326,l),
(164,352,o),
(143,374,o),
(143,408,cs)
);
}
);
width = 410;
},
{
layerId = "AB666A95-3AF9-4DE8-B258-097FFCFE8A59";
shapes = (
{
closed = 1;
nodes = (
(82,301,o),
(154,278,o),
(243,251,cs),
(328,226,o),
(397,203,o),
(397,133,cs),
(397,67,o),
(349,23,o),
(233,23,cs),
(173,23,o),
(116,36,o),
(65,61,c),
(65,32,l),
(102,16,o),
(163,-1,o),
(233,-1,cs),
(360,-1,o),
(423,52,o),
(423,133,cs),
(423,193,o),
(386,223,o),
(337,244,c),
(390,270,o),
(429,317,o),
(429,381,cs),
(429,478,o),
(343,500,o),
(258,527,cs),
(180,552,o),
(114,564,o),
(114,633,cs),
(114,701,o),
(170,735,o),
(263,735,cs),
(314,735,o),
(370,724,o),
(406,706,c),
(417,730,l),
(376,747,o),
(323,759,o),
(263,759,cs),
(155,759,o),
(88,712,o),
(88,633,cs),
(88,569,o),
(131,543,o),
(190,522,c),
(126,501,o),
(82,460,o),
(82,395,cs)
);
},
{
closed = 1;
nodes = (
(108,460,o),
(159,494,o),
(225,511,c),
(338,483,o),
(403,454,o),
(403,381,cs),
(403,323,o),
(367,278,o),
(311,255,c),
(251,274,ls),
(173,299,o),
(108,316,o),
(108,395,cs)
);
}
);
width = 518;
},
{
layerId = "029FEF0C-5FA4-4A3E-AC23-838A1147A554";
shapes = (
{
closed = 1;
nodes = (
(49,358,o),
(85,331,o),
(130,306,cs),
(194,271,o),
(256,249,o),
(256,173,cs),
(256,112,o),
(216,71,o),
(146,71,cs),
(106,71,o),
(64,85,o),
(40,101,c),
(40,73,l),
(63,59,o),
(106,48,o),
(146,48,cs),
(233,48,o),
(282,100,o),
(282,173,cs),
(282,222,o),
(260,252,o),
(221,282,c),
(253,306,o),
(280,338,o),
(280,394,cs),
(280,463,o),
(239,491,o),
(175,532,cs),
(118,569,o),
(78,600,o),
(78,656,cs),
(78,711,o),
(117,738,o),
(172,738,cs),
(210,738,o),
(241,724,o),
(257,714,c),
(270,734,l),
(246,749,o),
(210,760,o),
(172,760,cs),
(92,760,o),
(53,714,o),
(53,656,cs),
(53,597,o),
(93,563,o),
(140,529,c),
(94,512,o),
(49,476,o),
(49,415,cs)
);
},
{
closed = 1;
nodes = (
(73,475,o),
(118,501,o),
(159,515,c),
(228,474,o),
(256,441,o),
(256,390,cs),
(256,337,o),
(226,307,o),
(202,294,c),
(146,324,ls),
(99,349,o),
(73,371,o),
(73,416,cs)
);
}
);
width = 330;
}
);
script = "";
subCategory = Other;
unicode = 167;
}
{
category = Symbol;
glyphname = copyright;
kernLeft = copyright;
kernRight = copyright;
layers = (
{
layerId = "0A718E2F-231D-484E-9433-16A5230D2CE8";
shapes = (
{
closed = 1;
nodes = (
(465,128,o),
(505,138,o),
(546,159,c),
(546,272,l),
(506,249,o),
(462,239,o),
(420,239,cs),
(361,239,o),
(333,274,o),
(333,357,cs),
(333,433,o),
(365,474,o),
(417,474,cs),
(455,474,o),
(486,465,o),
(520,447,c),
(565,547,l),
(517,571,o),
(468,585,o),
(408,585,cs),
(267,585,o),
(196,495,o),
(196,359,cs),
(196,219,o),
(269,128,o),
(413,128,cs)
);
},
{
closed = 1;
nodes = (
(625,-10,o),
(779,144,o),
(779,357,cs),
(779,570,o),
(625,724,o),
(412,724,cs),
(199,724,o),
(45,570,o),
(45,357,cs),
(45,144,o),
(199,-10,o),
(412,-10,cs)
);
},
{
closed = 1;
nodes = (
(247,70,o),
(133,188,o),
(133,357,cs),
(133,526,o),
(247,644,o),
(412,644,cs),
(575,644,o),
(689,526,o),
(689,357,cs),
(689,188,o),
(575,70,o),
(412,70,cs)
);
}
);
width = 824;
},
{
layerId = "98E204A9-1C79-49C7-AB3E-40A925F56409";
shapes = (
{
closed = 1;
nodes = (
(463,128,o),
(507,138,o),
(548,159,c),
(548,262,l),
(509,240,o),
(465,229,o),
(426,229,cs),
(354,229,o),
(323,267,o),
(323,352,cs),
(323,444,o),
(359,484,o),
(422,484,cs),
(452,484,o),
(487,475,o),
(522,457,c),
(567,547,l),
(516,572,o),
(464,585,o),
(410,585,cs),
(274,585,o),
(198,501,o),
(198,358,cs),
(198,212,o),
(278,128,o),
(415,128,cs)
);
},
{
closed = 1;
nodes = (
(631,-10,o),
(779,142,o),
(779,354,cs),
(779,570,o),
(624,724,o),
(411,724,cs),
(201,724,o),
(45,573,o),
(45,359,cs),
(45,156,o),
(186,-10,o),
(413,-10,cs)
);
},
{
closed = 1;
nodes = (
(253,64,o),
(129,179,o),
(129,355,cs),
(129,522,o),
(241,650,o),
(410,650,cs),
(572,650,o),
(695,532,o),
(695,358,cs),
(695,192,o),
(583,64,o),
(414,64,cs)
);
}
);
width = 824;
},
{
layerId = "9FF96064-8718-4A86-A5C8-73C592101F67";
shapes = (
{
closed = 1;
nodes = (
(478,133,o),
(508,143,o),
(540,157,c),
(540,221,l),
(507,208,o),
(466,198,o),
(435,198,cs),
(347,198,o),
(312,255,o),
(312,357,cs),
(312,455,o),
(357,515,o),
(436,515,cs),
(464,515,o),
(496,506,o),
(529,489,c),
(558,550,l),
(521,569,o),
(476,580,o),
(435,580,cs),
(305,580,o),
(234,487,o),
(234,357,cs),
(234,222,o),
(299,133,o),
(431,133,cs)
);
},
{
closed = 1;
nodes = (
(629,-10,o),
(783,144,o),
(783,357,cs),
(783,570,o),
(619,724,o),
(416,724,cs),
(203,724,o),
(49,570,o),
(49,357,cs),
(49,144,o),
(203,-10,o),
(416,-10,cs)
);
},
{
closed = 1;
nodes = (
(235,43,o),
(105,184,o),
(105,357,cs),
(105,540,o),
(235,671,o),
(416,671,cs),
(597,671,o),
(726,530,o),
(726,357,cs),
(726,174,o),
(587,43,o),
(416,43,cs)
);
}
);
width = 832;
},
{
layerId = "134B12F2-BF5D-48E3-8003-C7502B438C7E";
shapes = (
{
closed = 1;
nodes = (
(478,128,o),
(508,138,o),
(540,152,c),
(540,221,l),
(507,208,o),
(466,198,o),
(435,198,cs),
(347,198,o),
(312,255,o),
(312,357,cs),
(312,455,o),
(357,515,o),
(436,515,cs),
(464,515,o),
(496,506,o),
(529,489,c),
(558,556,l),
(521,575,o),
(476,586,o),
(435,586,cs),
(301,586,o),
(228,490,o),
(228,357,cs),
(228,219,o),
(295,128,o),
(431,128,cs)
);
},
{
closed = 1;
nodes = (
(629,-10,o),
(783,144,o),
(783,357,cs),
(783,570,o),
(619,724,o),
(416,724,cs),
(207,724,o),
(49,560,o),
(49,357,cs),
(49,144,o),
(203,-10,o),
(416,-10,cs)
);
},
{
closed = 1;
nodes = (
(241,54,o),
(117,180,o),
(117,357,cs),
(117,534,o),
(245,661,o),
(416,661,cs),
(585,661,o),
(713,524,o),
(713,357,cs),
(713,180,o),
(580,54,o),
(416,54,cs)
);
}
);
width = 832;
},
{
layerId = "36F3C8CB-53EE-4548-BFDE-2C03212BACAA";
shapes = (
{
closed = 1;
nodes = (
(468,134,o),
(505,142,o),
(540,158,c),
(540,219,l),
(503,203,o),
(467,195,o),
(434,195,cs),
(348,195,o),
(304,246,o),
(304,358,cs),
(304,460,o),
(354,518,o),
(436,518,cs),
(467,518,o),
(499,511,o),
(533,495,c),
(559,551,l),
(519,570,o),
(477,579,o),
(434,579,cs),
(308,579,o),
(231,492,o),
(231,355,cs),
(231,213,o),
(303,134,o),
(429,134,cs)
);
},
{
closed = 1;
nodes = (
(626,-10,o),
(782,144,o),
(782,357,cs),
(782,563,o),
(632,724,o),
(415,724,cs),
(211,724,o),
(48,575,o),
(48,357,cs),
(48,158,o),
(189,-10,o),
(415,-10,cs)
);
},
{
closed = 1;
nodes = (
(240,43,o),
(104,169,o),
(104,357,cs),
(104,533,o),
(230,671,o),
(415,671,cs),
(593,671,o),
(725,539,o),
(725,357,cs),
(725,181,o),
(600,43,o),
(415,43,cs)
);
}
);
width = 830;
},
{
layerId = "43B45EC1-5522-4B1A-B0C7-88628E50A583";
shapes = (
{
closed = 1;
nodes = (
(474,130,o),
(515,140,o),
(554,159,c),
(554,245,l),
(516,226,o),
(475,216,o),
(438,216,cs),
(362,216,o),
(325,259,o),
(325,353,cs),
(325,451,o),
(366,497,o),
(437,497,cs),
(467,497,o),
(501,489,o),
(535,472,c),
(573,548,l),
(526,571,o),
(478,583,o),
(428,583,cs),
(297,583,o),
(220,498,o),
(220,356,cs),
(220,213,o),
(297,130,o),
(429,130,cs)
);
},
{
closed = 1;
nodes = (
(624,-10,o),
(784,141,o),
(784,355,cs),
(784,566,o),
(629,724,o),
(414,724,cs),
(206,724,o),
(42,575,o),
(42,356,cs),
(42,149,o),
(188,-10,o),
(409,-10,cs)
);
},
{
closed = 1;
nodes = (
(247,56,o),
(117,174,o),
(117,354,cs),
(117,526,o),
(235,658,o),
(412,658,cs),
(581,658,o),
(708,537,o),
(708,355,cs),
(708,179,o),
(588,56,o),
(416,56,cs)
);
}
);
width = 826;
},
{
layerId = "AB666A95-3AF9-4DE8-B258-097FFCFE8A59";
shapes = (
{
closed = 1;
nodes = (
(480,143,o),
(516,150,o),
(550,164,c),
(550,188,l),
(510,173,o),
(482,168,o),
(435,168,cs),
(333,168,o),
(257,231,o),
(257,356,cs),
(257,473,o),
(332,546,o),
(439,546,cs),
(489,546,o),
(523,537,o),
(554,523,c),
(565,546,l),
(531,562,o),
(497,572,o),
(439,572,cs),
(316,572,o),
(230,487,o),
(230,356,cs),
(230,213,o),
(312,143,o),
(435,143,cs)
);
},
{
closed = 1;
nodes = (
(617,-8,o),
(782,156,o),
(782,357,cs),
(782,546,o),
(629,722,o),
(416,722,cs),
(217,722,o),
(50,565,o),
(50,357,cs),
(50,157,o),
(202,-8,o),
(416,-8,cs)
);
},
{
closed = 1;
nodes = (
(213,17,o),
(76,172,o),
(76,357,cs),
(76,546,o),
(225,697,o),
(416,697,cs),
(611,697,o),
(756,540,o),
(756,357,cs),
(756,176,o),
(611,17,o),
(416,17,cs)
);
}
);
width = 832;
},
{
layerId = "029FEF0C-5FA4-4A3E-AC23-838A1147A554";
shapes = (
{
closed = 1;
nodes = (
(478,143,o),
(516,150,o),
(550,164,c),
(550,187,l),
(510,172,o),
(476,167,o),
(443,167,cs),
(324,167,o),
(256,230,o),
(256,357,cs),
(256,476,o),
(316,547,o),
(431,547,cs),
(472,547,o),
(512,538,o),
(543,524,c),
(554,546,l),
(520,562,o),
(478,572,o),
(432,572,cs),
(301,572,o),
(229,490,o),
(229,357,cs),
(229,216,o),
(310,143,o),
(438,143,cs)
);
},
{
closed = 1;
nodes = (
(633,-8,o),
(781,146,o),
(781,355,cs),
(781,562,o),
(637,722,o),
(416,722,cs),
(206,722,o),
(49,577,o),
(49,357,cs),
(49,147,o),
(191,-8,o),
(412,-8,cs)
);
},
{
closed = 1;
nodes = (
(206,17,o),
(75,164,o),
(75,357,cs),
(75,555,o),
(214,697,o),
(414,697,cs),
(620,697,o),
(755,547,o),
(755,357,cs),
(755,166,o),
(619,17,o),
(412,17,cs)
);
}
);
width = 830;
}
);
script = "";
subCategory = Other;
unicode = 169;
}
{
category = Mark;
glyphname = overscore;
layers = (
{
layerId = "0A718E2F-231D-484E-9433-16A5230D2CE8";
shapes = (
{
closed = 1;
nodes = (
(503,880,l),
(-3,880,l),
(-3,760,l),
(503,760,l)
);
}
);
width = 500;
},
{
layerId = "98E204A9-1C79-49C7-AB3E-40A925F56409";
shapes = (
{
closed = 1;
nodes = (
(497,880,l),
(-2,880,l),
(-2,760,l),
(497,760,l)
);
}
);
width = 495;
},
{
layerId = "9FF96064-8718-4A86-A5C8-73C592101F67";
shapes = (
{
closed = 1;
nodes = (
(503,826,l),
(-3,826,l),
(-3,760,l),
(503,760,l)
);
}
);
width = 500;
},
{
layerId = "134B12F2-BF5D-48E3-8003-C7502B438C7E";
shapes = (
{
closed = 1;
nodes = (
(503,858,l),
(-3,858,l),
(-3,760,l),
(503,760,l)
);
}
);
width = 500;
},
{
layerId = "36F3C8CB-53EE-4548-BFDE-2C03212BACAA";
shapes = (
{
closed = 1;
nodes = (
(439,824,l),
(-4,824,l),
(-4,760,l),
(439,760,l)
);
}
);
width = 436;
},
{
layerId = "43B45EC1-5522-4B1A-B0C7-88628E50A583";
shapes = (
{
closed = 1;
nodes = (
(475,858,l),
(-2,858,l),
(-2,760,l),
(475,760,l)
);
}
);
width = 472;
},
{
layerId = "AB666A95-3AF9-4DE8-B258-097FFCFE8A59";
shapes = (
{
closed = 1;
nodes = (
(503,785,l),
(-3,785,l),
(-3,760,l),
(503,760,l)
);
}
);
width = 500;
},
{
layerId = "029FEF0C-5FA4-4A3E-AC23-838A1147A554";
shapes = (
{
closed = 1;
nodes = (
(392,786,l),
(-4,786,l),
(-4,760,l),
(392,760,l)
);
}
);
width = 388;
}
);
script = "";
subCategory = Spacing;
unicode = 175;
}
{
category = Symbol;
glyphname = degree;
layers = (
{
layerId = "0A718E2F-231D-484E-9433-16A5230D2CE8";
shapes = (
{
closed = 1;
nodes = (
(316,366,o),
(391,439,o),
(391,544,cs),
(391,648,o),
(316,724,o),
(211,724,cs),
(106,724,o),
(31,648,o),
(31,544,cs),
(31,439,o),
(106,366,o),
(211,366,cs)
);
},
{
closed = 1;
nodes = (
(172,482,o),
(147,507,o),
(147,544,cs),
(147,583,o),
(172,609,o),
(211,609,cs),
(250,609,o),
(275,583,o),
(275,544,cs),
(275,507,o),
(250,482,o),
(211,482,cs)
);
}
);
width = 422;
},
{
layerId = "98E204A9-1C79-49C7-AB3E-40A925F56409";
shapes = (
{
closed = 1;
nodes = (
(270,416,o),
(339,479,o),
(339,570,cs),
(339,661,o),
(270,724,o),
(179,724,cs),
(89,724,o),
(20,661,o),
(20,570,cs),
(20,479,o),
(89,416,o),
(179,416,cs)
);
},
{
closed = 1;
nodes = (
(141,510,o),
(120,532,o),
(120,570,cs),
(120,607,o),
(141,630,o),
(179,630,cs),
(217,630,o),
(239,607,o),
(239,570,cs),
(239,532,o),
(217,510,o),
(179,510,cs)
);
}
);
width = 359;
},
{
layerId = "9FF96064-8718-4A86-A5C8-73C592101F67";
shapes = (
{
closed = 1;
nodes = (
(308,417,o),
(373,479,o),
(373,570,cs),
(373,661,o),
(308,724,o),
(214,724,cs),
(116,724,o),
(55,661,o),
(55,570,cs),
(55,479,o),
(118,417,o),
(214,417,cs)
);
},
{
closed = 1;
nodes = (
(149,476,o),
(120,514,o),
(120,570,cs),
(120,628,o),
(150,666,o),
(215,666,cs),
(276,666,o),
(308,628,o),
(308,570,cs),
(308,514,o),
(279,476,o),
(215,476,cs)
);
}
);
width = 428;
},
{
layerId = "134B12F2-BF5D-48E3-8003-C7502B438C7E";
shapes = (
{
closed = 1;
nodes = (
(317,387,o),
(388,456,o),
(388,555,cs),
(388,654,o),
(317,724,o),
(214,724,cs),
(111,724,o),
(39,653,o),
(39,555,cs),
(39,456,o),
(111,387,o),
(214,387,cs)
);
},
{
closed = 1;
nodes = (
(172,480,o),
(138,509,o),
(138,555,cs),
(138,603,o),
(172,632,o),
(214,632,cs),
(256,632,o),
(290,603,o),
(290,555,cs),
(290,509,o),
(256,480,o),
(214,480,cs)
);
}
);
width = 428;
},
{
layerId = "36F3C8CB-53EE-4548-BFDE-2C03212BACAA";
shapes = (
{
closed = 1;
nodes = (
(260,455,o),
(320,506,o),
(320,589,cs),
(320,671,o),
(261,723,o),
(182,723,cs),
(104,723,o),
(45,672,o),
(45,589,cs),
(45,507,o),
(102,455,o),
(182,455,cs)
);
},
{
closed = 1;
nodes = (
(136,507,o),
(103,538,o),
(103,589,cs),
(103,635,o),
(131,671,o),
(183,671,cs),
(232,671,o),
(262,638,o),
(262,589,cs),
(262,539,o),
(231,507,o),
(183,507,cs)
);
}
);
width = 365;
},
{
layerId = "43B45EC1-5522-4B1A-B0C7-88628E50A583";
shapes = (
{
closed = 1;
nodes = (
(265,431,o),
(331,490,o),
(331,578,cs),
(331,664,o),
(267,724,o),
(180,724,cs),
(96,724,o),
(30,665,o),
(30,578,cs),
(30,491,o),
(95,431,o),
(180,431,cs)
);
},
{
closed = 1;
nodes = (
(139,509,o),
(113,535,o),
(113,578,cs),
(113,617,o),
(137,646,o),
(180,646,cs),
(223,646,o),
(248,619,o),
(248,578,cs),
(248,535,o),
(222,509,o),
(180,509,cs)
);
}
);
width = 362;
},
{
layerId = "AB666A95-3AF9-4DE8-B258-097FFCFE8A59";
shapes = (
{
closed = 1;
nodes = (
(296,441,o),
(357,496,o),
(357,583,cs),
(357,666,o),
(296,724,o),
(214,724,cs),
(133,724,o),
(71,668,o),
(71,583,cs),
(71,496,o),
(134,441,o),
(214,441,cs)
);
},
{
closed = 1;
nodes = (
(143,466,o),
(98,515,o),
(98,583,cs),
(98,653,o),
(143,699,o),
(213,699,cs),
(281,699,o),
(330,653,o),
(330,583,cs),
(330,515,o),
(281,466,o),
(213,466,cs)
);
}
);
width = 428;
},
{
layerId = "029FEF0C-5FA4-4A3E-AC23-838A1147A554";
shapes = (
{
closed = 1;
nodes = (
(247,479,o),
(300,527,o),
(300,601,cs),
(300,678,o),
(243,723,o),
(178,723,cs),
(112,723,o),
(57,678,o),
(57,602,cs),
(57,526,o),
(111,479,o),
(179,479,cs)
);
},
{
closed = 1;
nodes = (
(124,501,o),
(81,540,o),
(81,602,cs),
(81,659,o),
(119,701,o),
(177,701,cs),
(235,701,o),
(276,661,o),
(276,602,cs),
(276,543,o),
(234,501,o),
(178,501,cs)
);
}
);
width = 358;
}
);
script = "";
subCategory = Other;
unicode = 176;
}
{
category = Symbol;
glyphname = paragraph;
layers = (
{
layerId = "0A718E2F-231D-484E-9433-16A5230D2CE8";
shapes = (
{
closed = 1;
nodes = (
(579,760,l),
(270,760,ls),
(139,760,o),
(50,700,o),
(50,509,cs),
(50,326,o),
(131,264,o),
(255,264,cs),
(283,264,o),
(296,267,o),
(316,273,c),
(316,-127,l),
(409,-127,l),
(409,648,l),
(486,648,l),
(486,-127,l),
(579,-127,l)
);
}
);
width = 643;
},
{
layerId = "98E204A9-1C79-49C7-AB3E-40A925F56409";
shapes = (
{
closed = 1;
nodes = (
(461,760,l),
(200,760,ls),
(83,760,o),
(32,675,o),
(32,509,cs),
(32,345,o),
(81,264,o),
(188,264,cs),
(206,264,o),
(222,267,o),
(235,273,c),
(235,-127,l),
(319,-127,l),
(319,682,l),
(377,682,l),
(377,-127,l),
(461,-127,l)
);
}
);
width = 510;
},
{
layerId = "9FF96064-8718-4A86-A5C8-73C592101F67";
shapes = (
{
closed = 1;
nodes = (
(549,760,l),
(275,760,ls),
(144,760,o),
(55,700,o),
(55,509,cs),
(55,326,o),
(136,264,o),
(260,264,cs),
(283,264,o),
(311,267,o),
(331,273,c),
(331,-127,l),
(389,-127,l),
(389,704,l),
(491,704,l),
(491,-127,l),
(549,-127,l)
);
}
);
width = 655;
},
{
layerId = "134B12F2-BF5D-48E3-8003-C7502B438C7E";
shapes = (
{
closed = 1;
nodes = (
(570,760,l),
(275,760,ls),
(144,760,o),
(55,700,o),
(55,509,cs),
(55,326,o),
(136,264,o),
(260,264,cs),
(288,264,o),
(311,267,o),
(331,273,c),
(331,-127,l),
(410,-127,l),
(410,662,l),
(491,662,l),
(491,-127,l),
(570,-127,l)
);
}
);
width = 655;
},
{
layerId = "36F3C8CB-53EE-4548-BFDE-2C03212BACAA";
shapes = (
{
closed = 1;
nodes = (
(401,760,l),
(202,760,ls),
(103,760,o),
(61,675,o),
(61,509,cs),
(61,344,o),
(99,264,o),
(181,264,cs),
(196,264,o),
(208,267,o),
(219,273,c),
(219,-127,l),
(277,-127,l),
(277,703,l),
(343,703,l),
(343,-127,l),
(401,-127,l)
);
}
);
width = 484;
},
{
layerId = "43B45EC1-5522-4B1A-B0C7-88628E50A583";
shapes = (
{
closed = 1;
nodes = (
(437,760,l),
(200,760,ls),
(91,760,o),
(43,675,o),
(43,509,cs),
(43,344,o),
(88,264,o),
(185,264,cs),
(202,264,o),
(216,267,o),
(228,273,c),
(228,-127,l),
(302,-127,l),
(302,690,l),
(363,690,l),
(363,-127,l),
(437,-127,l)
);
}
);
width = 500;
},
{
layerId = "AB666A95-3AF9-4DE8-B258-097FFCFE8A59";
shapes = (
{
closed = 1;
nodes = (
(517,760,l),
(275,760,ls),
(152,760,o),
(95,685,o),
(95,557,cs),
(95,438,o),
(149,346,o),
(260,346,cs),
(289,346,o),
(309,349,o),
(331,355,c),
(331,-127,l),
(357,-127,l),
(357,735,l),
(491,735,l),
(491,-127,l),
(517,-127,l)
);
}
);
width = 655;
},
{
layerId = "029FEF0C-5FA4-4A3E-AC23-838A1147A554";
shapes = (
{
closed = 1;
nodes = (
(323,760,l),
(177,760,ls),
(102,760,o),
(72,683,o),
(72,554,cs),
(72,436,o),
(97,346,o),
(151,346,cs),
(164,346,o),
(171,349,o),
(182,355,c),
(182,-127,l),
(206,-127,l),
(206,733,l),
(299,733,l),
(299,-127,l),
(323,-127,l)
);
}
);
width = 420;
}
);
script = "";
subCategory = Other;
unicode = 182;
}
{
category = Mark;
glyphname = cedilla;
layers = (
{
layerId = "0A718E2F-231D-484E-9433-16A5230D2CE8";
shapes = (
{
closed = 1;
nodes = (
(264,-59,o),
(212,-39,o),
(172,-30,c),
(181,0,l),
(86,0,l),
(56,-68,l),
(107,-77,o),
(127,-89,o),
(127,-112,cs),
(127,-129,o),
(112,-140,o),
(87,-140,cs),
(65,-140,o),
(44,-136,o),
(22,-129,c),
(22,-223,l),
(46,-232,o),
(84,-240,o),
(130,-240,cs),
(211,-240,o),
(264,-194,o),
(264,-123,cs)
);
}
);
width = 288;
},
{
layerId = "98E204A9-1C79-49C7-AB3E-40A925F56409";
shapes = (
{
closed = 1;
nodes = (
(179,-76,o),
(144,-42,o),
(86,-34,c),
(100,0,l),
(24,0,l),
(-10,-83,l),
(31,-85,o),
(56,-98,o),
(56,-121,cs),
(56,-140,o),
(43,-149,o),
(19,-149,cs),
(4,-149,o),
(-14,-146,o),
(-36,-141,c),
(-36,-231,l),
(-11,-237,o),
(18,-240,o),
(51,-240,cs),
(134,-240,o),
(179,-196,o),
(179,-126,cs)
);
}
);
width = 143;
},
{
layerId = "9FF96064-8718-4A86-A5C8-73C592101F67";
shapes = (
{
closed = 1;
nodes = (
(212,-88,o),
(173,-64,o),
(125,-53,c),
(151,0,l),
(93,0,l),
(50,-86,l),
(101,-93,o),
(141,-106,o),
(141,-141,cs),
(141,-174,o),
(115,-185,o),
(67,-185,cs),
(48,-185,o),
(26,-183,o),
(14,-180,c),
(14,-235,l),
(25,-238,o),
(44,-240,o),
(64,-240,cs),
(162,-240,o),
(212,-203,o),
(212,-139,cs)
);
}
);
width = 225;
},
{
layerId = "134B12F2-BF5D-48E3-8003-C7502B438C7E";
shapes = (
{
closed = 1;
nodes = (
(204,-73,o),
(165,-43,o),
(125,-30,c),
(138,0,l),
(44,0,l),
(6,-75,l),
(66,-84,o),
(87,-104,o),
(87,-128,cs),
(87,-151,o),
(71,-158,o),
(52,-158,cs),
(32,-158,o),
(1,-153,o),
(-18,-148,c),
(-18,-230,l),
(1,-236,o),
(24,-240,o),
(53,-240,cs),
(167,-240,o),
(204,-197,o),
(204,-122,cs)
);
}
);
width = 205;
},
{
layerId = "36F3C8CB-53EE-4548-BFDE-2C03212BACAA";
shapes = (
{
closed = 1;
nodes = (
(184,-92,o),
(155,-61,o),
(101,-50,c),
(123,0,l),
(74,0,l),
(40,-79,l),
(88,-86,o),
(116,-102,o),
(116,-137,cs),
(116,-166,o),
(96,-186,o),
(53,-186,cs),
(38,-186,o),
(23,-184,o),
(10,-180,c),
(10,-234,l),
(23,-238,o),
(42,-240,o),
(66,-240,cs),
(140,-240,o),
(184,-204,o),
(184,-137,cs)
);
}
);
width = 202;
},
{
layerId = "43B45EC1-5522-4B1A-B0C7-88628E50A583";
shapes = (
{
closed = 1;
nodes = (
(180,-82,o),
(148,-50,o),
(92,-40,c),
(109,0,l),
(43,0,l),
(9,-82,l),
(53,-85,o),
(79,-100,o),
(79,-127,cs),
(79,-150,o),
(63,-163,o),
(32,-163,cs),
(17,-163,o),
(0,-161,o),
(-18,-156,c),
(-18,-232,l),
(2,-237,o),
(27,-240,o),
(56,-240,cs),
(136,-240,o),
(180,-199,o),
(180,-130,cs)
);
}
);
width = 166;
},
{
layerId = "AB666A95-3AF9-4DE8-B258-097FFCFE8A59";
shapes = (
{
closed = 1;
nodes = (
(180,-97,o),
(146,-68,o),
(88,-65,c),
(121,0,l),
(96,0,l),
(52,-85,l),
(123,-85,o),
(155,-104,o),
(155,-146,cs),
(155,-191,o),
(118,-216,o),
(67,-216,cs),
(42,-216,o),
(27,-215,o),
(10,-210,c),
(10,-234,l),
(25,-238,o),
(42,-240,o),
(67,-240,cs),
(132,-240,o),
(180,-203,o),
(180,-145,cs)
);
}
);
width = 193;
},
{
layerId = "029FEF0C-5FA4-4A3E-AC23-838A1147A554";
shapes = (
{
closed = 1;
nodes = (
(184,-100,o),
(155,-69,o),
(100,-62,c),
(126,0,l),
(100,0,l),
(66,-81,l),
(120,-83,o),
(159,-98,o),
(159,-145,cs),
(159,-192,o),
(121,-217,o),
(74,-217,cs),
(61,-217,o),
(42,-214,o),
(28,-210,c),
(28,-234,l),
(43,-238,o),
(62,-240,o),
(74,-240,cs),
(142,-240,o),
(184,-203,o),
(184,-145,cs)
);
}
);
width = 225;
}
);
script = "";
subCategory = Spacing;
unicode = 184;
}
{
category = Number;
glyphname = onesuperior;
layers = (
{
layerId = "0A718E2F-231D-484E-9433-16A5230D2CE8";
shapes = (
{
closed = 1;
nodes = (
(194,844,l),
(28,710,l),
(99,627,l),
(138,661,ls),
(148,670,o),
(162,684,o),
(168,696,c),
(166,682,o),
(163,611,o),
(163,590,cs),
(163,416,l),
(301,416,l),
(301,844,l)
);
}
);
width = 399;
},
{
layerId = "98E204A9-1C79-49C7-AB3E-40A925F56409";
shapes = (
{
closed = 1;
nodes = (
(176,844,l),
(32,718,l),
(88,642,l),
(133,679,ls),
(139,684,o),
(147,691,o),
(156,701,c),
(152,661,o),
(152,626,o),
(152,590,cs),
(152,416,l),
(270,416,l),
(270,844,l)
);
}
);
width = 348;
},
{
layerId = "9FF96064-8718-4A86-A5C8-73C592101F67";
shapes = (
{
closed = 1;
nodes = (
(167,844,l),
(37,752,l),
(72,703,l),
(126,742,ls),
(143,754,o),
(160,769,o),
(173,781,c),
(171,753,o),
(169,726,o),
(169,692,cs),
(169,416,l),
(240,416,l),
(240,844,l)
);
}
);
width = 350;
},
{
layerId = "134B12F2-BF5D-48E3-8003-C7502B438C7E";
shapes = (
{
closed = 1;
nodes = (
(192,844,l),
(45,729,l),
(98,667,l),
(136,697,l),
(147,706,o),
(165,724,o),
(173,735,c),
(171,720,o),
(169,660,o),
(169,634,cs),
(169,416,l),
(285,416,l),
(285,844,l)
);
}
);
width = 379;
},
{
layerId = "36F3C8CB-53EE-4548-BFDE-2C03212BACAA";
shapes = (
{
closed = 1;
nodes = (
(162,843,l),
(38,746,l),
(72,701,l),
(130,745,ls),
(136,750,o),
(145,758,o),
(156,768,c),
(153,737,o),
(152,707,o),
(152,677,cs),
(152,415,l),
(217,415,l),
(217,843,l)
);
}
);
width = 314;
},
{
layerId = "43B45EC1-5522-4B1A-B0C7-88628E50A583";
shapes = (
{
closed = 1;
nodes = (
(170,843,l),
(34,729,l),
(81,665,l),
(131,705,ls),
(138,710,o),
(146,717,o),
(155,727,c),
(152,691,o),
(152,658,o),
(152,624,cs),
(152,415,l),
(249,415,l),
(249,843,l)
);
}
);
width = 335;
},
{
layerId = "AB666A95-3AF9-4DE8-B258-097FFCFE8A59";
shapes = (
{
closed = 1;
nodes = (
(173,844,l),
(37,771,l),
(48,749,l),
(95,774,ls),
(127,791,o),
(145,800,o),
(168,815,c),
(167,779,o),
(167,734,o),
(167,696,cs),
(167,416,l),
(193,416,l),
(193,844,l)
);
}
);
width = 328;
},
{
layerId = "029FEF0C-5FA4-4A3E-AC23-838A1147A554";
shapes = (
{
closed = 1;
nodes = (
(156,842,l),
(40,764,l),
(52,746,l),
(123,792,ls),
(130,797,o),
(140,803,o),
(152,813,c),
(150,789,o),
(149,749,o),
(149,720,cs),
(149,414,l),
(174,414,l),
(174,842,l)
);
}
);
width = 286;
}
);
script = "";
subCategory = Small;
unicode = 185;
}
{
category = Number;
glyphname = onequarter;
layers = (
{
layerId = "0A718E2F-231D-484E-9433-16A5230D2CE8";
shapes = (
{
closed = 1;
nodes = (
(321,0,l),
(689,714,l),
(542,714,l),
(174,0,l)
);
},
{
closed = 1;
nodes = (
(129,286,l),
(267,286,l),
(267,714,l),
(160,714,l),
(-6,580,l),
(65,497,l),
(106,533,ls),
(119,546,o),
(131,560,o),
(134,566,c),
(130,530,o),
(129,479,o),
(129,460,cs)
);
},
{
closed = 1;
nodes = (
(817,0,l),
(817,68,l),
(878,68,l),
(878,166,l),
(817,166,l),
(817,431,l),
(673,431,l),
(502,160,l),
(502,68,l),
(683,68,l),
(683,0,l)
);
},
{
closed = 1;
nodes = (
(656,248,ls),
(663,259,o),
(673,280,o),
(686,313,c),
(684,292,o),
(683,270,o),
(683,247,cs),
(683,166,l),
(606,166,l)
);
}
);
width = 887;
},
{
layerId = "98E204A9-1C79-49C7-AB3E-40A925F56409";
shapes = (
{
closed = 1;
nodes = (
(326,0,l),
(671,714,l),
(544,714,l),
(199,0,l)
);
},
{
closed = 1;
nodes = (
(152,286,l),
(270,286,l),
(270,714,l),
(176,714,l),
(32,588,l),
(88,512,l),
(133,549,ls),
(139,554,o),
(147,561,o),
(156,571,c),
(152,531,o),
(152,496,o),
(152,460,cs)
);
},
{
closed = 1;
nodes = (
(786,0,l),
(786,68,l),
(839,68,l),
(839,161,l),
(786,161,l),
(786,428,l),
(657,428,l),
(512,155,l),
(512,68,l),
(671,68,l),
(671,0,l)
);
},
{
closed = 1;
nodes = (
(648,245,ls),
(654,256,o),
(663,277,o),
(674,310,c),
(672,289,o),
(671,267,o),
(671,244,cs),
(671,161,l),
(604,161,l)
);
}
);
width = 850;
},
{
layerId = "9FF96064-8718-4A86-A5C8-73C592101F67";
shapes = (
{
closed = 1;
nodes = (
(201,0,l),
(637,714,l),
(562,714,l),
(126,0,l)
);
},
{
closed = 1;
nodes = (
(166,286,l),
(237,286,l),
(237,714,l),
(164,714,l),
(34,622,l),
(69,573,l),
(123,612,ls),
(140,624,o),
(157,639,o),
(170,651,c),
(168,623,o),
(166,596,o),
(166,562,cs)
);
},
{
closed = 1;
nodes = (
(675,0,l),
(675,96,l),
(736,96,l),
(736,156,l),
(675,156,l),
(675,431,l),
(602,431,l),
(405,148,l),
(405,96,l),
(600,96,l),
(600,0,l)
);
},
{
closed = 1;
nodes = (
(555,273,ls),
(570,295,o),
(596,335,o),
(603,350,c),
(601,318,o),
(600,277,o),
(600,249,cs),
(600,156,l),
(475,156,l)
);
}
);
width = 745;
},
{
layerId = "134B12F2-BF5D-48E3-8003-C7502B438C7E";
shapes = (
{
closed = 1;
nodes = (
(273,0,l),
(669,714,l),
(552,714,l),
(156,0,l)
);
},
{
closed = 1;
nodes = (
(146,286,l),
(262,286,l),
(262,714,l),
(169,714,l),
(22,599,l),
(75,537,l),
(113,567,l),
(124,576,o),
(142,594,o),
(150,605,c),
(148,590,o),
(146,530,o),
(146,504,cs)
);
},
{
closed = 1;
nodes = (
(760,0,l),
(760,74,l),
(821,74,l),
(821,156,l),
(760,156,l),
(760,431,l),
(645,431,l),
(457,149,l),
(457,74,l),
(644,74,l),
(644,0,l)
);
},
{
closed = 1;
nodes = (
(609,249,l),
(621,267,o),
(640,308,o),
(647,326,c),
(645,294,o),
(644,263,o),
(644,236,c),
(644,156,l),
(547,156,l)
);
}
);
width = 830;
},
{
layerId = "36F3C8CB-53EE-4548-BFDE-2C03212BACAA";
shapes = (
{
closed = 1;
nodes = (
(223,0,l),
(590,714,l),
(520,714,l),
(154,0,l)
);
},
{
closed = 1;
nodes = (
(141,286,l),
(206,286,l),
(206,714,l),
(151,714,l),
(27,617,l),
(61,573,l),
(119,616,ls),
(125,622,o),
(134,630,o),
(145,640,c),
(142,609,o),
(141,579,o),
(141,549,cs)
);
},
{
closed = 1;
nodes = (
(646,0,l),
(646,92,l),
(697,92,l),
(697,147,l),
(646,147,l),
(646,430,l),
(581,430,l),
(421,140,l),
(421,92,l),
(583,92,l),
(583,0,l)
);
},
{
closed = 1;
nodes = (
(563,298,ls),
(574,319,o),
(581,335,o),
(585,347,c),
(583,330,o),
(583,303,o),
(583,269,cs),
(583,147,l),
(483,147,l)
);
}
);
width = 714;
},
{
layerId = "43B45EC1-5522-4B1A-B0C7-88628E50A583";
shapes = (
{
closed = 1;
nodes = (
(285,0,l),
(639,714,l),
(534,714,l),
(181,0,l)
);
},
{
closed = 1;
nodes = (
(148,286,l),
(245,286,l),
(245,714,l),
(166,714,l),
(30,599,l),
(77,536,l),
(127,575,ls),
(134,580,o),
(142,588,o),
(151,598,c),
(148,561,o),
(148,528,o),
(148,495,cs)
);
},
{
closed = 1;
nodes = (
(732,0,l),
(732,77,l),
(784,77,l),
(784,156,l),
(732,156,l),
(732,429,l),
(628,429,l),
(477,149,l),
(477,77,l),
(637,77,l),
(637,0,l)
);
},
{
closed = 1;
nodes = (
(615,266,ls),
(623,281,o),
(631,300,o),
(640,324,c),
(638,305,o),
(637,281,o),
(637,254,cs),
(637,156,l),
(557,156,l)
);
}
);
width = 798;
},
{
layerId = "AB666A95-3AF9-4DE8-B258-097FFCFE8A59";
shapes = (
{
closed = 1;
nodes = (
(175,0,l),
(547,714,l),
(519,714,l),
(147,0,l)
);
},
{
closed = 1;
nodes = (
(146,286,l),
(172,286,l),
(172,714,l),
(152,714,l),
(16,641,l),
(27,619,l),
(74,644,ls),
(106,661,o),
(124,670,o),
(147,685,c),
(146,649,o),
(146,604,o),
(146,566,cs)
);
},
{
closed = 1;
nodes = (
(615,0,l),
(615,131,l),
(689,131,l),
(689,155,l),
(615,155,l),
(615,431,l),
(587,431,l),
(386,149,l),
(386,131,l),
(590,131,l),
(590,0,l)
);
},
{
closed = 1;
nodes = (
(557,350,ls),
(571,370,o),
(578,380,o),
(591,402,c),
(590,376,o),
(590,351,o),
(590,319,cs),
(590,155,l),
(418,155,l)
);
}
);
width = 698;
},
{
layerId = "029FEF0C-5FA4-4A3E-AC23-838A1147A554";
shapes = (
{
closed = 1;
nodes = (
(158,0,l),
(509,714,l),
(481,714,l),
(130,0,l)
);
},
{
closed = 1;
nodes = (
(134,286,l),
(159,286,l),
(159,714,l),
(141,714,l),
(25,636,l),
(37,618,l),
(108,664,ls),
(115,669,o),
(125,675,o),
(137,685,c),
(135,661,o),
(134,621,o),
(134,592,cs)
);
},
{
closed = 1;
nodes = (
(556,0,l),
(556,118,l),
(616,118,l),
(616,141,l),
(556,141,l),
(556,431,l),
(537,431,l),
(369,136,l),
(369,118,l),
(532,118,l),
(532,0,l)
);
},
{
closed = 1;
nodes = (
(513,346,ls),
(522,362,o),
(527,372,o),
(532,384,c),
(532,370,o),
(532,362,o),
(532,334,cs),
(532,141,l),
(397,141,l)
);
}
);
width = 629;
}
);
metricRight = foursuperior;
script = "";
subCategory = Fraction;
unicode = 188;
}
{
category = Letter;
glyphname = Oslash;
kernLeft = O.right;
kernRight = O.left;
layers = (
{
anchors = (
{
name = bottom;
pos = (399,0);
},
{
name = center;
pos = (398,351);
},
{
name = top;
pos = (402,714);
}
);
layerId = "0A718E2F-231D-484E-9433-16A5230D2CE8";
shapes = (
{
closed = 1;
nodes = (
(745,477,o),
(716,575,o),
(650,639,c),
(690,700,l),
(597,756,l),
(560,698,l),
(516,716,o),
(462,725,o),
(399,725,cs),
(158,725,o),
(51,581,o),
(51,359,cs),
(51,234,o),
(83,134,o),
(154,69,c),
(113,8,l),
(207,-53,l),
(248,11,l),
(291,-3,o),
(341,-10,o),
(398,-10,cs),
(643,-10,o),
(745,137,o),
(745,358,cs)
);
},
{
closed = 1;
nodes = (
(542,229,o),
(504,151,o),
(398,151,cs),
(377,151,o),
(357,154,o),
(341,158,c),
(533,461,l),
(539,433,o),
(542,398,o),
(542,358,cs)
);
},
{
closed = 1;
nodes = (
(254,487,o),
(294,567,o),
(399,567,cs),
(423,567,o),
(446,561,o),
(465,553,c),
(268,241,l),
(257,273,o),
(254,313,o),
(254,358,cs)
);
}
);
width = 797;
},
{
anchors = (
{
name = bottom;
pos = (311,0);
},
{
name = center;
pos = (310,351);
},
{
name = top;
pos = (312,714);
}
);
layerId = "98E204A9-1C79-49C7-AB3E-40A925F56409";
shapes = (
{
closed = 1;
nodes = (
(582,486,o),
(556,583,o),
(503,644,c),
(540,719,l),
(461,756,l),
(433,699,l),
(398,716,o),
(357,725,o),
(311,725,cs),
(134,725,o),
(39,597,o),
(39,359,cs),
(39,239,o),
(60,146,o),
(123,67,c),
(82,-16,l),
(161,-53,l),
(193,14,l),
(227,-2,o),
(266,-10,o),
(311,-10,cs),
(488,-10,o),
(582,118,o),
(582,358,cs)
);
},
{
closed = 1;
nodes = (
(410,208,o),
(377,132,o),
(311,132,cs),
(290,132,o),
(271,139,o),
(257,154,c),
(404,453,l),
(408,425,o),
(410,394,o),
(410,358,cs)
);
},
{
closed = 1;
nodes = (
(211,508,o),
(244,583,o),
(311,583,cs),
(334,583,o),
(353,574,o),
(368,556,c),
(218,252,l),
(213,282,o),
(211,317,o),
(211,358,cs)
);
}
);
width = 621;
},
{
anchors = (
{
name = bottom;
pos = (391,0);
},
{
name = center;
pos = (390,357);
},
{
name = top;
pos = (392,714);
}
);
layerId = "9FF96064-8718-4A86-A5C8-73C592101F67";
shapes = (
{
closed = 1;
nodes = (
(720,475,o),
(687,570,o),
(626,634,c),
(677,705,l),
(616,746,l),
(570,680,l),
(521,708,o),
(461,725,o),
(392,725,cs),
(168,725,o),
(61,578,o),
(61,359,cs),
(61,243,o),
(90,148,o),
(149,83,c),
(97,9,l),
(158,-31,l),
(206,37,l),
(254,6,o),
(316,-10,o),
(391,-10,cs),
(606,-10,o),
(720,137,o),
(720,358,cs)
);
},
{
closed = 1;
nodes = (
(625,178,o),
(553,68,o),
(391,68,cs),
(335,68,o),
(289,82,o),
(254,106,c),
(574,560,l),
(608,511,o),
(625,442,o),
(625,358,cs)
);
},
{
closed = 1;
nodes = (
(156,538,o),
(230,646,o),
(392,646,cs),
(445,646,o),
(488,634,o),
(522,611,c),
(203,160,l),
(171,209,o),
(156,276,o),
(156,358,cs)
);
}
);
width = 781;
},
{
anchors = (
{
name = bottom;
pos = (398,0);
},
{
name = center;
pos = (398,354);
},
{
name = top;
pos = (402,714);
}
);
layerId = "134B12F2-BF5D-48E3-8003-C7502B438C7E";
shapes = (
{
closed = 1;
nodes = (
(738,476,o),
(707,573,o),
(643,637,c),
(686,701,l),
(608,752,l),
(567,691,l),
(521,713,o),
(465,725,o),
(399,725,cs),
(165,725,o),
(58,580,o),
(58,359,cs),
(58,238,o),
(89,140,o),
(155,75,c),
(111,9,l),
(190,-44,l),
(234,22,l),
(279,1,o),
(334,-10,o),
(398,-10,cs),
(631,-10,o),
(738,137,o),
(738,358,cs)
);
},
{
closed = 1;
nodes = (
(579,208,o),
(527,117,o),
(398,117,cs),
(363,117,o),
(334,124,o),
(310,136,c),
(554,503,l),
(571,465,o),
(579,416,o),
(579,358,cs)
);
},
{
closed = 1;
nodes = (
(217,508,o),
(271,599,o),
(399,599,cs),
(435,599,o),
(466,591,o),
(491,577,c),
(244,208,l),
(225,247,o),
(217,298,o),
(217,358,cs)
);
}
);
width = 796;
},
{
anchors = (
{
name = bottom;
pos = (275,0);
},
{
name = center;
pos = (275,353);
},
{
name = top;
pos = (278,714);
}
);
layerId = "36F3C8CB-53EE-4548-BFDE-2C03212BACAA";
shapes = (
{
closed = 1;
nodes = (
(501,473,o),
(483,562,o),
(445,624,c),
(498,729,l),
(447,754,l),
(405,672,l),
(370,707,o),
(327,724,o),
(276,724,cs),
(127,724,o),
(50,603,o),
(50,359,cs),
(50,240,o),
(68,150,o),
(111,82,c),
(58,-25,l),
(110,-48,l),
(151,36,l),
(184,6,o),
(226,-10,o),
(276,-10,cs),
(423,-10,o),
(501,120,o),
(501,358,cs)
);
},
{
closed = 1;
nodes = (
(414,163,o),
(367,65,o),
(275,65,cs),
(239,65,o),
(209,80,o),
(187,111,c),
(396,527,l),
(408,483,o),
(414,425,o),
(414,358,cs)
);
},
{
closed = 1;
nodes = (
(136,549,o),
(183,649,o),
(276,649,cs),
(316,649,o),
(346,632,o),
(369,595,c),
(159,176,l),
(144,220,o),
(136,281,o),
(136,358,cs)
);
}
);
width = 550;
},
{
anchors = (
{
name = bottom;
pos = (297,0);
},
{
name = center;
pos = (296,352);
},
{
name = top;
pos = (297,714);
}
);
layerId = "43B45EC1-5522-4B1A-B0C7-88628E50A583";
shapes = (
{
closed = 1;
nodes = (
(550,481,o),
(527,575,o),
(480,636,c),
(523,723,l),
(455,755,l),
(422,688,l),
(387,712,o),
(345,725,o),
(297,725,cs),
(131,725,o),
(43,599,o),
(43,359,cs),
(43,240,o),
(63,147,o),
(118,73,c),
(72,-19,l),
(141,-51,l),
(176,23,l),
(210,1,o),
(250,-10,o),
(297,-10,cs),
(462,-10,o),
(550,119,o),
(550,358,cs)
);
},
{
closed = 1;
nodes = (
(412,190,o),
(373,106,o),
(297,106,cs),
(270,106,o),
(247,116,o),
(230,137,c),
(401,482,l),
(408,448,o),
(412,406,o),
(412,358,cs)
);
},
{
closed = 1;
nodes = (
(182,524,o),
(220,609,o),
(298,609,cs),
(327,609,o),
(350,597,o),
(369,571,c),
(195,222,l),
(186,258,o),
(182,303,o),
(182,358,cs)
);
}
);
width = 593;
},
{
anchors = (
{
name = bottom;
pos = (377,0);
},
{
name = center;
pos = (376,357);
},
{
name = top;
pos = (377,714);
}
);
layerId = "AB666A95-3AF9-4DE8-B258-097FFCFE8A59";
shapes = (
{
closed = 1;
nodes = (
(690,482,o),
(657,579,o),
(598,642,c),
(659,725,l),
(639,740,l),
(579,659,l),
(529,702,o),
(463,725,o),
(382,725,cs),
(177,725,o),
(63,574,o),
(63,359,cs),
(63,244,o),
(94,147,o),
(153,81,c),
(85,-11,l),
(105,-26,l),
(171,63,l),
(221,16,o),
(290,-10,o),
(376,-10,cs),
(587,-10,o),
(690,143,o),
(690,358,cs)
);
},
{
closed = 1;
nodes = (
(663,156,o),
(573,15,o),
(377,15,cs),
(296,15,o),
(232,40,o),
(186,84,c),
(582,620,l),
(635,562,o),
(663,473,o),
(663,358,cs)
);
},
{
closed = 1;
nodes = (
(90,556,o),
(186,700,o),
(382,700,cs),
(457,700,o),
(518,678,o),
(564,638,c),
(168,102,l),
(116,164,o),
(90,253,o),
(90,359,cs)
);
}
);
width = 754;
},
{
anchors = (
{
name = bottom;
pos = (269,0);
},
{
name = center;
pos = (272,345);
},
{
name = top;
pos = (269,714);
}
);
layerId = "029FEF0C-5FA4-4A3E-AC23-838A1147A554";
shapes = (
{
closed = 1;
nodes = (
(480,465,o),
(466,558,o),
(434,623,c),
(497,741,l),
(474,752,l),
(419,649,l),
(387,696,o),
(342,724,o),
(280,724,cs),
(149,724,o),
(77,602,o),
(77,358,cs),
(77,260,o),
(89,163,o),
(124,93,c),
(48,-50,l),
(70,-62,l),
(139,67,l),
(170,20,o),
(216,-10,o),
(280,-10,cs),
(439,-10,o),
(480,165,o),
(480,358,cs)
);
},
{
closed = 1;
nodes = (
(454,135,o),
(397,15,o),
(280,15,cs),
(226,15,o),
(184,43,o),
(154,96,c),
(419,594,l),
(442,537,o),
(454,457,o),
(454,358,cs)
);
},
{
closed = 1;
nodes = (
(103,574,o),
(160,699,o),
(280,699,cs),
(335,699,o),
(376,672,o),
(405,622,c),
(140,124,l),
(116,181,o),
(103,260,o),
(103,358,cs)
);
}
);
width = 538;
}
);
script = latin;
subCategory = Uppercase;
unicode = 216;
}
{
category = Letter;
glyphname = germandbls;
layers = (
{
anchors = (
{
name = bottom;
pos = (375,0);
},
{
name = center;
pos = (393,377);
},
{
name = top;
pos = (375,765);
}
);
layerId = "0A718E2F-231D-484E-9433-16A5230D2CE8";
shapes = (
{
closed = 1;
nodes = (
(654,704,o),
(533,765,o),
(365,765,cs),
(193,765,o),
(66,684,o),
(66,537,cs),
(66,0,l),
(257,0,l),
(257,517,ls),
(257,582,o),
(291,619,o),
(365,619,cs),
(424,619,o),
(458,594,o),
(458,561,cs),
(458,485,o),
(322,473,o),
(322,369,cs),
(322,317,o),
(350,284,o),
(431,241,cs),
(513,198,o),
(522,186,o),
(522,164,cs),
(522,137,o),
(492,122,o),
(455,122,cs),
(415,122,o),
(352,141,o),
(319,161,c),
(319,19,l),
(361,-3,o),
(410,-10,o),
(500,-10,cs),
(644,-10,o),
(721,51,o),
(721,163,cs),
(721,240,o),
(690,278,o),
(624,320,cs),
(558,362,o),
(523,371,o),
(523,396,cs),
(523,424,o),
(654,469,o),
(654,581,cs)
);
}
);
width = 750;
},
{
anchors = (
{
name = bottom;
pos = (293,0);
},
{
name = center;
pos = (306,377);
},
{
name = top;
pos = (293,765);
}
);
layerId = "98E204A9-1C79-49C7-AB3E-40A925F56409";
shapes = (
{
closed = 1;
nodes = (
(514,697,o),
(419,765,o),
(285,765,cs),
(140,765,o),
(50,677,o),
(50,537,cs),
(50,0,l),
(212,0,l),
(212,517,ls),
(212,592,o),
(237,630,o),
(285,630,cs),
(331,630,o),
(352,602,o),
(352,573,cs),
(352,492,o),
(252,478,o),
(252,381,cs),
(252,335,o),
(262,284,o),
(333,234,cs),
(387,196,o),
(398,182,o),
(398,157,cs),
(398,140,o),
(386,129,o),
(356,129,cs),
(325,129,o),
(286,144,o),
(252,169,c),
(252,19,l),
(295,-3,o),
(340,-10,o),
(380,-10,cs),
(497,-10,o),
(562,51,o),
(562,170,cs),
(562,246,o),
(526,291,o),
(468,332,cs),
(431,358,o),
(416,378,o),
(416,393,cs),
(416,445,o),
(514,455,o),
(514,584,cs)
);
}
);
width = 586;
},
{
anchors = (
{
name = bottom;
pos = (316,0);
},
{
name = center;
pos = (335,377);
},
{
name = top;
pos = (316,765);
}
);
layerId = "9FF96064-8718-4A86-A5C8-73C592101F67";
shapes = (
{
closed = 1;
nodes = (
(522,716,o),
(435,765,o),
(306,765,cs),
(180,765,o),
(85,718,o),
(85,584,cs),
(85,0,l),
(173,0,l),
(173,584,ls),
(173,669,o),
(236,692,o),
(306,692,cs),
(380,692,o),
(433,668,o),
(433,612,cs),
(433,523,o),
(297,511,o),
(297,407,cs),
(297,354,o),
(322,321,o),
(406,267,cs),
(477,221,o),
(500,195,o),
(500,147,cs),
(500,94,o),
(470,61,o),
(397,61,cs),
(344,61,o),
(289,82,o),
(255,103,c),
(255,24,l),
(290,2,o),
(337,-10,o),
(400,-10,cs),
(510,-10,o),
(586,39,o),
(586,153,cs),
(586,232,o),
(542,275,o),
(470,323,cs),
(396,372,o),
(382,385,o),
(382,412,cs),
(382,472,o),
(522,503,o),
(522,617,cs)
);
}
);
width = 631;
},
{
anchors = (
{
name = bottom;
pos = (356,0);
},
{
name = center;
pos = (377,377);
},
{
name = top;
pos = (356,765);
}
);
layerId = "134B12F2-BF5D-48E3-8003-C7502B438C7E";
shapes = (
{
closed = 1;
nodes = (
(610,708,o),
(497,765,o),
(347,765,cs),
(194,765,o),
(78,698,o),
(78,556,cs),
(78,0,l),
(227,0,l),
(227,551,ls),
(227,618,o),
(277,649,o),
(347,649,cs),
(410,649,o),
(458,621,o),
(458,580,cs),
(458,501,o),
(322,489,o),
(322,385,cs),
(322,332,o),
(349,299,o),
(431,252,cs),
(509,207,o),
(523,192,o),
(523,157,cs),
(523,117,o),
(493,97,o),
(441,97,cs),
(396,97,o),
(334,118,o),
(303,139,c),
(303,21,l),
(342,-1,o),
(387,-10,o),
(451,-10,cs),
(598,-10,o),
(676,48,o),
(676,159,cs),
(676,238,o),
(637,280,o),
(572,321,cs),
(497,369,o),
(470,382,o),
(470,407,cs),
(470,450,o),
(610,482,o),
(610,606,cs)
);
}
);
width = 711;
},
{
anchors = (
{
name = bottom;
pos = (229,0);
},
{
name = center;
pos = (245,377);
},
{
name = top;
pos = (229,765);
}
);
layerId = "36F3C8CB-53EE-4548-BFDE-2C03212BACAA";
shapes = (
{
closed = 1;
nodes = (
(379,712,o),
(323,765,o),
(230,765,cs),
(127,765,o),
(65,693,o),
(65,573,cs),
(65,0,l),
(146,0,l),
(146,571,ls),
(146,651,o),
(175,694,o),
(228,694,cs),
(275,694,o),
(298,665,o),
(298,614,cs),
(298,522,o),
(207,501,o),
(207,409,cs),
(207,365,o),
(223,321,o),
(280,263,cs),
(326,217,o),
(344,188,o),
(344,146,cs),
(344,94,o),
(320,63,o),
(275,63,cs),
(239,63,o),
(210,78,o),
(184,96,c),
(184,17,l),
(211,-2,o),
(248,-10,o),
(282,-10,cs),
(374,-10,o),
(426,51,o),
(426,152,cs),
(426,216,o),
(405,249,o),
(341,316,cs),
(305,354,o),
(287,379,o),
(287,413,cs),
(287,479,o),
(379,516,o),
(379,616,cs)
);
}
);
width = 457;
},
{
anchors = (
{
name = bottom;
pos = (268,0);
},
{
name = center;
pos = (282,377);
},
{
name = top;
pos = (268,765);
}
);
layerId = "43B45EC1-5522-4B1A-B0C7-88628E50A583";
shapes = (
{
closed = 1;
nodes = (
(462,703,o),
(382,765,o),
(264,765,cs),
(135,765,o),
(56,683,o),
(56,551,cs),
(56,0,l),
(186,0,l),
(186,538,ls),
(186,615,o),
(213,655,o),
(263,655,cs),
(309,655,o),
(331,627,o),
(331,589,cs),
(331,504,o),
(235,487,o),
(235,392,cs),
(235,347,o),
(247,299,o),
(313,245,cs),
(363,204,o),
(377,185,o),
(377,153,cs),
(377,122,o),
(360,103,o),
(324,103,cs),
(292,103,o),
(257,118,o),
(226,141,c),
(226,18,l),
(262,-2,o),
(304,-10,o),
(342,-10,cs),
(449,-10,o),
(509,51,o),
(509,163,cs),
(509,234,o),
(479,275,o),
(419,326,cs),
(383,356,o),
(366,379,o),
(366,401,cs),
(366,458,o),
(462,479,o),
(462,597,cs)
);
}
);
width = 536;
},
{
anchors = (
{
name = bottom;
pos = (277,0);
},
{
name = center;
pos = (296,377);
},
{
name = top;
pos = (277,765);
}
);
layerId = "AB666A95-3AF9-4DE8-B258-097FFCFE8A59";
shapes = (
{
closed = 1;
nodes = (
(439,713,o),
(384,765,o),
(282,765,cs),
(157,765,o),
(89,692,o),
(89,563,cs),
(89,0,l),
(115,0,l),
(115,563,ls),
(115,676,o),
(168,740,o),
(282,740,cs),
(367,740,o),
(412,700,o),
(412,636,cs),
(412,523,o),
(275,540,o),
(275,420,cs),
(275,352,o),
(324,323,o),
(382,282,cs),
(435,245,o),
(476,211,o),
(476,134,cs),
(476,62,o),
(428,15,o),
(337,15,cs),
(287,15,o),
(247,25,o),
(203,45,c),
(203,17,l),
(238,3,o),
(274,-10,o),
(337,-10,cs),
(449,-10,o),
(503,57,o),
(503,134,cs),
(503,227,o),
(453,263,o),
(396,302,cs),
(338,341,o),
(302,366,o),
(302,420,cs),
(302,526,o),
(439,511,o),
(439,636,cs)
);
}
);
width = 554;
},
{
anchors = (
{
name = bottom;
pos = (188,0);
},
{
name = center;
pos = (206,377);
},
{
name = top;
pos = (188,765);
}
);
layerId = "029FEF0C-5FA4-4A3E-AC23-838A1147A554";
shapes = (
{
closed = 1;
nodes = (
(296,713,o),
(261,765,o),
(192,765,cs),
(110,765,o),
(71,698,o),
(71,581,cs),
(71,0,l),
(97,0,l),
(97,578,ls),
(97,676,o),
(124,740,o),
(192,740,cs),
(244,740,o),
(269,700,o),
(269,649,cs),
(269,546,o),
(179,523,o),
(179,427,cs),
(179,368,o),
(211,327,o),
(248,280,cs),
(285,234,o),
(314,197,o),
(314,135,cs),
(314,67,o),
(280,15,o),
(216,15,cs),
(190,15,o),
(163,23,o),
(137,40,c),
(137,13,l),
(158,-3,o),
(188,-10,o),
(216,-10,cs),
(303,-10,o),
(341,58,o),
(341,135,cs),
(341,198,o),
(314,238,o),
(272,293,cs),
(237,339,o),
(206,369,o),
(206,427,cs),
(206,514,o),
(296,534,o),
(296,649,cs)
);
}
);
width = 375;
}
);
script = latin;
subCategory = Lowercase;
unicode = 223;
}
{
category = Letter;
glyphname = ae;
kernLeft = a.right;
kernRight = o.left;
layers = (
{
anchors = (
{
name = bottom;
pos = (468,0);
},
{
name = center;
pos = (464,276);
},
{
name = top;
pos = (481,553);
}
);
layerId = "0A718E2F-231D-484E-9433-16A5230D2CE8";
shapes = (
{
closed = 1;
nodes = (
(577,563,o),
(527,549,o),
(481,517,c),
(436,548,o),
(380,563,o),
(317,563,cs),
(236,563,o),
(158,547,o),
(95,514,c),
(149,389,l),
(201,413,o),
(258,428,o),
(302,428,cs),
(337,428,o),
(368,414,o),
(368,361,cs),
(368,352,l),
(279,349,ls),
(133,344,o),
(36,295,o),
(36,172,cs),
(36,48,o),
(120,-10,o),
(212,-10,cs),
(332,-10,o),
(377,12,o),
(445,83,c),
(495,19,o),
(571,-10,o),
(655,-10,cs),
(750,-10,o),
(804,3,o),
(858,31,c),
(858,168,l),
(795,136,o),
(731,126,o),
(680,126,cs),
(598,126,o),
(556,171,o),
(553,225,c),
(893,225,l),
(893,309,ls),
(893,479,o),
(793,563,o),
(653,563,cs)
);
},
{
closed = 1;
nodes = (
(369,247,l),
(369,204,l),
(369,157,o),
(331,125,o),
(286,125,cs),
(253,125,o),
(231,138,o),
(231,174,cs),
(231,216,o),
(253,243,o),
(328,245,cs)
);
},
{
closed = 1;
nodes = (
(693,433,o),
(721,393,o),
(722,345,c),
(556,345,l),
(561,410,o),
(595,433,o),
(642,433,cs)
);
}
);
width = 935;
},
{
anchors = (
{
name = bottom;
pos = (363,0);
},
{
name = center;
pos = (361,276);
},
{
name = top;
pos = (369,553);
}
);
layerId = "98E204A9-1C79-49C7-AB3E-40A925F56409";
shapes = (
{
closed = 1;
nodes = (
(437,562,o),
(398,546,o),
(367,515,c),
(341,547,o),
(302,563,o),
(246,563,cs),
(185,563,o),
(121,546,o),
(69,513,c),
(111,393,l),
(160,421,o),
(198,434,o),
(230,434,cs),
(266,434,o),
(283,411,o),
(283,366,cs),
(283,352,l),
(211,349,ls),
(90,344,o),
(25,287,o),
(25,169,cs),
(25,79,o),
(67,-10,o),
(172,-10,cs),
(235,-10,o),
(286,19,o),
(329,76,c),
(365,16,o),
(434,-10,o),
(508,-10,cs),
(572,-10,o),
(622,2,o),
(669,30,c),
(669,162,l),
(619,131,o),
(579,119,o),
(527,119,cs),
(463,119,o),
(434,151,o),
(434,225,c),
(697,225,l),
(697,310,ls),
(697,472,o),
(625,562,o),
(492,562,cs)
);
},
{
closed = 1;
nodes = (
(283,247,l),
(283,198,ls),
(283,151,o),
(258,119,o),
(226,119,cs),
(200,119,o),
(187,138,o),
(187,176,cs),
(187,220,o),
(209,243,o),
(253,245,cs)
);
},
{
closed = 1;
nodes = (
(526,437,o),
(548,409,o),
(548,339,c),
(434,339,l),
(434,411,o),
(459,437,o),
(492,437,cs)
);
}
);
width = 725;
},
{
anchors = (
{
name = bottom;
pos = (432,0);
},
{
name = center;
pos = (429,268);
},
{
name = top;
pos = (439,536);
}
);
layerId = "9FF96064-8718-4A86-A5C8-73C592101F67";
shapes = (
{
closed = 1;
nodes = (
(531,546,o),
(474,514,o),
(439,459,c),
(411,519,o),
(358,545,o),
(275,545,cs),
(209,545,o),
(138,525,o),
(91,499,c),
(118,433,l),
(162,455,o),
(215,474,o),
(268,474,cs),
(336,474,o),
(380,444,o),
(380,357,cs),
(380,323,l),
(290,320,ls),
(125,315,o),
(46,256,o),
(46,149,cs),
(46,40,o),
(119,-10,o),
(216,-10,cs),
(319,-10,o),
(373,34,o),
(419,103,c),
(460,28,o),
(530,-10,o),
(622,-10,cs),
(689,-10,o),
(736,1,o),
(789,25,c),
(789,102,l),
(738,78,o),
(691,65,o),
(625,65,cs),
(526,65,o),
(473,124,o),
(470,252,c),
(813,252,l),
(813,306,ls),
(813,449,o),
(733,546,o),
(603,546,cs)
);
},
{
closed = 1;
nodes = (
(378,262,l),
(378,214,ls),
(378,110,o),
(314,61,o),
(230,61,cs),
(174,61,o),
(137,88,o),
(137,148,cs),
(137,216,o),
(178,254,o),
(303,259,cs)
);
},
{
closed = 1;
nodes = (
(683,474,o),
(720,413,o),
(720,321,c),
(472,321,l),
(479,420,o),
(525,474,o),
(602,474,cs)
);
}
);
width = 864;
},
{
anchors = (
{
name = bottom;
pos = (459,0);
},
{
name = center;
pos = (458,273);
},
{
name = top;
pos = (466,546);
}
);
layerId = "134B12F2-BF5D-48E3-8003-C7502B438C7E";
shapes = (
{
closed = 1;
nodes = (
(563,556,o),
(509,535,o),
(466,493,c),
(428,536,o),
(372,557,o),
(299,557,cs),
(223,557,o),
(150,538,o),
(93,508,c),
(141,409,l),
(190,432,o),
(238,447,o),
(290,447,cs),
(340,447,o),
(371,426,o),
(371,381,cs),
(371,340,l),
(278,337,ls),
(121,331,o),
(42,279,o),
(42,163,cs),
(42,45,o),
(122,-10,o),
(216,-10,cs),
(329,-10,o),
(378,21,o),
(437,91,c),
(484,23,o),
(560,-10,o),
(649,-10,cs),
(735,-10,o),
(788,2,o),
(843,29,c),
(843,144,l),
(782,115,o),
(723,101,o),
(657,101,cs),
(573,101,o),
(524,152,o),
(521,236,c),
(874,236,l),
(874,308,ls),
(874,467,o),
(779,556,o),
(641,556,cs)
);
},
{
closed = 1;
nodes = (
(371,253,l),
(371,208,l),
(371,138,o),
(324,99,o),
(263,99,cs),
(222,99,o),
(195,116,o),
(195,162,cs),
(195,214,o),
(225,248,o),
(316,251,cs)
);
},
{
closed = 1;
nodes = (
(700,450,o),
(733,401,o),
(734,335,c),
(524,335,l),
(530,414,o),
(572,450,o),
(638,450,cs)
);
}
);
width = 917;
},
{
anchors = (
{
name = bottom;
pos = (324,0);
},
{
name = center;
pos = (320,268);
},
{
name = top;
pos = (330,537);
}
);
layerId = "36F3C8CB-53EE-4548-BFDE-2C03212BACAA";
shapes = (
{
closed = 1;
nodes = (
(390,546,o),
(349,522,o),
(321,474,c),
(301,523,o),
(264,547,o),
(206,547,cs),
(153,547,o),
(110,531,o),
(73,508,c),
(99,447,l),
(137,469,o),
(170,480,o),
(200,480,cs),
(250,480,o),
(272,440,o),
(272,360,cs),
(272,325,l),
(211,322,ls),
(98,317,o),
(34,256,o),
(34,150,cs),
(34,65,o),
(72,-10,o),
(159,-10,cs),
(223,-10,o),
(270,23,o),
(304,98,c),
(332,28,o),
(392,-10,o),
(461,-10,cs),
(509,-10,o),
(549,1,o),
(586,24,c),
(586,94,l),
(547,70,o),
(507,58,o),
(468,58,cs),
(392,58,o),
(354,122,o),
(352,253,c),
(606,253,l),
(606,309,ls),
(606,442,o),
(555,546,o),
(444,546,cs)
);
},
{
closed = 1;
nodes = (
(273,266,l),
(273,212,ls),
(273,114,o),
(238,56,o),
(182,56,cs),
(141,56,o),
(117,86,o),
(117,152,cs),
(117,225,o),
(152,259,o),
(225,263,cs)
);
},
{
closed = 1;
nodes = (
(504,479,o),
(531,408,o),
(531,317,c),
(353,317,l),
(358,427,o),
(390,479,o),
(444,479,cs)
);
}
);
width = 648;
},
{
anchors = (
{
name = bottom;
pos = (348,0);
},
{
name = center;
pos = (345,273);
},
{
name = top;
pos = (354,547);
}
);
layerId = "43B45EC1-5522-4B1A-B0C7-88628E50A583";
shapes = (
{
closed = 1;
nodes = (
(419,556,o),
(379,537,o),
(350,499,c),
(326,538,o),
(288,557,o),
(231,557,cs),
(173,557,o),
(117,540,o),
(71,511,c),
(107,414,l),
(151,440,o),
(188,452,o),
(219,452,cs),
(260,452,o),
(279,422,o),
(279,363,cs),
(279,341,l),
(211,338,ls),
(94,333,o),
(29,275,o),
(29,161,cs),
(29,73,o),
(70,-10,o),
(167,-10,cs),
(231,-10,o),
(280,20,o),
(320,85,c),
(353,21,o),
(418,-10,o),
(490,-10,cs),
(548,-10,o),
(594,2,o),
(637,28,c),
(637,136,l),
(592,107,o),
(551,95,o),
(505,95,cs),
(436,95,o),
(403,140,o),
(402,236,c),
(662,236,l),
(662,309,ls),
(662,460,o),
(598,556,o),
(474,556,cs)
);
},
{
closed = 1;
nodes = (
(279,254,l),
(279,204,ls),
(279,137,o),
(250,94,o),
(209,94,cs),
(177,94,o),
(160,118,o),
(160,167,cs),
(160,222,o),
(187,249,o),
(242,252,cs)
);
},
{
closed = 1;
nodes = (
(517,453,o),
(541,408,o),
(541,330,c),
(402,330,l),
(404,417,o),
(432,453,o),
(473,453,cs)
);
}
);
width = 695;
},
{
anchors = (
{
name = bottom;
pos = (425,0);
},
{
name = center;
pos = (418,264);
},
{
name = top;
pos = (425,528);
}
);
layerId = "AB666A95-3AF9-4DE8-B258-097FFCFE8A59";
shapes = (
{
closed = 1;
nodes = (
(506,538,o),
(443,474,o),
(414,384,c),
(405,490,o),
(354,537,o),
(261,537,cs),
(205,537,o),
(150,522,o),
(97,498,c),
(106,472,l),
(163,501,o),
(211,512,o),
(261,512,cs),
(347,512,o),
(392,463,o),
(392,343,cs),
(392,300,l),
(296,294,ls),
(142,284,o),
(48,234,o),
(48,129,cs),
(48,45,o),
(102,-10,o),
(210,-10,cs),
(322,-10,o),
(384,52,o),
(408,145,c),
(433,55,o),
(501,-10,o),
(613,-10,cs),
(670,-10,o),
(718,0,o),
(769,23,c),
(769,50,l),
(707,22,o),
(670,15,o),
(613,15,cs),
(491,15,o),
(416,105,o),
(418,266,c),
(789,266,l),
(789,291,ls),
(795,430,o),
(732,538,o),
(604,538,cs)
);
},
{
closed = 1;
nodes = (
(392,275,l),
(392,220,ls),
(390,99,o),
(334,15,o),
(210,15,cs),
(123,15,o),
(76,58,o),
(76,129,cs),
(76,222,o),
(165,263,o),
(298,270,cs)
);
},
{
closed = 1;
nodes = (
(709,513,o),
(763,423,o),
(762,291,c),
(419,291,l),
(431,436,o),
(507,513,o),
(604,513,cs)
);
}
);
width = 850;
},
{
anchors = (
{
name = bottom;
pos = (304,0);
},
{
name = center;
pos = (299,263);
},
{
name = top;
pos = (304,527);
}
);
layerId = "029FEF0C-5FA4-4A3E-AC23-838A1147A554";
shapes = (
{
closed = 1;
nodes = (
(351,537,o),
(308,477,o),
(293,405,c),
(288,494,o),
(250,537,o),
(182,537,cs),
(144,537,o),
(103,524,o),
(75,506,c),
(86,483,l),
(123,505,o),
(161,512,o),
(183,512,cs),
(239,512,o),
(272,468,o),
(272,380,cs),
(272,299,l),
(214,295,ls),
(106,288,o),
(38,237,o),
(38,130,cs),
(38,50,o),
(76,-10,o),
(156,-10,cs),
(233,-10,o),
(280,46,o),
(290,136,c),
(305,60,o),
(349,-10,o),
(439,-10,cs),
(476,-10,o),
(518,2,o),
(545,21,c),
(545,49,l),
(512,25,o),
(469,15,o),
(439,15,cs),
(351,15,o),
(299,105,o),
(298,274,c),
(561,274,l),
(561,303,ls),
(561,426,o),
(524,537,o),
(424,537,cs)
);
},
{
closed = 1;
nodes = (
(272,275,l),
(272,179,ls),
(272,91,o),
(235,15,o),
(156,15,cs),
(93,15,o),
(65,63,o),
(65,130,cs),
(65,213,o),
(108,264,o),
(214,271,cs)
);
},
{
closed = 1;
nodes = (
(502,512,o),
(537,420,o),
(536,299,c),
(298,299,l),
(302,438,o),
(353,512,o),
(423,512,cs)
);
}
);
width = 608;
}
);
script = latin;
subCategory = Lowercase;
unicode = 230;
}
{
category = Letter;
glyphname = dcroat;
kernLeft = o.right;
layers = (
{
anchors = (
{
name = bottom;
pos = (332,0);
},
{
name = center;
pos = (347,375);
},
{
name = top;
pos = (332,760);
}
);
layerId = "0A718E2F-231D-484E-9433-16A5230D2CE8";
shapes = (
{
closed = 1;
nodes = (
(301,-10,o),
(343,26,o),
(371,70,c),
(378,70,l),
(421,0,l),
(577,0,l),
(577,570,l),
(653,570,l),
(653,688,l),
(577,688,l),
(577,760,l),
(385,760,l),
(385,688,l),
(272,688,l),
(272,570,l),
(385,570,l),
(385,565,ls),
(385,505,o),
(396,450,o),
(400,434,c),
(396,434,l),
(367,479,o),
(323,514,o),
(248,514,cs),
(128,514,o),
(42,431,o),
(42,251,cs),
(42,81,o),
(121,-10,o),
(230,-10,cs)
);
},
{
closed = 1;
nodes = (
(275,141,o),
(253,193,o),
(253,249,cs),
(253,332,o),
(283,360,o),
(323,360,cs),
(370,360,o),
(401,321,o),
(401,250,cs),
(401,238,ls),
(399,173,o),
(381,141,o),
(326,141,cs)
);
}
);
width = 663;
},
{
anchors = (
{
name = bottom;
pos = (262,0);
},
{
name = center;
pos = (283,375);
},
{
name = top;
pos = (262,760);
}
);
layerId = "98E204A9-1C79-49C7-AB3E-40A925F56409";
shapes = (
{
closed = 1;
nodes = (
(250,-10,o),
(277,8,o),
(312,54,c),
(321,54,l),
(344,0,l),
(474,0,l),
(474,574,l),
(534,574,l),
(534,688,l),
(474,688,l),
(474,760,l),
(312,760,l),
(312,688,l),
(234,688,l),
(234,574,l),
(312,574,l),
(312,565,ls),
(312,544,o),
(314,509,o),
(317,459,c),
(312,459,l),
(282,516,o),
(243,540,o),
(192,540,cs),
(93,540,o),
(32,437,o),
(32,268,cs),
(32,99,o),
(92,-10,o),
(197,-10,cs)
);
},
{
closed = 1;
nodes = (
(216,125,o),
(196,171,o),
(196,268,cs),
(196,357,o),
(215,401,o),
(251,401,cs),
(294,401,o),
(312,365,o),
(312,284,cs),
(312,254,ls),
(312,163,o),
(294,125,o),
(250,125,cs)
);
}
);
width = 524;
},
{
anchors = (
{
name = bottom;
pos = (309,0);
},
{
name = center;
pos = (330,375);
},
{
name = top;
pos = (309,760);
}
);
layerId = "9FF96064-8718-4A86-A5C8-73C592101F67";
shapes = (
{
closed = 1;
nodes = (
(358,-10,o),
(409,26,o),
(441,72,c),
(445,72,l),
(458,0,l),
(530,0,l),
(530,605,l),
(606,605,l),
(606,671,l),
(530,671,l),
(530,760,l),
(442,760,l),
(442,671,l),
(229,671,l),
(229,605,l),
(442,605,l),
(442,544,ls),
(442,523,o),
(445,481,o),
(448,464,c),
(442,464,l),
(409,508,o),
(359,543,o),
(275,543,cs),
(143,543,o),
(55,452,o),
(55,265,cs),
(55,83,o),
(141,-10,o),
(275,-10,cs)
);
},
{
closed = 1;
nodes = (
(193,63,o),
(147,136,o),
(147,264,cs),
(147,392,o),
(193,470,o),
(288,470,cs),
(407,470,o),
(443,399,o),
(443,265,cs),
(443,248,ls),
(443,124,o),
(402,63,o),
(290,63,cs)
);
}
);
width = 617;
},
{
anchors = (
{
name = bottom;
pos = (325,0);
},
{
name = center;
pos = (338,375);
},
{
name = top;
pos = (325,760);
}
);
layerId = "134B12F2-BF5D-48E3-8003-C7502B438C7E";
shapes = (
{
closed = 1;
nodes = (
(330,-10,o),
(377,26,o),
(406,71,c),
(412,71,l),
(441,0,l),
(555,0,l),
(555,584,l),
(631,584,l),
(631,681,l),
(555,681,l),
(555,760,l),
(406,760,l),
(406,681,l),
(252,681,l),
(252,584,l),
(406,584,l),
(406,559,ls),
(406,525,o),
(412,474,o),
(417,446,c),
(412,446,l),
(382,491,o),
(333,526,o),
(255,526,cs),
(130,526,o),
(45,434,o),
(45,257,cs),
(45,82,o),
(129,-10,o),
(251,-10,cs)
);
},
{
closed = 1;
nodes = (
(235,109,o),
(196,158,o),
(196,255,cs),
(196,352,o),
(235,405,o),
(301,405,cs),
(389,405,o),
(416,352,o),
(416,256,cs),
(416,242,ls),
(414,153,o),
(385,109,o),
(303,109,cs)
);
}
);
width = 649;
},
{
anchors = (
{
name = bottom;
pos = (231,0);
},
{
name = center;
pos = (249,375);
},
{
name = top;
pos = (231,760);
}
);
layerId = "36F3C8CB-53EE-4548-BFDE-2C03212BACAA";
shapes = (
{
closed = 1;
nodes = (
(251,-10,o),
(287,16,o),
(316,69,c),
(322,69,l),
(333,0,l),
(398,0,l),
(398,609,l),
(456,609,l),
(456,671,l),
(398,671,l),
(398,760,l),
(317,760,l),
(317,671,l),
(204,671,l),
(204,609,l),
(317,609,l),
(317,535,ls),
(317,515,o),
(318,490,o),
(320,461,c),
(316,461,l),
(289,512,o),
(245,540,o),
(196,540,cs),
(97,540,o),
(42,442,o),
(42,265,cs),
(42,87,o),
(96,-10,o),
(199,-10,cs)
);
},
{
closed = 1;
nodes = (
(154,59,o),
(125,129,o),
(125,264,cs),
(125,397,o),
(153,467,o),
(216,467,cs),
(286,467,o),
(317,406,o),
(317,270,cs),
(317,250,ls),
(317,119,o),
(283,59,o),
(218,59,cs)
);
}
);
width = 462;
},
{
anchors = (
{
name = bottom;
pos = (250,0);
},
{
name = center;
pos = (270,375);
},
{
name = top;
pos = (250,760);
}
);
layerId = "43B45EC1-5522-4B1A-B0C7-88628E50A583";
shapes = (
{
closed = 1;
nodes = (
(251,-10,o),
(281,11,o),
(314,60,c),
(321,60,l),
(340,0,l),
(444,0,l),
(444,588,l),
(504,588,l),
(504,681,l),
(444,681,l),
(444,760,l),
(314,760,l),
(314,681,l),
(222,681,l),
(222,588,l),
(314,588,l),
(314,553,ls),
(314,533,o),
(316,501,o),
(318,460,c),
(313,460,l),
(285,514,o),
(244,540,o),
(194,540,cs),
(94,540,o),
(36,439,o),
(36,267,cs),
(36,94,o),
(93,-10,o),
(198,-10,cs)
);
},
{
closed = 1;
nodes = (
(192,99,o),
(168,155,o),
(168,267,cs),
(168,373,o),
(190,427,o),
(237,427,cs),
(291,427,o),
(314,381,o),
(314,278,cs),
(314,252,ls),
(314,146,o),
(289,99,o),
(237,99,cs)
);
}
);
width = 500;
},
{
anchors = (
{
name = bottom;
pos = (291,0);
},
{
name = center;
pos = (313,375);
},
{
name = top;
pos = (291,760);
}
);
layerId = "AB666A95-3AF9-4DE8-B258-097FFCFE8A59";
shapes = (
{
closed = 1;
nodes = (
(388,-10,o),
(444,46,o),
(468,113,c),
(470,113,l),
(472,0,l),
(494,0,l),
(494,630,l),
(568,630,l),
(568,655,l),
(494,655,l),
(494,760,l),
(468,760,l),
(468,655,l),
(226,655,l),
(226,630,l),
(468,630,l),
(468,543,ls),
(468,501,o),
(468,459,o),
(470,414,c),
(468,414,l),
(446,484,o),
(387,538,o),
(291,538,cs),
(141,538,o),
(59,437,o),
(59,254,cs),
(59,83,o),
(131,-10,o),
(283,-10,cs)
);
},
{
closed = 1;
nodes = (
(149,15,o),
(86,94,o),
(86,254,cs),
(86,427,o),
(159,513,o),
(291,513,cs),
(410,513,o),
(467,426,o),
(467,266,cs),
(467,263,ls),
(467,107,o),
(416,15,o),
(283,15,cs)
);
}
);
width = 582;
},
{
anchors = (
{
name = bottom;
pos = (217,0);
},
{
name = center;
pos = (234,375);
},
{
name = top;
pos = (217,760);
}
);
layerId = "029FEF0C-5FA4-4A3E-AC23-838A1147A554";
shapes = (
{
closed = 1;
nodes = (
(276,-10,o),
(316,52,o),
(328,106,c),
(330,106,l),
(333,0,l),
(354,0,l),
(354,633,l),
(422,633,l),
(422,658,l),
(354,658,l),
(354,760,l),
(328,760,l),
(328,658,l),
(203,658,l),
(203,633,l),
(328,633,l),
(328,497,ls),
(328,475,o),
(329,454,o),
(330,429,c),
(328,429,l),
(317,479,o),
(274,537,o),
(199,537,cs),
(102,537,o),
(46,440,o),
(46,256,cs),
(46,82,o),
(96,-10,o),
(195,-10,cs)
);
},
{
closed = 1;
nodes = (
(109,15,o),
(73,104,o),
(73,256,cs),
(73,424,o),
(117,512,o),
(200,512,cs),
(280,512,o),
(328,432,o),
(328,315,cs),
(328,221,ls),
(328,97,o),
(281,15,o),
(197,15,cs)
);
}
);
width = 434;
}
);
script = latin;
subCategory = Lowercase;
unicode = 273;
}
{
category = Letter;
glyphname = eng;
kernLeft = n.right;
kernRight = n.left;
layers = (
{
anchors = (
{
name = bottom;
pos = (335,-240);
},
{
name = center;
pos = (336,161);
},
{
name = top;
pos = (335,553);
},
{
name = topright;
pos = (636,553);
}
);
layerId = "0A718E2F-231D-484E-9433-16A5230D2CE8";
shapes = (
{
closed = 1;
nodes = (
(553,-240,o),
(606,-145,o),
(606,-45,cs),
(606,360,ls),
(606,502,o),
(520,563,o),
(413,563,cs),
(347,563,o),
(281,541,o),
(246,485,c),
(234,485,l),
(210,553,l),
(66,553,l),
(66,0,l),
(257,0,l),
(257,242,ls),
(257,352,o),
(276,413,o),
(348,413,cs),
(390,413,o),
(414,381,o),
(414,320,cs),
(414,-5,ls),
(414,-72,o),
(388,-88,o),
(359,-88,cs),
(338,-88,o),
(324,-85,o),
(302,-79,c),
(302,-228,l),
(328,-235,o),
(375,-240,o),
(405,-240,cs)
);
}
);
width = 670;
},
{
anchors = (
{
name = bottom;
pos = (265,-240);
},
{
name = center;
pos = (265,161);
},
{
name = top;
pos = (265,553);
},
{
name = topright;
pos = (500,553);
}
);
layerId = "98E204A9-1C79-49C7-AB3E-40A925F56409";
shapes = (
{
closed = 1;
nodes = (
(431,-240,o),
(480,-148,o),
(480,-45,cs),
(480,360,ls),
(480,489,o),
(424,563,o),
(328,563,cs),
(269,563,o),
(229,537,o),
(204,485,c),
(195,485,l),
(177,553,l),
(50,553,l),
(50,0,l),
(212,0,l),
(212,253,ls),
(212,394,o),
(233,419,o),
(275,419,cs),
(308,419,o),
(318,381,o),
(318,308,cs),
(318,-32,ls),
(318,-77,o),
(304,-100,o),
(274,-100,cs),
(260,-100,o),
(245,-97,o),
(229,-91,c),
(229,-228,l),
(256,-237,o),
(286,-240,o),
(313,-240,cs)
);
}
);
width = 529;
},
{
anchors = (
{
name = bottom;
pos = (309,-240);
},
{
name = center;
pos = (311,153);
},
{
name = top;
pos = (309,536);
},
{
name = topright;
pos = (562,536);
}
);
layerId = "9FF96064-8718-4A86-A5C8-73C592101F67";
shapes = (
{
closed = 1;
nodes = (
(493,-240,o),
(538,-180,o),
(538,-80,cs),
(538,350,ls),
(538,487,o),
(473,546,o),
(342,546,cs),
(273,546,o),
(210,519,o),
(175,463,c),
(170,463,l),
(156,536,l),
(85,536,l),
(85,0,l),
(173,0,l),
(173,279,ls),
(173,404,o),
(212,472,o),
(331,472,cs),
(412,472,o),
(450,430,o),
(450,344,cs),
(450,-83,ls),
(450,-148,o),
(421,-167,o),
(383,-167,cs),
(359,-167,o),
(341,-163,o),
(323,-157,c),
(323,-228,l),
(340,-235,o),
(362,-240,o),
(394,-240,cs)
);
}
);
width = 618;
},
{
anchors = (
{
name = bottom;
pos = (329,-240);
},
{
name = center;
pos = (330,158);
},
{
name = top;
pos = (329,546);
},
{
name = topright;
pos = (607,546);
}
);
layerId = "134B12F2-BF5D-48E3-8003-C7502B438C7E";
shapes = (
{
closed = 1;
nodes = (
(533,-240,o),
(582,-159,o),
(582,-59,cs),
(582,356,ls),
(582,496,o),
(505,556,o),
(388,556,cs),
(321,556,o),
(256,532,o),
(221,476,c),
(212,476,l),
(192,546,l),
(78,546,l),
(78,0,l),
(227,0,l),
(227,257,ls),
(227,373,o),
(254,437,o),
(345,437,cs),
(403,437,o),
(433,401,o),
(433,330,cs),
(433,-37,ls),
(433,-103,o),
(406,-120,o),
(373,-120,cs),
(351,-120,o),
(335,-117,o),
(315,-111,c),
(315,-228,l),
(337,-235,o),
(374,-240,o),
(405,-240,cs)
);
}
);
width = 657;
},
{
anchors = (
{
name = bottom;
pos = (228,-240);
},
{
name = center;
pos = (229,153);
},
{
name = top;
pos = (228,537);
},
{
name = topright;
pos = (418,537);
}
);
layerId = "36F3C8CB-53EE-4548-BFDE-2C03212BACAA";
shapes = (
{
closed = 1;
nodes = (
(358,-240,o),
(393,-179,o),
(393,-82,cs),
(393,350,ls),
(393,470,o),
(360,547,o),
(262,547,cs),
(210,547,o),
(166,516,o),
(143,464,c),
(139,464,l),
(130,537,l),
(65,537,l),
(65,0,l),
(146,0,l),
(146,279,ls),
(146,420,o),
(175,472,o),
(241,472,cs),
(290,472,o),
(312,430,o),
(312,348,cs),
(312,-83,ls),
(312,-140,o),
(298,-167,o),
(270,-167,cs),
(259,-167,o),
(247,-164,o),
(235,-159,c),
(235,-231,l),
(250,-237,o),
(266,-240,o),
(283,-240,cs)
);
}
);
width = 456;
},
{
anchors = (
{
name = bottom;
pos = (251,-240);
},
{
name = center;
pos = (251,158);
},
{
name = top;
pos = (251,547);
},
{
name = topright;
pos = (468,547);
}
);
layerId = "43B45EC1-5522-4B1A-B0C7-88628E50A583";
shapes = (
{
closed = 1;
nodes = (
(403,-240,o),
(446,-160,o),
(446,-59,cs),
(446,356,ls),
(446,481,o),
(399,557,o),
(302,557,cs),
(246,557,o),
(205,529,o),
(180,477,c),
(173,477,l),
(159,547,l),
(56,547,l),
(56,0,l),
(186,0,l),
(186,263,ls),
(186,404,o),
(211,440,o),
(262,440,cs),
(301,440,o),
(316,400,o),
(316,324,cs),
(316,-52,ls),
(316,-102,o),
(302,-126,o),
(272,-126,cs),
(260,-126,o),
(246,-123,o),
(231,-117,c),
(231,-229,l),
(254,-237,o),
(278,-240,o),
(301,-240,cs)
);
}
);
width = 501;
},
{
anchors = (
{
name = bottom;
pos = (287,-240);
},
{
name = center;
pos = (289,149);
},
{
name = top;
pos = (287,528);
},
{
name = topright;
pos = (553,528);
}
);
layerId = "AB666A95-3AF9-4DE8-B258-097FFCFE8A59";
shapes = (
{
closed = 1;
nodes = (
(441,-240,o),
(489,-201,o),
(489,-120,cs),
(489,346,ls),
(489,477,o),
(423,538,o),
(309,538,cs),
(197,538,o),
(140,478,o),
(117,417,c),
(115,417,l),
(111,528,l),
(90,528,l),
(90,0,l),
(116,0,l),
(116,302,ls),
(116,446,o),
(194,513,o),
(309,513,cs),
(406,513,o),
(463,462,o),
(463,345,cs),
(463,-116,ls),
(463,-178,o),
(437,-215,o),
(384,-215,cs),
(364,-215,o),
(343,-213,o),
(323,-204,c),
(323,-230,l),
(339,-236,o),
(359,-240,o),
(384,-240,cs)
);
}
);
width = 573;
},
{
anchors = (
{
name = bottom;
pos = (204,-242);
},
{
name = center;
pos = (205,147);
},
{
name = top;
pos = (204,527);
},
{
name = topright;
pos = (388,527);
}
);
layerId = "029FEF0C-5FA4-4A3E-AC23-838A1147A554";
shapes = (
{
closed = 1;
nodes = (
(314,-242,o),
(339,-202,o),
(339,-112,cs),
(339,375,ls),
(339,488,o),
(295,537,o),
(227,537,cs),
(146,537,o),
(109,470,o),
(95,415,c),
(93,415,l),
(90,527,l),
(71,527,l),
(71,0,l),
(97,0,l),
(97,316,ls),
(97,449,o),
(159,513,o),
(224,513,cs),
(279,513,o),
(313,472,o),
(313,365,cs),
(313,-112,ls),
(313,-178,o),
(298,-217,o),
(265,-217,cs),
(257,-217,o),
(247,-215,o),
(237,-210,c),
(237,-236,l),
(245,-239,o),
(254,-242,o),
(266,-242,cs)
);
}
);
width = 408;
}
);
script = latin;
subCategory = Lowercase;
unicode = 331;
}
{
category = Letter;
glyphname = OE;
kernLeft = O.right;
kernRight = E.left;
layers = (
{
anchors = (
{
name = bottom;
pos = (479,0);
},
{
name = center;
pos = (480,357);
},
{
name = top;
pos = (479,714);
}
);
layerId = "0A718E2F-231D-484E-9433-16A5230D2CE8";
shapes = (
{
closed = 1;
nodes = (
(158,725,o),
(51,580,o),
(51,359,cs),
(51,137,o),
(162,-10,o),
(378,-10,cs),
(412,-10,o),
(469,-6,o),
(497,0,c),
(909,0,l),
(909,157,l),
(678,157,l),
(678,292,l),
(891,292,l),
(891,447,l),
(678,447,l),
(678,559,l),
(909,559,l),
(909,714,l),
(501,714,l),
(472,721,o),
(415,725,o),
(379,725,cs)
);
},
{
closed = 1;
nodes = (
(421,567,o),
(463,558,o),
(485,543,c),
(485,172,l),
(461,158,o),
(420,151,o),
(379,151,cs),
(294,151,o),
(254,229,o),
(254,358,cs),
(254,487,o),
(294,567,o),
(380,567,cs)
);
}
);
width = 957;
},
{
anchors = (
{
name = bottom;
pos = (375,0);
},
{
name = center;
pos = (374,357);
},
{
name = top;
pos = (375,714);
}
);
layerId = "98E204A9-1C79-49C7-AB3E-40A925F56409";
shapes = (
{
closed = 1;
nodes = (
(119,725,o),
(39,572,o),
(39,359,cs),
(39,149,o),
(117,-10,o),
(301,-10,cs),
(330,-10,o),
(353,-6,o),
(371,0,c),
(710,0,l),
(710,146,l),
(536,146,l),
(536,297,l),
(697,297,l),
(697,441,l),
(536,441,l),
(536,570,l),
(710,570,l),
(710,714,l),
(371,714,l),
(352,721,o),
(328,725,o),
(299,725,cs)
);
},
{
closed = 1;
nodes = (
(336,579,o),
(356,574,o),
(371,565,c),
(371,146,l),
(356,142,o),
(336,139,o),
(311,139,cs),
(248,139,o),
(216,212,o),
(216,358,cs),
(216,505,o),
(248,579,o),
(311,579,cs)
);
}
);
width = 750;
},
{
anchors = (
{
name = bottom;
pos = (464,0);
},
{
name = center;
pos = (464,357);
},
{
name = top;
pos = (464,714);
}
);
layerId = "9FF96064-8718-4A86-A5C8-73C592101F67";
shapes = (
{
closed = 1;
nodes = (
(167,725,o),
(61,580,o),
(61,359,cs),
(61,137,o),
(168,-10,o),
(391,-10,cs),
(425,-10,o),
(458,-6,o),
(488,0,c),
(868,0,l),
(868,79,l),
(581,79,l),
(581,334,l),
(849,334,l),
(849,412,l),
(581,412,l),
(581,635,l),
(868,635,l),
(868,714,l),
(482,714,l),
(453,721,o),
(420,725,o),
(386,725,cs)
);
},
{
closed = 1;
nodes = (
(431,646,o),
(464,641,o),
(492,630,c),
(492,85,l),
(465,74,o),
(430,68,o),
(393,68,cs),
(230,68,o),
(155,178,o),
(155,358,cs),
(155,538,o),
(230,646,o),
(394,646,cs)
);
}
);
width = 928;
},
{
anchors = (
{
name = bottom;
pos = (487,0);
},
{
name = center;
pos = (486,357);
},
{
name = top;
pos = (487,714);
}
);
layerId = "134B12F2-BF5D-48E3-8003-C7502B438C7E";
shapes = (
{
closed = 1;
nodes = (
(159,725,o),
(58,580,o),
(58,359,cs),
(58,137,o),
(159,-10,o),
(378,-10,cs),
(412,-10,o),
(459,-6,o),
(488,0,c),
(914,0,l),
(914,125,l),
(639,125,l),
(639,309,l),
(896,309,l),
(896,433,l),
(639,433,l),
(639,590,l),
(914,590,l),
(914,714,l),
(490,714,l),
(461,721,o),
(414,725,o),
(379,725,cs)
);
},
{
closed = 1;
nodes = (
(418,599,o),
(464,592,o),
(488,579,c),
(488,136,l),
(463,124,o),
(417,117,o),
(378,117,cs),
(265,117,o),
(214,208,o),
(214,358,cs),
(214,508,o),
(265,599,o),
(379,599,cs)
);
}
);
width = 973;
},
{
anchors = (
{
name = bottom;
pos = (323,0);
},
{
name = center;
pos = (325,357);
},
{
name = top;
pos = (323,714);
}
);
layerId = "36F3C8CB-53EE-4548-BFDE-2C03212BACAA";
shapes = (
{
closed = 1;
nodes = (
(131,719,o),
(50,589,o),
(50,359,cs),
(50,128,o),
(127,-5,o),
(291,-5,cs),
(315,-5,o),
(335,-2,o),
(355,0,c),
(601,0,l),
(601,76,l),
(401,76,l),
(401,335,l),
(589,335,l),
(589,410,l),
(401,410,l),
(401,639,l),
(601,639,l),
(601,714,l),
(354,714,l),
(335,717,o),
(315,719,o),
(293,719,c)
);
},
{
closed = 1;
nodes = (
(303,643,o),
(311,642,o),
(317,639,c),
(317,74,l),
(312,73,o),
(304,72,o),
(296,72,cs),
(174,74,o),
(138,184,o),
(138,358,cs),
(138,529,o),
(172,640,o),
(294,643,cs)
);
}
);
width = 646;
},
{
anchors = (
{
name = bottom;
pos = (355,0);
},
{
name = center;
pos = (355,357);
},
{
name = top;
pos = (355,714);
}
);
layerId = "43B45EC1-5522-4B1A-B0C7-88628E50A583";
shapes = (
{
closed = 1;
nodes = (
(124,723,o),
(43,579,o),
(43,359,cs),
(43,141,o),
(121,-8,o),
(297,-8,cs),
(324,-8,o),
(346,-5,o),
(364,0,c),
(667,0,l),
(667,119,l),
(483,119,l),
(483,312,l),
(654,312,l),
(654,429,l),
(483,429,l),
(483,597,l),
(667,597,l),
(667,714,l),
(364,714,l),
(345,719,o),
(323,723,o),
(296,723,c)
);
},
{
closed = 1;
nodes = (
(324,604,o),
(339,600,o),
(350,594,c),
(350,118,l),
(339,115,o),
(324,113,o),
(306,113,cs),
(219,114,o),
(186,201,o),
(186,358,cs),
(186,514,o),
(219,603,o),
(305,604,cs)
);
}
);
width = 709;
},
{
anchors = (
{
name = bottom;
pos = (450,0);
},
{
name = center;
pos = (450,357);
},
{
name = top;
pos = (450,714);
}
);
layerId = "AB666A95-3AF9-4DE8-B258-097FFCFE8A59";
shapes = (
{
closed = 1;
nodes = (
(178,717,o),
(63,574,o),
(63,359,cs),
(63,143,o),
(168,-3,o),
(376,-3,cs),
(409,-3,o),
(434,-1,o),
(456,0,c),
(837,0,l),
(837,25,l),
(478,25,l),
(478,364,l),
(817,364,l),
(817,389,l),
(478,389,l),
(478,689,l),
(837,689,l),
(837,714,l),
(466,714,ls),
(431,715,o),
(412,717,o),
(379,717,cs)
);
},
{
closed = 1;
nodes = (
(412,692,o),
(437,689,o),
(452,688,c),
(452,26,l),
(434,23,o),
(409,22,o),
(376,22,cs),
(182,22,o),
(90,157,o),
(90,359,cs),
(90,556,o),
(185,692,o),
(379,692,cs)
);
}
);
width = 899;
},
{
anchors = (
{
name = bottom;
pos = (302,0);
},
{
name = center;
pos = (305,356);
},
{
name = top;
pos = (302,714);
}
);
layerId = "029FEF0C-5FA4-4A3E-AC23-838A1147A554";
shapes = (
{
closed = 1;
nodes = (
(97,714,o),
(54,571,o),
(54,359,cs),
(54,121,o),
(125,-2,o),
(278,-2,cs),
(301,-2,o),
(319,0,o),
(336,0,cs),
(557,0,l),
(557,25,l),
(307,25,l),
(307,363,l),
(544,363,l),
(544,388,l),
(307,388,l),
(307,690,l),
(557,690,l),
(557,714,l),
(341,714,ls),
(324,714,o),
(314,714,o),
(286,714,cs)
);
},
{
closed = 1;
nodes = (
(276,690,o),
(278,690,o),
(281,690,c),
(281,23,l),
(278,23,o),
(280,23,o),
(277,23,cs),
(139,23,o),
(80,153,o),
(80,359,cs),
(80,545,o),
(113,690,o),
(273,690,c)
);
}
);
width = 604;
}
);
script = latin;
subCategory = Uppercase;
unicode = 338;
}
{
category = Letter;
glyphname = oe;
kernLeft = o.right;
kernRight = o.left;
layers = (
{
anchors = (
{
name = bottom;
pos = (490,0);
},
{
name = center;
pos = (490,276);
},
{
name = top;
pos = (490,553);
}
);
layerId = "0A718E2F-231D-484E-9433-16A5230D2CE8";
shapes = (
{
closed = 1;
nodes = (
(611,563,o),
(551,540,o),
(503,501,c),
(455,542,o),
(392,563,o),
(320,563,cs),
(147,563,o),
(42,461,o),
(42,278,cs),
(42,93,o),
(157,-10,o),
(317,-10,cs),
(399,-10,o),
(465,13,o),
(513,57,c),
(562,11,o),
(628,-10,o),
(700,-10,cs),
(795,-10,o),
(849,3,o),
(903,31,c),
(903,168,l),
(840,136,o),
(776,126,o),
(725,126,cs),
(643,126,o),
(601,171,o),
(598,225,c),
(938,225,l),
(938,309,ls),
(938,479,o),
(838,563,o),
(698,563,cs)
);
},
{
closed = 1;
nodes = (
(378,421,o),
(400,372,o),
(400,278,cs),
(400,183,o),
(378,132,o),
(319,132,cs),
(259,132,o),
(237,183,o),
(237,278,cs),
(237,372,o),
(260,421,o),
(318,421,cs)
);
},
{
closed = 1;
nodes = (
(738,433,o),
(766,393,o),
(767,345,c),
(601,345,l),
(606,410,o),
(640,433,o),
(687,433,cs)
);
}
);
width = 980;
},
{
anchors = (
{
name = bottom;
pos = (383,0);
},
{
name = center;
pos = (384,276);
},
{
name = top;
pos = (383,553);
}
);
layerId = "98E204A9-1C79-49C7-AB3E-40A925F56409";
shapes = (
{
closed = 1;
nodes = (
(471,562,o),
(429,543,o),
(396,505,c),
(363,544,o),
(317,563,o),
(259,563,cs),
(104,563,o),
(32,444,o),
(32,278,cs),
(32,114,o),
(109,-10,o),
(257,-10,cs),
(318,-10,o),
(365,10,o),
(398,51,c),
(434,10,o),
(481,-10,o),
(548,-10,cs),
(612,-10,o),
(662,2,o),
(709,30,c),
(709,162,l),
(659,131,o),
(619,119,o),
(567,119,cs),
(503,119,o),
(474,151,o),
(474,225,c),
(737,225,l),
(737,310,ls),
(737,472,o),
(665,562,o),
(532,562,cs)
);
},
{
closed = 1;
nodes = (
(303,428,o),
(319,379,o),
(319,278,cs),
(319,176,o),
(303,125,o),
(258,125,cs),
(215,125,o),
(196,177,o),
(196,276,cs),
(196,380,o),
(215,428,o),
(258,428,cs)
);
},
{
closed = 1;
nodes = (
(566,437,o),
(588,409,o),
(588,339,c),
(474,339,l),
(474,411,o),
(499,437,o),
(532,437,cs)
);
}
);
width = 765;
},
{
anchors = (
{
name = bottom;
pos = (473,0);
},
{
name = center;
pos = (474,267);
},
{
name = top;
pos = (473,536);
}
);
layerId = "9FF96064-8718-4A86-A5C8-73C592101F67";
shapes = (
{
closed = 1;
nodes = (
(595,545,o),
(531,506,o),
(492,435,c),
(452,507,o),
(383,545,o),
(299,545,cs),
(147,545,o),
(54,445,o),
(54,269,cs),
(54,90,o),
(156,-10,o),
(296,-10,cs),
(384,-10,o),
(454,28,o),
(495,101,c),
(537,27,o),
(608,-10,o),
(699,-10,cs),
(770,-10,o),
(816,1,o),
(870,25,c),
(870,102,l),
(817,78,o),
(770,65,o),
(700,65,cs),
(597,65,o),
(541,123,o),
(538,251,c),
(894,251,l),
(894,304,ls),
(894,450,o),
(812,545,o),
(677,545,cs)
);
},
{
closed = 1;
nodes = (
(400,472,o),
(447,404,o),
(447,265,cs),
(447,132,o),
(401,63,o),
(297,63,cs),
(191,63,o),
(146,134,o),
(146,269,cs),
(146,403,o),
(190,472,o),
(295,472,cs)
);
},
{
closed = 1;
nodes = (
(763,473,o),
(801,413,o),
(801,321,c),
(540,321,l),
(548,420,o),
(596,473,o),
(676,473,cs)
);
}
);
width = 946;
},
{
anchors = (
{
name = bottom;
pos = (489,0);
},
{
name = center;
pos = (490,273);
},
{
name = top;
pos = (489,546);
}
);
layerId = "134B12F2-BF5D-48E3-8003-C7502B438C7E";
shapes = (
{
closed = 1;
nodes = (
(607,556,o),
(543,531,o),
(496,480,c),
(450,530,o),
(382,556,o),
(309,556,cs),
(142,556,o),
(45,455,o),
(45,274,cs),
(45,92,o),
(155,-10,o),
(310,-10,cs),
(388,-10,o),
(455,15,o),
(501,66,c),
(551,14,o),
(623,-10,o),
(706,-10,cs),
(793,-10,o),
(848,2,o),
(904,29,c),
(904,144,l),
(841,115,o),
(785,101,o),
(712,101,cs),
(626,101,o),
(575,150,o),
(571,236,c),
(935,236,l),
(935,308,ls),
(935,467,o),
(838,556,o),
(683,556,cs)
);
},
{
closed = 1;
nodes = (
(389,436,o),
(422,382,o),
(422,274,cs),
(422,166,o),
(389,110,o),
(310,110,cs),
(230,110,o),
(197,166,o),
(197,274,cs),
(197,382,o),
(230,436,o),
(309,436,cs)
);
},
{
closed = 1;
nodes = (
(759,450,o),
(794,401,o),
(795,335,c),
(575,335,l),
(581,414,o),
(625,450,o),
(686,450,cs)
);
}
);
width = 978;
},
{
anchors = (
{
name = bottom;
pos = (348,0);
},
{
name = center;
pos = (347,268);
},
{
name = top;
pos = (348,537);
}
);
layerId = "36F3C8CB-53EE-4548-BFDE-2C03212BACAA";
shapes = (
{
closed = 1;
nodes = (
(430,546,o),
(387,515,o),
(359,451,c),
(330,515,o),
(285,547,o),
(223,547,cs),
(101,547,o),
(42,448,o),
(42,269,cs),
(42,95,o),
(105,-10,o),
(221,-10,cs),
(286,-10,o),
(332,23,o),
(360,87,c),
(391,23,o),
(440,-10,o),
(510,-10,cs),
(556,-10,o),
(596,1,o),
(633,24,c),
(633,94,l),
(593,69,o),
(556,58,o),
(517,58,cs),
(439,58,o),
(400,122,o),
(399,253,c),
(653,253,l),
(653,309,ls),
(653,441,o),
(604,546,o),
(493,546,cs)
);
},
{
closed = 1;
nodes = (
(289,476,o),
(320,407,o),
(320,269,cs),
(320,126,o),
(290,60,o),
(223,60,cs),
(158,60,o),
(125,130,o),
(125,269,cs),
(125,407,o),
(154,476,o),
(223,476,cs)
);
},
{
closed = 1;
nodes = (
(551,479,o),
(578,407,o),
(578,317,c),
(400,317,l),
(405,427,o),
(436,479,o),
(491,479,cs)
);
}
);
width = 695;
},
{
anchors = (
{
name = bottom;
pos = (369,0);
},
{
name = center;
pos = (370,273);
},
{
name = top;
pos = (369,547);
}
);
layerId = "43B45EC1-5522-4B1A-B0C7-88628E50A583";
shapes = (
{
closed = 1;
nodes = (
(455,556,o),
(413,532,o),
(382,484,c),
(350,533,o),
(305,557,o),
(245,557,cs),
(103,557,o),
(36,445,o),
(36,275,cs),
(36,107,o),
(107,-10,o),
(243,-10,cs),
(306,-10,o),
(352,15,o),
(383,65,c),
(417,15,o),
(465,-10,o),
(533,-10,cs),
(590,-10,o),
(636,2,o),
(680,28,c),
(680,136,l),
(633,107,o),
(595,95,o),
(548,95,cs),
(478,95,o),
(445,140,o),
(445,236,c),
(705,236,l),
(705,309,ls),
(705,460,o),
(641,556,o),
(517,556,cs)
);
},
{
closed = 1;
nodes = (
(297,447,o),
(319,390,o),
(319,275,cs),
(319,157,o),
(298,100,o),
(244,100,cs),
(192,100,o),
(168,159,o),
(168,273,cs),
(168,391,o),
(191,447,o),
(244,447,cs)
);
},
{
closed = 1;
nodes = (
(560,453,o),
(584,408,o),
(584,330,c),
(445,330,l),
(447,417,o),
(474,453,o),
(516,453,cs)
);
}
);
width = 738;
},
{
anchors = (
{
name = bottom;
pos = (484,0);
},
{
name = center;
pos = (482,264);
},
{
name = top;
pos = (484,528);
}
);
layerId = "AB666A95-3AF9-4DE8-B258-097FFCFE8A59";
shapes = (
{
closed = 1;
nodes = (
(596,538,o),
(528,462,o),
(502,360,c),
(480,464,o),
(416,538,o),
(292,538,cs),
(145,538,o),
(59,432,o),
(59,264,cs),
(59,107,o),
(134,-10,o),
(286,-10,cs),
(407,-10,o),
(475,61,o),
(500,164,c),
(524,60,o),
(593,-10,o),
(723,-10,cs),
(787,-10,o),
(835,0,o),
(886,23,c),
(886,50,l),
(824,22,o),
(787,15,o),
(723,15,cs),
(586,15,o),
(511,105,o),
(513,266,c),
(906,266,l),
(906,291,ls),
(906,430,o),
(849,538,o),
(714,538,cs)
);
},
{
closed = 1;
nodes = (
(433,513,o),
(488,402,o),
(488,264,cs),
(488,119,o),
(426,15,o),
(286,15,cs),
(151,15,o),
(86,117,o),
(86,264,cs),
(86,420,o),
(160,513,o),
(292,513,cs)
);
},
{
closed = 1;
nodes = (
(826,513,o),
(880,423,o),
(879,291,c),
(514,291,l),
(526,436,o),
(602,513,o),
(714,513,cs)
);
}
);
width = 967;
},
{
anchors = (
{
name = bottom;
pos = (341,0);
},
{
name = center;
pos = (340,263);
},
{
name = top;
pos = (341,527);
}
);
layerId = "029FEF0C-5FA4-4A3E-AC23-838A1147A554";
shapes = (
{
closed = 1;
nodes = (
(410,537,o),
(367,466,o),
(352,385,c),
(340,473,o),
(296,537,o),
(210,537,cs),
(104,537,o),
(46,452,o),
(46,264,cs),
(46,85,o),
(99,-10,o),
(202,-10,cs),
(290,-10,o),
(339,58,o),
(352,146,c),
(369,53,o),
(419,-10,o),
(515,-10,cs),
(557,-10,o),
(591,2,o),
(619,21,c),
(619,49,l),
(583,24,o),
(552,15,o),
(519,15,cs),
(416,15,o),
(362,100,o),
(364,270,c),
(635,270,l),
(635,301,l),
(635,421,o),
(604,537,o),
(495,537,cs)
);
},
{
closed = 1;
nodes = (
(301,512,o),
(338,422,o),
(338,265,cs),
(338,114,o),
(300,15,o),
(202,15,cs),
(113,15,o),
(72,106,o),
(72,264,cs),
(72,423,o),
(113,512,o),
(210,512,cs)
);
},
{
closed = 1;
nodes = (
(579,512,o),
(610,414,o),
(609,296,c),
(364,296,l),
(372,450,o),
(427,512,o),
(494,512,cs)
);
}
);
width = 682;
}
);
script = latin;
subCategory = Lowercase;
unicode = 339;
}
{
category = Letter;
glyphname = btopbar;
layers = (
{
anchors = (
{
name = bottom;
pos = (292,0);
},
{
name = center;
pos = (306,375);
},
{
name = top;
pos = (292,760);
}
);
layerId = "AB666A95-3AF9-4DE8-B258-097FFCFE8A59";
shapes = (
{
closed = 1;
nodes = (
(456,-10,o),
(524,114,o),
(524,266,cs),
(524,444,o),
(451,539,o),
(311,539,cs),
(210,539,o),
(137,483,o),
(115,406,c),
(113,406,l),
(114,439,o),
(115,493,o),
(115,525,cs),
(115,735,l),
(465,735,l),
(465,760,l),
(89,760,l),
(89,0,l),
(111,0,l),
(115,104,l),
(117,104,l),
(141,38,o),
(200,-10,o),
(295,-10,cs)
);
},
{
closed = 1;
nodes = (
(174,15,o),
(115,98,o),
(115,253,cs),
(115,263,ls),
(115,419,o),
(178,514,o),
(311,514,cs),
(435,514,o),
(497,430,o),
(497,266,cs),
(497,106,o),
(427,15,o),
(295,15,cs)
);
}
);
width = 583;
},
{
anchors = (
{
name = bottom;
pos = (308,0);
},
{
name = center;
pos = (322,375);
},
{
name = top;
pos = (308,760);
}
);
layerId = "9FF96064-8718-4A86-A5C8-73C592101F67";
shapes = (
{
closed = 1;
nodes = (
(471,-10,o),
(560,84,o),
(560,268,cs),
(560,452,o),
(472,545,o),
(339,545,cs),
(255,545,o),
(203,510,o),
(173,465,c),
(168,465,l),
(170,487,o),
(173,530,o),
(173,575,cs),
(173,686,l),
(506,686,l),
(506,760,l),
(85,760,l),
(85,0,l),
(148,0,l),
(166,68,l),
(173,68,l),
(203,25,o),
(255,-10,o),
(339,-10,cs)
);
},
{
closed = 1;
nodes = (
(208,63,o),
(173,135,o),
(173,267,cs),
(173,271,ls),
(173,408,o),
(210,472,o),
(324,472,cs),
(422,472,o),
(469,404,o),
(469,269,cs),
(469,136,o),
(422,63,o),
(326,63,cs)
);
}
);
width = 615;
},
{
anchors = (
{
name = bottom;
pos = (317,0);
},
{
name = center;
pos = (333,375);
},
{
name = top;
pos = (317,760);
}
);
layerId = "134B12F2-BF5D-48E3-8003-C7502B438C7E";
shapes = (
{
closed = 1;
nodes = (
(503,-10,o),
(588,87,o),
(588,274,cs),
(588,469,o),
(504,546,o),
(382,546,cs),
(303,546,o),
(256,510,o),
(227,465,c),
(221,465,l),
(223,475,o),
(227,530,o),
(227,573,cs),
(227,648,l),
(534,648,l),
(534,760,l),
(78,760,l),
(78,0,l),
(192,0,l),
(217,60,l),
(227,60,l),
(256,24,o),
(298,-10,o),
(378,-10,cs)
);
},
{
closed = 1;
nodes = (
(253,111,o),
(227,169,o),
(227,275,cs),
(227,281,ls),
(229,379,o),
(266,427,o),
(334,427,cs),
(397,427,o),
(436,383,o),
(436,276,cs),
(436,169,o),
(397,111,o),
(336,111,cs)
);
}
);
width = 633;
},
{
anchors = (
{
name = bottom;
pos = (325,0);
},
{
name = center;
pos = (342,375);
},
{
name = top;
pos = (325,760);
}
);
layerId = "0A718E2F-231D-484E-9433-16A5230D2CE8";
shapes = (
{
closed = 1;
nodes = (
(521,-10,o),
(611,80,o),
(611,278,c),
(611,479,o),
(523,548,o),
(413,548,c),
(334,548,o),
(291,509,o),
(267,473,c),
(260,473,l),
(262,491,o),
(267,526,o),
(267,575,c),
(267,616,l),
(559,616,l),
(559,760,l),
(73,760,l),
(73,0,l),
(225,0,l),
(255,51,l),
(267,51,l),
(294,24,o),
(326,-10,o),
(408,-10,c)
);
},
{
closed = 1;
nodes = (
(285,146,o),
(267,195,o),
(267,283,c),
(267,288,ls),
(270,363,o),
(306,395,o),
(344,395,c),
(383,395,o),
(413,366,o),
(413,280,c),
(413,192,o),
(383,146,o),
(347,146,c)
);
}
);
width = 650;
},
{
anchors = (
{
name = bottom;
pos = (212,0);
},
{
name = center;
pos = (225,375);
},
{
name = top;
pos = (212,760);
}
);
layerId = "029FEF0C-5FA4-4A3E-AC23-838A1147A554";
shapes = (
{
closed = 1;
nodes = (
(325,-10,o),
(379,83,o),
(379,269,cs),
(379,445,o),
(330,537,o),
(229,537,cs),
(158,537,o),
(110,489,o),
(98,418,c),
(96,418,l),
(97,435,o),
(97,459,o),
(97,481,cs),
(97,735,l),
(309,735,l),
(309,760,l),
(71,760,l),
(71,0,l),
(92,0,l),
(97,97,l),
(99,97,l),
(119,34,o),
(157,-10,o),
(224,-10,cs)
);
},
{
closed = 1;
nodes = (
(149,16,o),
(97,83,o),
(97,239,cs),
(97,294,ls),
(97,426,o),
(139,512,o),
(229,512,cs),
(316,512,o),
(353,429,o),
(353,269,cs),
(353,96,o),
(306,16,o),
(224,16,cs)
);
}
);
width = 424;
},
{
anchors = (
{
name = bottom;
pos = (231,0);
},
{
name = center;
pos = (243,375);
},
{
name = top;
pos = (231,760);
}
);
layerId = "36F3C8CB-53EE-4548-BFDE-2C03212BACAA";
shapes = (
{
closed = 1;
nodes = (
(366,-10,o),
(421,89,o),
(421,266,cs),
(421,445,o),
(366,540,o),
(264,540,cs),
(215,540,o),
(176,514,o),
(147,460,c),
(143,460,l),
(144,489,o),
(146,516,o),
(146,537,cs),
(146,691,l),
(369,691,l),
(369,760,l),
(65,760,l),
(65,0,l),
(131,0,l),
(142,68,l),
(147,68,l),
(177,14,o),
(216,-10,o),
(267,-10,cs)
);
},
{
closed = 1;
nodes = (
(179,60,o),
(146,126,o),
(146,257,cs),
(146,271,ls),
(146,385,o),
(165,468,o),
(246,468,cs),
(310,468,o),
(338,401,o),
(338,267,cs),
(338,125,o),
(308,60,o),
(247,60,cs)
);
}
);
width = 462;
},
{
anchors = (
{
name = bottom;
pos = (250,0);
},
{
name = center;
pos = (260,375);
},
{
name = top;
pos = (250,760);
}
);
layerId = "43B45EC1-5522-4B1A-B0C7-88628E50A583";
shapes = (
{
closed = 1;
nodes = (
(406,-10,o),
(464,92,o),
(464,266,cs),
(464,441,o),
(405,540,o),
(306,540,cs),
(256,540,o),
(216,516,o),
(187,460,c),
(182,460,l),
(185,502,o),
(186,534,o),
(186,555,cs),
(186,651,l),
(414,651,l),
(414,760,l),
(56,760,l),
(56,0,l),
(161,0,l),
(180,59,l),
(187,59,l),
(222,7,o),
(255,-10,o),
(304,-10,cs)
);
},
{
closed = 1;
nodes = (
(210,100,o),
(186,154,o),
(186,262,cs),
(186,280,ls),
(186,375,o),
(204,428,o),
(262,428,cs),
(310,428,o),
(332,375,o),
(332,267,cs),
(332,152,o),
(308,100,o),
(263,100,cs)
);
}
);
width = 500;
},
{
anchors = (
{
name = bottom;
pos = (262,0);
},
{
name = center;
pos = (271,375);
},
{
name = top;
pos = (262,760);
}
);
layerId = "98E204A9-1C79-49C7-AB3E-40A925F56409";
shapes = (
{
closed = 1;
nodes = (
(432,-10,o),
(492,95,o),
(492,266,cs),
(492,438,o),
(430,541,o),
(332,541,cs),
(282,541,o),
(242,517,o),
(212,460,c),
(207,460,l),
(210,510,o),
(212,545,o),
(212,566,cs),
(212,625,l),
(442,625,l),
(442,760,l),
(50,760,l),
(50,0,l),
(180,0,l),
(204,54,l),
(212,54,l),
(251,3,o),
(279,-10,o),
(328,-10,cs)
);
},
{
closed = 1;
nodes = (
(230,125,o),
(212,172,o),
(212,265,cs),
(212,285,ls),
(212,368,o),
(230,402,o),
(273,402,cs),
(310,402,o),
(328,359,o),
(328,268,cs),
(328,169,o),
(309,125,o),
(274,125,cs)
);
}
);
width = 524;
}
);
script = latin;
subCategory = Lowercase;
unicode = 387;
}
{
category = Letter;
glyphname = Chook;
layers = (
{
anchors = (
{
name = bottom;
pos = (307,0);
},
{
name = center;
pos = (381,424);
},
{
name = top;
pos = (307,714);
}
);
layerId = "AB666A95-3AF9-4DE8-B258-097FFCFE8A59";
shapes = (
{
closed = 1;
nodes = (
(593,858,o),
(558,825,o),
(558,762,cs),
(558,697,l),
(510,715,o),
(460,724,o),
(405,724,cs),
(191,724,o),
(63,568,o),
(63,360,cs),
(63,139,o),
(174,-10,o),
(386,-10,cs),
(465,-10,o),
(526,4,o),
(570,21,c),
(570,44,l),
(522,27,o),
(463,15,o),
(386,15,cs),
(189,15,o),
(90,153,o),
(90,360,cs),
(90,555,o),
(204,699,o),
(405,699,cs),
(460,699,o),
(516,692,o),
(573,662,c),
(583,687,l),
(583,757,ls),
(583,812,o),
(606,834,o),
(646,834,cs),
(670,834,o),
(689,828,o),
(700,823,c),
(700,849,l),
(690,853,o),
(671,858,o),
(644,858,cs)
);
}
);
width = 614;
},
{
anchors = (
{
name = bottom;
pos = (372,0);
},
{
name = center;
pos = (378,424);
},
{
name = top;
pos = (380,844);
}
);
layerId = "9FF96064-8718-4A86-A5C8-73C592101F67";
shapes = (
{
closed = 1;
nodes = (
(554,858,o),
(521,810,o),
(521,724,cs),
(521,710,l),
(484,719,o),
(444,724,o),
(404,724,cs),
(183,724,o),
(61,574,o),
(61,358,cs),
(61,133,o),
(170,-10,o),
(389,-10,cs),
(468,-10,o),
(520,-1,o),
(573,19,c),
(573,97,l),
(519,81,o),
(464,69,o),
(402,69,cs),
(238,69,o),
(156,180,o),
(156,357,cs),
(156,536,o),
(250,645,o),
(403,645,cs),
(467,645,o),
(517,626,o),
(561,606,c),
(597,684,l),
(597,735,ls),
(597,767,o),
(614,783,o),
(644,783,cs),
(666,783,o),
(687,777,o),
(696,773,c),
(696,845,l),
(682,851,o),
(661,858,o),
(636,858,cs)
);
}
);
width = 632;
},
{
anchors = (
{
name = bottom;
pos = (370,0);
},
{
name = center;
pos = (382,434);
},
{
name = top;
pos = (377,864);
}
);
layerId = "134B12F2-BF5D-48E3-8003-C7502B438C7E";
shapes = (
{
closed = 1;
nodes = (
(550,879,o),
(482,830,o),
(482,723,cs),
(482,713,l),
(454,720,o),
(424,724,o),
(393,724,cs),
(177,724,o),
(58,572,o),
(58,356,cs),
(58,136,o),
(158,-10,o),
(379,-10,cs),
(455,-10,o),
(512,1,o),
(575,27,c),
(575,154,l),
(507,130,o),
(451,116,o),
(393,116,cs),
(268,116,o),
(214,203,o),
(214,355,cs),
(214,505,o),
(277,598,o),
(393,598,cs),
(445,598,o),
(500,576,o),
(553,551,c),
(602,664,l),
(602,704,ls),
(602,744,o),
(620,760,o),
(651,760,cs),
(674,760,o),
(695,754,o),
(706,750,c),
(706,864,l),
(694,870,o),
(666,879,o),
(636,879,cs)
);
}
);
width = 637;
},
{
anchors = (
{
name = bottom;
pos = (379,0);
},
{
name = center;
pos = (382,439);
},
{
name = top;
pos = (365,874);
}
);
layerId = "0A718E2F-231D-484E-9433-16A5230D2CE8";
shapes = (
{
closed = 1;
nodes = (
(536,888,o),
(453,835,o),
(453,712,c),
(453,717,l),
(432,721,o),
(410,724,o),
(388,724,cs),
(168,724,o),
(56,570,o),
(56,355,cs),
(56,135,o),
(150,-10,o),
(376,-10,cs),
(454,-10,o),
(510,2,o),
(580,32,c),
(580,197,l),
(504,169,o),
(448,152,o),
(391,152,cs),
(294,152,o),
(258,221,o),
(258,354,cs),
(258,485,o),
(303,562,o),
(387,562,cs),
(437,562,o),
(492,535,o),
(545,511,c),
(607,655,l),
(607,684,ls),
(607,721,o),
(624,735,o),
(653,735,c),
(676,735,o),
(697,729,o),
(709,725,c),
(709,872,l),
(698,878,o),
(665,888,o),
(633,888,c)
);
}
);
width = 644;
},
{
anchors = (
{
name = bottom;
pos = (207,0);
},
{
name = center;
pos = (257,420);
},
{
name = top;
pos = (207,714);
}
);
layerId = "029FEF0C-5FA4-4A3E-AC23-838A1147A554";
shapes = (
{
closed = 1;
nodes = (
(387,851,o),
(366,830,o),
(366,767,cs),
(366,708,l),
(340,719,o),
(314,724,o),
(285,724,cs),
(117,724,o),
(54,548,o),
(54,358,cs),
(54,131,o),
(147,-10,o),
(289,-10,cs),
(327,-10,o),
(365,1,o),
(390,16,c),
(390,43,l),
(370,31,o),
(334,15,o),
(289,15,cs),
(161,15,o),
(81,154,o),
(81,357,cs),
(81,529,o),
(136,699,o),
(285,699,cs),
(312,699,o),
(346,693,o),
(378,673,c),
(391,696,l),
(391,769,ls),
(391,815,o),
(405,827,o),
(427,827,cs),
(444,827,o),
(456,820,o),
(461,816,c),
(461,842,l),
(451,848,o),
(440,851,o),
(426,851,cs)
);
}
);
width = 413;
},
{
anchors = (
{
name = bottom;
pos = (267,0);
},
{
name = center;
pos = (273,428);
},
{
name = top;
pos = (277,844);
}
);
layerId = "36F3C8CB-53EE-4548-BFDE-2C03212BACAA";
shapes = (
{
closed = 1;
nodes = (
(395,866,o),
(350,834,o),
(350,750,cs),
(350,716,l),
(330,722,o),
(311,725,o),
(289,725,cs),
(128,725,o),
(50,561,o),
(50,358,cs),
(50,127,o),
(141,-10,o),
(287,-10,cs),
(333,-10,o),
(372,-1,o),
(404,17,c),
(404,93,l),
(372,77,o),
(337,66,o),
(297,66,cs),
(199,65,o),
(137,176,o),
(137,357,cs),
(137,512,o),
(182,649,o),
(292,649,cs),
(329,649,o),
(362,637,o),
(392,618,c),
(422,689,l),
(422,738,ls),
(422,783,o),
(436,794,o),
(458,794,cs),
(474,794,o),
(489,787,o),
(496,783,c),
(496,854,l),
(487,860,o),
(470,866,o),
(446,866,cs)
);
}
);
width = 446;
},
{
anchors = (
{
name = bottom;
pos = (277,0);
},
{
name = center;
pos = (290,433);
},
{
name = top;
pos = (287,844);
}
);
layerId = "43B45EC1-5522-4B1A-B0C7-88628E50A583";
shapes = (
{
closed = 1;
nodes = (
(413,877,o),
(349,838,o),
(349,739,cs),
(349,719,l),
(333,722,o),
(316,724,o),
(299,724,cs),
(135,724,o),
(43,569,o),
(43,356,cs),
(43,122,o),
(135,-10,o),
(296,-10,cs),
(350,-10,o),
(397,2,o),
(438,25,c),
(438,147,l),
(399,126,o),
(360,109,o),
(316,109,cs),
(232,109,o),
(185,196,o),
(185,355,cs),
(185,500,o),
(225,606,o),
(309,606,cs),
(350,606,o),
(385,591,o),
(420,567,c),
(459,680,l),
(459,708,ls),
(459,749,o),
(473,762,o),
(495,762,cs),
(513,762,o),
(529,755,o),
(538,751,c),
(538,864,l),
(527,870,o),
(504,877,o),
(473,877,cs)
);
}
);
width = 483;
},
{
anchors = (
{
name = bottom;
pos = (283,0);
},
{
name = center;
pos = (301,437);
},
{
name = top;
pos = (293,854);
}
);
layerId = "98E204A9-1C79-49C7-AB3E-40A925F56409";
shapes = (
{
closed = 1;
nodes = (
(424,885,o),
(348,840,o),
(348,732,cs),
(348,721,l),
(334,723,o),
(320,724,o),
(305,724,cs),
(140,724,o),
(39,575,o),
(39,355,cs),
(39,119,o),
(131,-10,o),
(301,-10,cs),
(360,-10,o),
(413,3,o),
(459,30,c),
(459,182,l),
(416,157,o),
(374,137,o),
(328,137,cs),
(253,137,o),
(216,209,o),
(216,354,cs),
(216,493,o),
(253,578,o),
(320,578,cs),
(363,578,o),
(400,561,o),
(438,534,c),
(483,674,l),
(483,689,ls),
(483,727,o),
(497,741,o),
(519,741,cs),
(538,741,o),
(554,735,o),
(564,731,c),
(564,870,l),
(553,876,o),
(526,885,o),
(490,885,cs)
);
}
);
width = 507;
}
);
script = latin;
subCategory = Uppercase;
unicode = 391;
}
{
category = Letter;
glyphname = Fhook;
layers = (
{
anchors = (
{
name = bottom;
pos = (125,-5);
},
{
name = center;
pos = (296,234);
},
{
name = top;
pos = (415,714);
},
{
name = topright;
pos = (611,714);
}
);
layerId = "AB666A95-3AF9-4DE8-B258-097FFCFE8A59";
shapes = (
{
closed = 1;
nodes = (
(219,-245,o),
(258,-174,o),
(258,-78,cs),
(258,359,l),
(579,359,l),
(579,384,l),
(258,384,l),
(258,689,l),
(598,689,l),
(598,714,l),
(232,714,l),
(232,-77,ls),
(232,-164,o),
(197,-221,o),
(123,-221,cs),
(61,-221,o),
(21,-183,o),
(21,-121,cs),
(21,-91,o),
(27,-73,o),
(31,-62,c),
(4,-53,l),
(-1,-71,o),
(-6,-93,o),
(-6,-120,cs),
(-6,-197,o),
(46,-245,o),
(125,-245,cs)
);
}
);
width = 601;
},
{
anchors = (
{
name = bottom;
pos = (131,0);
},
{
name = center;
pos = (274,236);
},
{
name = top;
pos = (379,714);
},
{
name = topright;
pos = (589,714);
}
);
layerId = "9FF96064-8718-4A86-A5C8-73C592101F67";
shapes = (
{
closed = 1;
nodes = (
(210,-242,o),
(277,-190,o),
(277,-65,cs),
(277,334,l),
(547,334,l),
(547,413,l),
(277,413,l),
(277,635,l),
(566,635,l),
(566,714,l),
(187,714,l),
(187,-56,ls),
(187,-136,o),
(157,-163,o),
(121,-163,cs),
(89,-163,o),
(69,-140,o),
(69,-102,cs),
(69,-91,o),
(70,-82,o),
(72,-73,c),
(-7,-49,l),
(-14,-70,o),
(-17,-90,o),
(-17,-108,cs),
(-17,-190,o),
(32,-242,o),
(121,-242,cs)
);
}
);
width = 589;
},
{
anchors = (
{
name = bottom;
pos = (176,0);
},
{
name = center;
pos = (306,236);
},
{
name = top;
pos = (438,714);
},
{
name = topright;
pos = (669,714);
}
);
layerId = "134B12F2-BF5D-48E3-8003-C7502B438C7E";
shapes = (
{
closed = 1;
nodes = (
(304,-242,o),
(389,-178,o),
(389,-42,cs),
(389,312,l),
(611,312,l),
(611,436,l),
(389,436,l),
(389,590,l),
(629,590,l),
(629,714,l),
(240,714,l),
(240,-38,ls),
(240,-105,o),
(216,-132,o),
(176,-132,cs),
(135,-132,o),
(111,-109,o),
(111,-66,cs),
(111,-53,o),
(114,-37,o),
(123,-20,c),
(10,25,l),
(-5,0,o),
(-17,-31,o),
(-17,-73,cs),
(-17,-182,o),
(58,-242,o),
(176,-242,cs)
);
}
);
width = 679;
},
{
anchors = (
{
name = bottom;
pos = (205,0);
},
{
name = center;
pos = (316,236);
},
{
name = top;
pos = (448,714);
},
{
name = topright;
pos = (679,714);
}
);
layerId = "0A718E2F-231D-484E-9433-16A5230D2CE8";
shapes = (
{
closed = 1;
nodes = (
(337,-242,o),
(437,-177,o),
(437,-32,cs),
(437,285,l),
(627,285,l),
(627,444,l),
(437,444,l),
(437,555,l),
(644,555,l),
(644,714,l),
(247,714,l),
(247,-35,ls),
(247,-82,o),
(226,-106,o),
(193,-106,cs),
(164,-106,o),
(142,-88,o),
(142,-53,cs),
(142,-32,o),
(146,-17,o),
(156,4,c),
(20,52,l),
(3,28,o),
(-12,-7,o),
(-12,-50,cs),
(-12,-167,o),
(66,-242,o),
(213,-242,cs)
);
}
);
width = 704;
},
{
anchors = (
{
name = bottom;
pos = (112,0);
},
{
name = center;
pos = (216,240);
},
{
name = top;
pos = (322,714);
},
{
name = topright;
pos = (456,714);
}
);
layerId = "029FEF0C-5FA4-4A3E-AC23-838A1147A554";
shapes = (
{
closed = 1;
nodes = (
(193,-234,o),
(230,-168,o),
(230,-73,cs),
(230,362,l),
(428,362,l),
(428,387,l),
(230,387,l),
(230,689,l),
(440,689,l),
(440,714,l),
(204,714,l),
(204,-74,ls),
(204,-160,o),
(173,-209,o),
(111,-209,cs),
(53,-209,o),
(20,-168,o),
(20,-103,cs),
(20,-79,o),
(24,-59,o),
(26,-49,c),
(1,-42,l),
(-4,-60,o),
(-7,-80,o),
(-7,-102,cs),
(-7,-186,o),
(41,-234,o),
(112,-234,cs)
);
}
);
width = 458;
},
{
anchors = (
{
name = bottom;
pos = (125,0);
},
{
name = center;
pos = (221,236);
},
{
name = top;
pos = (316,714);
},
{
name = topright;
pos = (465,714);
}
);
layerId = "36F3C8CB-53EE-4548-BFDE-2C03212BACAA";
shapes = (
{
closed = 1;
nodes = (
(212,-242,o),
(264,-178,o),
(264,-79,cs),
(264,335,l),
(432,335,l),
(432,411,l),
(264,411,l),
(264,639,l),
(444,639,l),
(444,714,l),
(179,714,l),
(179,-79,ls),
(179,-140,o),
(159,-171,o),
(120,-171,cs),
(87,-171,o),
(70,-146,o),
(70,-106,cs),
(70,-89,o),
(72,-79,o),
(74,-71,c),
(7,-50,l),
(2,-64,o),
(-2,-84,o),
(-2,-106,cs),
(-2,-190,o),
(45,-242,o),
(125,-242,cs)
);
}
);
width = 467;
},
{
anchors = (
{
name = bottom;
pos = (147,0);
},
{
name = center;
pos = (234,235);
},
{
name = top;
pos = (337,714);
},
{
name = topright;
pos = (511,714);
}
);
layerId = "43B45EC1-5522-4B1A-B0C7-88628E50A583";
shapes = (
{
closed = 1;
nodes = (
(257,-243,o),
(321,-172,o),
(321,-58,cs),
(321,316,l),
(471,316,l),
(471,433,l),
(321,433,l),
(321,597,l),
(484,597,l),
(484,714,l),
(184,714,l),
(184,-58,ls),
(184,-106,o),
(167,-133,o),
(139,-133,cs),
(112,-133,o),
(95,-114,o),
(95,-80,cs),
(95,-64,o),
(97,-53,o),
(101,-42,c),
(-1,-8,l),
(-9,-25,o),
(-15,-54,o),
(-15,-83,cs),
(-15,-183,o),
(41,-243,o),
(147,-243,cs)
);
}
);
width = 515;
},
{
anchors = (
{
name = bottom;
pos = (171,0);
},
{
name = center;
pos = (264,235);
},
{
name = top;
pos = (371,714);
},
{
name = topright;
pos = (556,714);
}
);
layerId = "98E204A9-1C79-49C7-AB3E-40A925F56409";
shapes = (
{
closed = 1;
nodes = (
(293,-243,o),
(379,-179,o),
(379,-44,cs),
(379,303,l),
(518,303,l),
(518,447,l),
(379,447,l),
(379,570,l),
(531,570,l),
(531,714,l),
(209,714,l),
(209,-49,ls),
(209,-83,o),
(196,-108,o),
(172,-108,cs),
(150,-108,o),
(133,-95,o),
(133,-62,cs),
(133,-45,o),
(137,-31,o),
(146,-10,c),
(28,41,l),
(12,18,o),
(-2,-24,o),
(-2,-72,cs),
(-2,-178,o),
(71,-243,o),
(189,-243,cs)
);
}
);
width = 566;
}
);
script = latin;
subCategory = Uppercase;
unicode = 401;
}
{
category = Letter;
glyphname = Ghook;
layers = (
{
anchors = (
{
name = bottom;
pos = (360,0);
},
{
name = center;
pos = (405,424);
},
{
name = top;
pos = (360,714);
}
);
layerId = "AB666A95-3AF9-4DE8-B258-097FFCFE8A59";
shapes = (
{
closed = 1;
nodes = (
(641,858,o),
(606,825,o),
(606,762,cs),
(606,693,l),
(550,716,o),
(490,726,o),
(424,726,cs),
(199,726,o),
(63,566,o),
(63,355,cs),
(63,121,o),
(186,-10,o),
(417,-10,cs),
(496,-10,o),
(575,5,o),
(639,36,c),
(639,350,l),
(367,350,l),
(367,325,l),
(613,325,l),
(613,50,l),
(561,28,o),
(496,15,o),
(419,15,cs),
(219,15,o),
(90,114,o),
(90,356,cs),
(90,554,o),
(216,701,o),
(423,701,cs),
(487,701,o),
(551,690,o),
(619,657,c),
(631,682,l),
(631,757,ls),
(631,812,o),
(654,834,o),
(694,834,cs),
(718,834,o),
(737,828,o),
(748,823,c),
(748,849,l),
(738,853,o),
(719,858,o),
(692,858,cs)
);
}
);
width = 720;
},
{
anchors = (
{
name = bottom;
pos = (404,0);
},
{
name = center;
pos = (402,424);
},
{
name = top;
pos = (432,774);
}
);
layerId = "9FF96064-8718-4A86-A5C8-73C592101F67";
shapes = (
{
closed = 1;
nodes = (
(601,858,o),
(568,810,o),
(568,724,cs),
(568,707,l),
(526,718,o),
(480,724,o),
(431,724,cs),
(197,724,o),
(61,580,o),
(61,357,cs),
(61,131,o),
(181,-10,o),
(403,-10,cs),
(503,-10,o),
(577,2,o),
(654,27,c),
(654,377,l),
(407,377,l),
(407,297,l),
(564,297,l),
(564,85,l),
(528,76,o),
(487,68,o),
(424,68,cs),
(232,68,o),
(155,186,o),
(155,357,cs),
(155,535,o),
(255,645,o),
(426,645,cs),
(494,645,o),
(559,626,o),
(610,604,c),
(644,682,l),
(644,735,ls),
(644,767,o),
(661,783,o),
(691,783,cs),
(713,783,o),
(734,777,o),
(743,773,c),
(743,845,l),
(729,851,o),
(708,858,o),
(683,858,cs)
);
}
);
width = 728;
},
{
anchors = (
{
name = bottom;
pos = (392,0);
},
{
name = center;
pos = (403,434);
},
{
name = top;
pos = (432,844);
}
);
layerId = "134B12F2-BF5D-48E3-8003-C7502B438C7E";
shapes = (
{
closed = 1;
nodes = (
(593,879,o),
(524,831,o),
(524,724,cs),
(524,715,l),
(494,721,o),
(463,724,o),
(431,724,cs),
(191,724,o),
(58,582,o),
(58,358,cs),
(58,118,o),
(177,-10,o),
(390,-10,cs),
(492,-10,o),
(569,6,o),
(644,31,c),
(644,401,l),
(361,401,l),
(361,275,l),
(496,275,l),
(496,126,l),
(470,121,o),
(443,116,o),
(400,116,cs),
(268,116,o),
(214,215,o),
(214,355,cs),
(214,502,o),
(298,598,o),
(430,598,cs),
(491,598,o),
(549,581,o),
(593,559,c),
(644,671,l),
(644,704,ls),
(644,744,o),
(662,760,o),
(693,760,cs),
(716,760,o),
(737,754,o),
(748,750,c),
(748,864,l),
(736,870,o),
(708,879,o),
(678,879,cs)
);
}
);
width = 724;
},
{
anchors = (
{
name = bottom;
pos = (382,0);
},
{
name = center;
pos = (402,439);
},
{
name = top;
pos = (422,864);
}
);
layerId = "0A718E2F-231D-484E-9433-16A5230D2CE8";
shapes = (
{
closed = 1;
nodes = (
(577,888,o),
(493,837,o),
(493,714,c),
(493,722,l),
(473,723,o),
(453,724,o),
(433,724,c),
(191,724,o),
(56,591,o),
(56,359,c),
(56,115,o),
(174,-10,o),
(380,-10,c),
(489,-10,o),
(566,6,o),
(644,30,c),
(644,419,l),
(352,419,l),
(352,258,l),
(452,258,l),
(452,155,l),
(435,156,o),
(420,153,o),
(388,153,c),
(288,153,o),
(258,247,o),
(258,354,c),
(258,479,o),
(328,561,o),
(433,561,c),
(491,561,o),
(547,543,o),
(583,524,c),
(648,666,l),
(648,684,ls),
(648,721,o),
(664,735,o),
(693,735,c),
(716,735,o),
(737,729,o),
(749,725,c),
(749,872,l),
(738,878,o),
(705,888,o),
(673,888,c)
);
}
);
width = 724;
},
{
anchors = (
{
name = bottom;
pos = (259,0);
},
{
name = center;
pos = (290,421);
},
{
name = top;
pos = (259,714);
}
);
layerId = "029FEF0C-5FA4-4A3E-AC23-838A1147A554";
shapes = (
{
closed = 1;
nodes = (
(453,852,o),
(432,831,o),
(432,768,cs),
(432,695,l),
(392,716,o),
(354,724,o),
(314,724,cs),
(138,724,o),
(54,574,o),
(54,354,cs),
(54,143,o),
(132,-10,o),
(308,-10,cs),
(355,-10,o),
(415,1,o),
(464,24,c),
(464,351,l),
(298,351,l),
(298,326,l),
(439,326,l),
(439,40,l),
(402,26,o),
(354,15,o),
(309,15,cs),
(149,15,o),
(80,157,o),
(80,354,cs),
(80,556,o),
(152,699,o),
(314,699,cs),
(355,699,o),
(398,690,o),
(443,658,c),
(457,680,l),
(457,770,ls),
(457,816,o),
(471,828,o),
(493,828,cs),
(510,828,o),
(522,821,o),
(527,817,c),
(527,843,l),
(517,849,o),
(506,852,o),
(492,852,cs)
);
}
);
width = 518;
},
{
anchors = (
{
name = bottom;
pos = (303,0);
},
{
name = center;
pos = (304,428);
},
{
name = top;
pos = (323,814);
}
);
layerId = "36F3C8CB-53EE-4548-BFDE-2C03212BACAA";
shapes = (
{
closed = 1;
nodes = (
(457,866,o),
(412,834,o),
(412,750,cs),
(412,707,l),
(382,719,o),
(352,724,o),
(320,724,cs),
(138,724,o),
(50,572,o),
(50,359,cs),
(50,148,o),
(129,-10,o),
(304,-10,cs),
(369,-10,o),
(432,2,o),
(491,25,c),
(491,377,l),
(308,377,l),
(308,302,l),
(409,302,l),
(409,81,l),
(381,71,o),
(348,66,o),
(311,66,cs),
(188,66,o),
(138,192,o),
(138,357,cs),
(138,547,o),
(202,649,o),
(322,649,cs),
(366,649,o),
(409,635,o),
(453,607,c),
(483,678,l),
(483,738,ls),
(483,783,o),
(497,794,o),
(519,794,cs),
(535,794,o),
(551,787,o),
(558,783,c),
(558,854,l),
(548,860,o),
(531,866,o),
(508,866,cs)
);
}
);
width = 545;
},
{
anchors = (
{
name = bottom;
pos = (317,0);
},
{
name = center;
pos = (317,433);
},
{
name = top;
pos = (337,854);
}
);
layerId = "43B45EC1-5522-4B1A-B0C7-88628E50A583";
shapes = (
{
closed = 1;
nodes = (
(467,877,o),
(403,838,o),
(403,739,cs),
(403,716,l),
(382,721,o),
(360,724,o),
(336,724,cs),
(147,724,o),
(43,582,o),
(43,359,cs),
(43,133,o),
(134,-10,o),
(310,-10,cs),
(384,-10,o),
(455,3,o),
(523,30,c),
(523,402,l),
(300,402,l),
(300,286,l),
(389,286,l),
(389,120,l),
(368,113,o),
(344,109,o),
(319,109,cs),
(227,109,o),
(185,205,o),
(185,355,cs),
(185,517,o),
(238,606,o),
(341,606,cs),
(388,606,o),
(432,592,o),
(473,566,c),
(513,679,l),
(513,708,ls),
(513,749,o),
(527,762,o),
(549,762,cs),
(567,762,o),
(583,755,o),
(592,751,c),
(592,864,l),
(581,870,o),
(558,877,o),
(527,877,cs)
);
}
);
width = 574;
},
{
anchors = (
{
name = bottom;
pos = (317,0);
},
{
name = center;
pos = (326,437);
},
{
name = top;
pos = (347,874);
}
);
layerId = "98E204A9-1C79-49C7-AB3E-40A925F56409";
shapes = (
{
closed = 1;
nodes = (
(474,885,o),
(398,840,o),
(398,732,cs),
(398,721,l),
(382,723,o),
(365,724,o),
(347,724,cs),
(153,724,o),
(39,588,o),
(39,359,cs),
(39,123,o),
(138,-10,o),
(314,-10,cs),
(394,-10,o),
(470,4,o),
(544,33,c),
(544,418,l),
(295,418,l),
(295,276,l),
(377,276,l),
(377,145,l),
(360,140,o),
(342,137,o),
(324,137,cs),
(253,137,o),
(216,213,o),
(216,354,cs),
(216,498,o),
(262,578,o),
(353,578,cs),
(402,578,o),
(447,565,o),
(486,540,c),
(533,679,l),
(533,689,ls),
(533,727,o),
(547,741,o),
(569,741,cs),
(588,741,o),
(604,735,o),
(614,731,c),
(614,870,l),
(603,876,o),
(576,885,o),
(540,885,cs)
);
}
);
width = 593;
}
);
script = latin;
subCategory = Uppercase;
unicode = 403;
}
{
category = Letter;
glyphname = "Gamma-latin";
layers = (
{
anchors = (
{
name = bottom;
pos = (309,-240);
},
{
name = center;
pos = (285,237);
},
{
name = top;
pos = (309,714);
}
);
layerId = "AB666A95-3AF9-4DE8-B258-097FFCFE8A59";
shapes = (
{
closed = 1;
nodes = (
(349,-240,o),
(385,-194,o),
(385,-128,cs),
(385,-49,o),
(349,19,o),
(304,109,c),
(574,714,l),
(544,714,l),
(343,260,ls),
(317,201,o),
(298,158,o),
(288,132,c),
(277,158,o),
(256,204,o),
(231,259,cs),
(27,714,l),
(-3,714,l),
(272,108,l),
(225,19,o),
(187,-56,o),
(187,-128,cs),
(187,-195,o),
(223,-240,o),
(285,-240,cs)
);
},
{
closed = 1;
nodes = (
(243,-215,o),
(214,-185,o),
(214,-126,cs),
(214,-61,o),
(251,9,o),
(288,83,c),
(323,9,o),
(358,-57,o),
(358,-126,cs),
(358,-183,o),
(332,-215,o),
(287,-215,cs)
);
}
);
width = 618;
},
{
anchors = (
{
name = bottom;
pos = (285,-240);
},
{
name = center;
pos = (285,237);
},
{
name = top;
pos = (285,714);
}
);
layerId = "9FF96064-8718-4A86-A5C8-73C592101F67";
shapes = (
{
closed = 1;
nodes = (
(357,-240,o),
(401,-182,o),
(401,-107,cs),
(401,-57,o),
(378,21,o),
(334,108,c),
(570,714,l),
(475,714,l),
(335,343,ls),
(313,284,o),
(294,232,o),
(285,185,c),
(275,232,o),
(257,282,o),
(235,341,cs),
(94,714,l),
(0,714,l),
(236,107,l),
(200,35,o),
(169,-48,o),
(169,-107,cs),
(169,-183,o),
(213,-240,o),
(285,-240,cs)
);
},
{
closed = 1;
nodes = (
(265,-162,o),
(251,-144,o),
(251,-103,cs),
(251,-74,o),
(260,-25,o),
(285,25,c),
(309,-21,o),
(319,-75,o),
(319,-105,cs),
(319,-145,o),
(306,-162,o),
(285,-162,cs)
);
}
);
width = 570;
},
{
anchors = (
{
name = bottom;
pos = (325,-240);
},
{
name = center;
pos = (325,237);
},
{
name = top;
pos = (325,714);
}
);
layerId = "134B12F2-BF5D-48E3-8003-C7502B438C7E";
shapes = (
{
closed = 1;
nodes = (
(411,-240,o),
(462,-178,o),
(462,-97,cs),
(462,-38,o),
(435,39,o),
(393,123,c),
(650,714,l),
(494,714,l),
(366,402,l),
(351,366,o),
(329,305,o),
(319,264,c),
(310,304,o),
(288,374,o),
(277,403,cs),
(156,714,l),
(0,714,l),
(244,125,l),
(205,39,o),
(178,-30,o),
(178,-96,cs),
(178,-182,o),
(227,-240,o),
(319,-240,cs)
);
},
{
closed = 1;
nodes = (
(300,-151,o),
(286,-134,o),
(286,-95,cs),
(286,-68,o),
(296,-19,o),
(320,25,c),
(343,-20,o),
(354,-69,o),
(354,-97,cs),
(354,-135,o),
(341,-151,o),
(320,-151,cs)
);
}
);
width = 650;
},
{
anchors = (
{
name = bottom;
pos = (336,-240);
},
{
name = center;
pos = (343,237);
},
{
name = top;
pos = (336,714);
}
);
layerId = "0A718E2F-231D-484E-9433-16A5230D2CE8";
shapes = (
{
closed = 1;
nodes = (
(445,-240,o),
(508,-169,o),
(508,-70,cs),
(508,13,o),
(466,84,o),
(427,150,c),
(686,714,l),
(480,714,l),
(373,441,ls),
(356,399,o),
(346,370,o),
(335,325,c),
(326,369,o),
(317,398,o),
(301,443,cs),
(206,714,l),
(0,714,l),
(239,153,l),
(201,79,o),
(163,7,o),
(163,-69,cs),
(163,-174,o),
(223,-240,o),
(334,-240,cs)
);
},
{
closed = 1;
nodes = (
(317,-106,o),
(307,-91,o),
(307,-61,cs),
(307,-30,o),
(317,4,o),
(335,35,c),
(354,1,o),
(364,-33,o),
(364,-60,cs),
(364,-92,o),
(353,-106,o),
(335,-106,cs)
);
}
);
width = 672;
},
{
anchors = (
{
name = bottom;
pos = (180,-242);
},
{
name = center;
pos = (179,236);
},
{
name = top;
pos = (180,714);
}
);
layerId = "029FEF0C-5FA4-4A3E-AC23-838A1147A554";
shapes = (
{
closed = 1;
nodes = (
(230,-242,o),
(249,-193,o),
(249,-130,cs),
(249,-59,o),
(228,5,o),
(191,120,c),
(359,714,l),
(334,714,l),
(195,223,ls),
(189,203,o),
(184,179,o),
(179,159,c),
(175,179,o),
(169,203,o),
(163,223,cs),
(25,714,l),
(0,714,l),
(168,119,l),
(145,54,o),
(112,-41,o),
(112,-129,cs),
(112,-190,o),
(129,-242,o),
(182,-242,cs)
);
},
{
closed = 1;
nodes = (
(145,-221,o),
(136,-176,o),
(136,-127,cs),
(136,-53,o),
(153,3,o),
(179,85,c),
(210,-10,o),
(225,-64,o),
(225,-126,cs),
(225,-176,o),
(217,-221,o),
(182,-221,cs)
);
}
);
width = 359;
},
{
anchors = (
{
name = bottom;
pos = (221,-240);
},
{
name = center;
pos = (220,237);
},
{
name = top;
pos = (221,714);
}
);
layerId = "36F3C8CB-53EE-4548-BFDE-2C03212BACAA";
shapes = (
{
closed = 1;
nodes = (
(297,-240,o),
(329,-189,o),
(329,-102,cs),
(329,-38,o),
(302,38,o),
(269,124,c),
(441,714,l),
(353,714,l),
(248,335,ls),
(237,296,o),
(226,237,o),
(220,192,c),
(212,240,o),
(200,304,o),
(189,346,cs),
(88,714,l),
(0,714,l),
(171,122,l),
(142,46,o),
(113,-36,o),
(113,-103,cs),
(113,-191,o),
(146,-240,o),
(220,-240,cs)
);
},
{
closed = 1;
nodes = (
(202,-177,o),
(189,-155,o),
(189,-104,cs),
(189,-64,o),
(200,-11,o),
(222,54,c),
(242,-9,o),
(254,-64,o),
(254,-107,cs),
(254,-157,o),
(242,-177,o),
(222,-177,cs)
);
}
);
width = 441;
},
{
anchors = (
{
name = bottom;
pos = (257,-240);
},
{
name = center;
pos = (256,237);
},
{
name = top;
pos = (257,714);
}
);
layerId = "43B45EC1-5522-4B1A-B0C7-88628E50A583";
shapes = (
{
closed = 1;
nodes = (
(359,-240,o),
(401,-182,o),
(401,-86,cs),
(401,-30,o),
(374,49,o),
(332,135,c),
(513,714,l),
(371,714,l),
(285,411,ls),
(271,366,o),
(261,295,o),
(256,246,c),
(251,288,o),
(239,372,o),
(227,417,cs),
(143,714,l),
(0,714,l),
(180,137,l),
(141,55,o),
(114,-23,o),
(114,-87,cs),
(114,-186,o),
(156,-240,o),
(257,-240,cs)
);
},
{
closed = 1;
nodes = (
(242,-153,o),
(229,-135,o),
(229,-96,cs),
(229,-61,o),
(236,-11,o),
(258,41,c),
(279,-11,o),
(288,-61,o),
(288,-98,cs),
(288,-136,o),
(276,-153,o),
(258,-153,cs)
);
}
);
width = 513;
},
{
anchors = (
{
name = bottom;
pos = (280,-240);
},
{
name = center;
pos = (280,237);
},
{
name = top;
pos = (280,714);
}
);
layerId = "98E204A9-1C79-49C7-AB3E-40A925F56409";
shapes = (
{
closed = 1;
nodes = (
(398,-240,o),
(448,-178,o),
(448,-76,cs),
(448,-25,o),
(420,56,o),
(372,142,c),
(560,714,l),
(382,714,l),
(308,460,ls),
(293,410,o),
(283,332,o),
(279,281,c),
(276,318,o),
(264,416,o),
(251,462,cs),
(178,714,l),
(0,714,l),
(185,146,l),
(141,61,o),
(114,-15,o),
(114,-77,cs),
(114,-183,o),
(162,-240,o),
(280,-240,cs)
);
},
{
closed = 1;
nodes = (
(266,-138,o),
(254,-122,o),
(254,-90,cs),
(254,-58,o),
(259,-11,o),
(281,33,c),
(302,-13,o),
(309,-60,o),
(309,-92,cs),
(309,-123,o),
(297,-138,o),
(281,-138,cs)
);
}
);
width = 560;
}
);
script = latin;
subCategory = Uppercase;
unicode = 404;
}
{
category = Letter;
glyphname = Khook;
layers = (
{
anchors = (
{
name = bottom;
pos = (279,0);
},
{
name = center;
pos = (357,360);
},
{
name = top;
pos = (279,714);
}
);
layerId = "AB666A95-3AF9-4DE8-B258-097FFCFE8A59";
shapes = (
{
closed = 1;
nodes = (
(530,720,o),
(497,694,o),
(440,638,cs),
(179,376,ls),
(161,358,o),
(144,341,o),
(129,324,c),
(129,714,l),
(103,714,l),
(103,0,l),
(129,0,l),
(129,293,l),
(234,398,l),
(524,0,l),
(558,0,l),
(254,417,l),
(473,636,ls),
(510,672,o),
(541,695,o),
(577,695,cs),
(592,695,o),
(603,692,o),
(611,689,c),
(611,714,l),
(603,717,o),
(592,720,o),
(578,720,cs)
);
}
);
width = 618;
},
{
anchors = (
{
name = bottom;
pos = (310,0);
},
{
name = center;
pos = (358,360);
},
{
name = top;
pos = (310,714);
}
);
layerId = "9FF96064-8718-4A86-A5C8-73C592101F67";
shapes = (
{
closed = 1;
nodes = (
(509,720,o),
(482,712,o),
(432,651,cs),
(310,501,ls),
(271,453,o),
(222,398,o),
(187,354,c),
(187,714,l),
(97,714,l),
(97,0,l),
(187,0,l),
(187,265,l),
(266,342,l),
(513,0,l),
(619,0,l),
(327,405,l),
(491,599,l),
(525,640,o),
(542,645,o),
(559,645,cs),
(571,645,o),
(594,644,o),
(603,642,c),
(603,712,l),
(591,717,o),
(576,720,o),
(553,720,cs)
);
}
);
width = 619;
},
{
anchors = (
{
name = bottom;
pos = (332,0);
},
{
name = center;
pos = (377,362);
},
{
name = top;
pos = (332,714);
}
);
layerId = "134B12F2-BF5D-48E3-8003-C7502B438C7E";
shapes = (
{
closed = 1;
nodes = (
(498,725,o),
(446,665,o),
(386,584,cs),
(305,476,l),
(284,446,o),
(262,415,o),
(241,385,c),
(241,714,l),
(90,714,l),
(90,0,l),
(241,0,l),
(241,255,l),
(305,301,l),
(492,0,l),
(664,0,l),
(412,398,l),
(532,557,ls),
(552,583,o),
(578,600,o),
(606,600,cs),
(626,600,o),
(643,595,o),
(654,591,c),
(654,710,l),
(639,717,o),
(614,725,o),
(579,725,cs)
);
}
);
width = 664;
},
{
anchors = (
{
name = bottom;
pos = (351,0);
},
{
name = center;
pos = (393,363);
},
{
name = top;
pos = (351,714);
}
);
layerId = "0A718E2F-231D-484E-9433-16A5230D2CE8";
shapes = (
{
closed = 1;
nodes = (
(487,727,o),
(425,651,o),
(369,558,cs),
(339,508,ls),
(320,476,o),
(298,436,o),
(281,404,c),
(281,714,l),
(85,714,l),
(85,0,l),
(281,0,l),
(281,238,l),
(332,267,l),
(479,0,l),
(701,0,l),
(471,392,l),
(555,528,ls),
(568,548,o),
(595,568,o),
(624,568,c),
(646,568,o),
(665,562,o),
(677,557,c),
(677,708,l),
(659,717,o),
(628,727,o),
(585,727,c)
);
}
);
width = 701;
},
{
anchors = (
{
name = bottom;
pos = (193,0);
},
{
name = center;
pos = (240,360);
},
{
name = top;
pos = (193,714);
}
);
layerId = "029FEF0C-5FA4-4A3E-AC23-838A1147A554";
shapes = (
{
closed = 1;
nodes = (
(357,720,o),
(338,711,o),
(303,652,cs),
(160,414,ls),
(132,368,o),
(112,336,o),
(104,318,c),
(104,714,l),
(78,714,l),
(78,0,l),
(104,0,l),
(104,282,l),
(165,376,l),
(352,0,l),
(380,0,l),
(182,401,l),
(324,639,ls),
(351,684,o),
(362,696,o),
(381,696,cs),
(389,696,o),
(397,694,o),
(402,691,c),
(402,716,l),
(395,719,o),
(389,720,o),
(381,720,cs)
);
}
);
width = 416;
},
{
anchors = (
{
name = bottom;
pos = (227,0);
},
{
name = center;
pos = (268,361);
},
{
name = top;
pos = (227,714);
}
);
layerId = "36F3C8CB-53EE-4548-BFDE-2C03212BACAA";
shapes = (
{
closed = 1;
nodes = (
(369,722,o),
(344,701,o),
(305,630,cs),
(211,459,ls),
(191,423,o),
(172,388,o),
(157,353,c),
(157,714,l),
(73,714,l),
(73,0,l),
(157,0,l),
(157,270,l),
(208,330,l),
(357,0,l),
(451,0,l),
(265,398,l),
(377,597,ls),
(399,636,o),
(412,647,o),
(430,647,cs),
(444,647,o),
(457,643,o),
(464,640,c),
(464,713,l),
(453,718,o),
(435,722,o),
(415,722,cs)
);
}
);
width = 473;
},
{
anchors = (
{
name = bottom;
pos = (263,0);
},
{
name = center;
pos = (295,362);
},
{
name = top;
pos = (263,714);
}
);
layerId = "43B45EC1-5522-4B1A-B0C7-88628E50A583";
shapes = (
{
closed = 1;
nodes = (
(389,724,o),
(357,691,o),
(313,609,cs),
(244,481,ls),
(226,447,o),
(210,415,o),
(201,384,c),
(201,714,l),
(64,714,l),
(64,0,l),
(201,0,l),
(201,251,l),
(245,291,l),
(366,0,l),
(518,0,l),
(342,396,l),
(432,560,ls),
(450,593,o),
(464,606,o),
(486,606,cs),
(503,606,o),
(517,601,o),
(526,597,c),
(526,711,l),
(512,717,o),
(486,724,o),
(459,724,cs)
);
}
);
width = 536;
},
{
anchors = (
{
name = bottom;
pos = (286,0);
},
{
name = center;
pos = (313,363);
},
{
name = top;
pos = (286,714);
}
);
layerId = "98E204A9-1C79-49C7-AB3E-40A925F56409";
shapes = (
{
closed = 1;
nodes = (
(403,726,o),
(366,685,o),
(319,596,cs),
(266,495,ls),
(249,462,o),
(235,432,o),
(229,404,c),
(229,714,l),
(59,714,l),
(59,0,l),
(229,0,l),
(229,239,l),
(269,266,l),
(373,0,l),
(561,0,l),
(392,394,l),
(469,536,ls),
(484,566,o),
(499,580,o),
(523,580,cs),
(541,580,o),
(557,574,o),
(567,569,c),
(567,709,l),
(551,717,o),
(520,726,o),
(488,726,cs)
);
}
);
width = 582;
}
);
script = latin;
subCategory = Uppercase;
unicode = 408;
}
{
category = Letter;
glyphname = ohorn;
kernLeft = o.right;
kernRight = o.hornleft;
layers = (
{
anchors = (
{
name = bottom;
pos = (318,0);
},
{
name = center;
pos = (400,312);
},
{
name = top;
pos = (321,553);
}
);
layerId = "0A718E2F-231D-484E-9433-16A5230D2CE8";
shapes = (
{
closed = 1;
nodes = (
(594,324,o),
(588,364,o),
(576,400,c),
(709,435,o),
(740,523,o),
(758,624,c),
(751,635,l),
(567,635,l),
(567,563,o),
(548,512,o),
(516,497,c),
(468,541,o),
(395,563,o),
(320,563,cs),
(147,563,o),
(42,461,o),
(42,278,cs),
(42,93,o),
(157,-10,o),
(317,-10,cs),
(489,-10,o),
(594,93,o),
(594,278,cs)
);
},
{
closed = 1;
nodes = (
(237,368,o),
(260,411,o),
(318,411,cs),
(377,411,o),
(400,368,o),
(400,278,cs),
(400,188,o),
(376,142,o),
(319,142,cs),
(260,142,o),
(237,188,o),
(237,278,cs)
);
}
);
width = 722;
},
{
anchors = (
{
name = bottom;
pos = (257,0);
},
{
name = center;
pos = (328,312);
},
{
name = top;
pos = (259,553);
}
);
layerId = "98E204A9-1C79-49C7-AB3E-40A925F56409";
shapes = (
{
closed = 1;
nodes = (
(483,318,o),
(479,354,o),
(470,387,c),
(555,407,o),
(608,466,o),
(624,624,c),
(619,635,l),
(469,635,l),
(469,572,o),
(459,501,o),
(419,490,c),
(380,538,o),
(324,563,o),
(259,563,cs),
(116,563,o),
(32,458,o),
(32,278,cs),
(32,102,o),
(119,-10,o),
(257,-10,cs),
(401,-10,o),
(483,99,o),
(483,278,cs)
);
},
{
closed = 1;
nodes = (
(196,380,o),
(215,428,o),
(258,428,cs),
(303,428,o),
(319,379,o),
(319,278,cs),
(319,176,o),
(303,125,o),
(258,125,cs),
(215,125,o),
(196,177,o),
(196,276,cs)
);
}
);
width = 585;
},
{
anchors = (
{
name = bottom;
pos = (301,0);
},
{
name = center;
pos = (350,304);
},
{
name = top;
pos = (303,536);
}
);
layerId = "9FF96064-8718-4A86-A5C8-73C592101F67";
shapes = (
{
closed = 1;
nodes = (
(551,330,o),
(538,382,o),
(517,424,c),
(594,452,o),
(628,515,o),
(646,607,c),
(639,618,l),
(545,618,l),
(545,551,o),
(538,495,o),
(478,477,c),
(435,521,o),
(374,546,o),
(304,546,cs),
(150,546,o),
(55,446,o),
(55,269,cs),
(55,91,o),
(159,-10,o),
(301,-10,cs),
(454,-10,o),
(551,91,o),
(551,269,cs)
);
},
{
closed = 1;
nodes = (
(146,403,o),
(192,472,o),
(302,472,cs),
(412,472,o),
(460,403,o),
(460,269,cs),
(460,134,o),
(413,63,o),
(303,63,cs),
(193,63,o),
(146,134,o),
(146,269,cs)
);
}
);
width = 616;
},
{
anchors = (
{
name = bottom;
pos = (308,0);
},
{
name = center;
pos = (385,309);
},
{
name = top;
pos = (310,546);
}
);
layerId = "134B12F2-BF5D-48E3-8003-C7502B438C7E";
shapes = (
{
closed = 1;
nodes = (
(574,326,o),
(565,371,o),
(549,410,c),
(671,442,o),
(705,520,o),
(725,617,c),
(718,628,l),
(571,628,l),
(571,558,o),
(551,505,o),
(498,489,c),
(452,533,o),
(384,556,o),
(311,556,cs),
(146,556,o),
(45,455,o),
(45,274,cs),
(45,92,o),
(155,-10,o),
(308,-10,cs),
(472,-10,o),
(574,92,o),
(574,274,cs)
);
},
{
closed = 1;
nodes = (
(197,382,o),
(230,436,o),
(309,436,cs),
(389,436,o),
(422,382,o),
(422,274,cs),
(422,166,o),
(389,110,o),
(310,110,cs),
(230,110,o),
(197,166,o),
(197,274,cs)
);
}
);
width = 679;
},
{
anchors = (
{
name = bottom;
pos = (221,0);
},
{
name = center;
pos = (266,302);
},
{
name = top;
pos = (223,537);
}
);
layerId = "36F3C8CB-53EE-4548-BFDE-2C03212BACAA";
shapes = (
{
closed = 1;
nodes = (
(403,328,o),
(396,377,o),
(381,418,c),
(446,440,o),
(482,492,o),
(490,603,c),
(483,615,l),
(409,615,l),
(408,541,o),
(395,490,o),
(354,474,c),
(323,522,o),
(278,547,o),
(223,547,cs),
(105,547,o),
(42,452,o),
(42,269,cs),
(42,92,o),
(108,-10,o),
(221,-10,cs),
(338,-10,o),
(403,91,o),
(403,269,cs)
);
},
{
closed = 1;
nodes = (
(125,407,o),
(154,476,o),
(223,476,cs),
(290,476,o),
(321,407,o),
(321,269,cs),
(321,130,o),
(290,60,o),
(223,60,cs),
(158,60,o),
(125,130,o),
(125,269,cs)
);
}
);
width = 466;
},
{
anchors = (
{
name = bottom;
pos = (243,0);
},
{
name = center;
pos = (304,308);
},
{
name = top;
pos = (246,547);
}
);
layerId = "43B45EC1-5522-4B1A-B0C7-88628E50A583";
shapes = (
{
closed = 1;
nodes = (
(452,322,o),
(447,363,o),
(436,399,c),
(512,420,o),
(559,476,o),
(572,616,c),
(566,627,l),
(446,627,l),
(445,560,o),
(434,497,o),
(394,484,c),
(358,532,o),
(306,557,o),
(245,557,cs),
(112,557,o),
(36,455,o),
(36,275,cs),
(36,98,o),
(115,-10,o),
(243,-10,cs),
(377,-10,o),
(452,96,o),
(452,275,cs)
);
},
{
closed = 1;
nodes = (
(168,391,o),
(191,447,o),
(244,447,cs),
(298,447,o),
(319,390,o),
(319,275,cs),
(319,158,o),
(298,100,o),
(244,100,cs),
(192,100,o),
(168,159,o),
(168,273,cs)
);
}
);
width = 538;
},
{
anchors = (
{
name = bottom;
pos = (284,0);
},
{
name = center;
pos = (310,300);
},
{
name = top;
pos = (284,528);
}
);
layerId = "AB666A95-3AF9-4DE8-B258-097FFCFE8A59";
shapes = (
{
closed = 1;
nodes = (
(515,333,o),
(501,395,o),
(473,442,c),
(523,464,o),
(560,510,o),
(561,605,c),
(556,610,l),
(534,610,l),
(534,517,o),
(500,480,o),
(459,464,c),
(423,510,o),
(369,538,o),
(292,538,cs),
(145,538,o),
(59,432,o),
(59,264,cs),
(59,107,o),
(134,-10,o),
(286,-10,cs),
(443,-10,o),
(515,109,o),
(515,264,cs)
);
},
{
closed = 1;
nodes = (
(86,420,o),
(160,513,o),
(292,513,cs),
(433,513,o),
(488,402,o),
(488,264,cs),
(488,119,o),
(426,15,o),
(286,15,cs),
(151,15,o),
(86,117,o),
(86,264,cs)
);
}
);
width = 568;
},
{
anchors = (
{
name = bottom;
pos = (200,0);
},
{
name = center;
pos = (232,305);
},
{
name = top;
pos = (200,527);
}
);
layerId = "029FEF0C-5FA4-4A3E-AC23-838A1147A554";
shapes = (
{
closed = 1;
nodes = (
(357,338,o),
(349,399,o),
(330,445,c),
(390,475,o),
(413,537,o),
(418,607,c),
(409,621,l),
(390,621,l),
(387,544,o),
(368,488,o),
(321,466,c),
(296,512,o),
(258,537,o),
(202,537,cs),
(96,537,o),
(46,444,o),
(46,266,cs),
(46,80,o),
(100,-10,o),
(204,-10,cs),
(306,-10,o),
(357,77,o),
(357,264,cs)
);
},
{
closed = 1;
nodes = (
(72,424,o),
(110,512,o),
(202,512,cs),
(298,512,o),
(331,418,o),
(331,265,cs),
(331,94,o),
(291,15,o),
(203,15,cs),
(113,15,o),
(72,102,o),
(72,266,cs)
);
}
);
width = 400;
}
);
script = latin;
subCategory = Lowercase;
unicode = 417;
}
{
category = Letter;
glyphname = phook;
layers = (
{
anchors = (
{
name = bottom;
pos = (292,-232);
},
{
name = center;
pos = (309,266);
},
{
name = top;
pos = (292,765);
}
);
layerId = "AB666A95-3AF9-4DE8-B258-097FFCFE8A59";
shapes = (
{
closed = 1;
nodes = (
(136,765,o),
(92,713,o),
(92,625,cs),
(92,-232,l),
(118,-232,l),
(118,-15,ls),
(118,27,o),
(118,71,o),
(116,116,c),
(118,116,l),
(140,46,o),
(199,-10,o),
(304,-10,cs),
(445,-10,o),
(527,91,o),
(527,269,cs),
(527,445,o),
(454,538,o),
(314,538,cs),
(204,538,o),
(140,476,o),
(118,406,c),
(116,406,l),
(117,439,o),
(118,493,o),
(118,525,cs),
(118,622,ls),
(118,704,o),
(151,740,o),
(218,740,cs),
(245,740,o),
(266,736,o),
(281,731,c),
(281,757,l),
(267,761,o),
(246,765,o),
(218,765,cs)
);
},
{
closed = 1;
nodes = (
(436,513,o),
(500,434,o),
(500,269,cs),
(500,101,o),
(427,15,o),
(304,15,cs),
(190,15,o),
(119,92,o),
(119,262,cs),
(119,265,ls),
(119,421,o),
(186,513,o),
(314,513,cs)
);
}
);
width = 583;
},
{
anchors = (
{
name = bottom;
pos = (308,-240);
},
{
name = center;
pos = (322,262);
},
{
name = top;
pos = (308,765);
}
);
layerId = "9FF96064-8718-4A86-A5C8-73C592101F67";
shapes = (
{
closed = 1;
nodes = (
(125,765,o),
(85,717,o),
(85,625,cs),
(85,-240,l),
(173,-240,l),
(173,-20,ls),
(173,5,o),
(169,45,o),
(167,68,c),
(173,68,l),
(204,26,o),
(256,-10,o),
(339,-10,cs),
(472,-10,o),
(560,86,o),
(560,269,cs),
(560,454,o),
(472,546,o),
(340,546,cs),
(253,546,o),
(205,509,o),
(173,463,c),
(167,463,l),
(169,486,o),
(173,526,o),
(173,551,cs),
(173,631,ls),
(173,673,o),
(190,689,o),
(220,689,cs),
(242,689,o),
(263,683,o),
(272,679,c),
(272,752,l),
(258,758,o),
(232,765,o),
(207,765,cs)
);
},
{
closed = 1;
nodes = (
(423,472,o),
(469,392,o),
(469,270,cs),
(469,150,o),
(423,63,o),
(326,63,cs),
(209,63,o),
(173,137,o),
(173,269,cs),
(173,286,ls),
(175,411,o),
(215,472,o),
(324,472,cs)
);
}
);
width = 615;
},
{
anchors = (
{
name = bottom;
pos = (317,-240);
},
{
name = center;
pos = (333,262);
},
{
name = top;
pos = (317,765);
}
);
layerId = "134B12F2-BF5D-48E3-8003-C7502B438C7E";
shapes = (
{
closed = 1;
nodes = (
(149,765,o),
(78,716,o),
(78,593,cs),
(78,-240,l),
(227,-240,l),
(227,-22,ls),
(227,6,o),
(226,31,o),
(222,57,c),
(228,57,l),
(257,20,o),
(303,-10,o),
(382,-10,cs),
(505,-10,o),
(588,88,o),
(588,274,cs),
(588,459,o),
(504,556,o),
(382,556,cs),
(304,556,o),
(255,520,o),
(227,475,c),
(221,475,l),
(224,507,o),
(227,536,o),
(227,562,cs),
(227,591,ls),
(227,628,o),
(245,646,o),
(276,646,cs),
(299,646,o),
(320,640,o),
(331,636,c),
(331,750,l),
(317,756,o),
(287,765,o),
(253,765,cs)
);
},
{
closed = 1;
nodes = (
(404,437,o),
(436,383,o),
(436,276,cs),
(436,169,o),
(404,111,o),
(336,111,cs),
(253,111,o),
(227,169,o),
(227,275,cs),
(227,291,ls),
(229,389,o),
(256,437,o),
(334,437,cs)
);
}
);
width = 633;
},
{
anchors = (
{
name = bottom;
pos = (325,-240);
},
{
name = center;
pos = (342,262);
},
{
name = top;
pos = (325,765);
}
);
layerId = "0A718E2F-231D-484E-9433-16A5230D2CE8";
shapes = (
{
closed = 1;
nodes = (
(154,765,o),
(73,716,o),
(73,578,c),
(73,-240,l),
(267,-240,l),
(267,-15,ls),
(267,13,o),
(266,39,o),
(262,46,c),
(269,46,l),
(294,20,o),
(334,-10,o),
(412,-10,c),
(523,-10,o),
(611,81,o),
(611,278,c),
(611,465,o),
(524,563,o),
(411,563,c),
(338,563,o),
(294,525,o),
(267,486,c),
(261,486,l),
(264,522,o),
(267,540,o),
(267,567,c),
(267,573,l),
(267,601,o),
(282,612,o),
(304,612,c),
(326,612,o),
(349,604,o),
(354,602,c),
(354,748,l),
(342,754,o),
(307,765,o),
(270,765,c)
);
},
{
closed = 1;
nodes = (
(392,410,o),
(413,367,o),
(413,282,c),
(413,186,o),
(390,146,o),
(345,146,c),
(287,146,o),
(267,194,o),
(267,280,c),
(267,296,ls),
(270,374,o),
(287,410,o),
(342,410,c)
);
}
);
width = 650;
},
{
anchors = (
{
name = bottom;
pos = (212,-232);
},
{
name = center;
pos = (224,267);
},
{
name = top;
pos = (212,766);
}
);
layerId = "029FEF0C-5FA4-4A3E-AC23-838A1147A554";
shapes = (
{
closed = 1;
nodes = (
(98,766,o),
(71,741,o),
(71,669,cs),
(71,-232,l),
(97,-232,l),
(97,37,ls),
(97,69,o),
(96,95,o),
(95,107,c),
(98,107,l),
(111,53,o),
(146,-10,o),
(225,-10,cs),
(317,-10,o),
(378,75,o),
(378,270,cs),
(378,450,o),
(326,537,o),
(228,537,cs),
(143,537,o),
(110,472,o),
(93,404,c),
(91,404,l),
(95,436,o),
(97,464,o),
(97,499,cs),
(97,666,ls),
(97,717,o),
(110,741,o),
(142,741,cs),
(153,741,o),
(162,739,o),
(173,734,c),
(173,760,l),
(165,763,o),
(155,766,o),
(140,766,cs)
);
},
{
closed = 1;
nodes = (
(313,512,o),
(353,424,o),
(353,270,cs),
(353,79,o),
(294,15,o),
(226,15,cs),
(152,15,o),
(97,98,o),
(97,219,cs),
(97,292,ls),
(97,416,o),
(145,512,o),
(227,512,cs)
);
}
);
width = 423;
},
{
anchors = (
{
name = bottom;
pos = (231,-240);
},
{
name = center;
pos = (243,262);
},
{
name = top;
pos = (231,765);
}
);
layerId = "36F3C8CB-53EE-4548-BFDE-2C03212BACAA";
shapes = (
{
closed = 1;
nodes = (
(102,765,o),
(65,714,o),
(65,624,cs),
(65,-240,l),
(146,-240,l),
(146,0,ls),
(146,20,o),
(144,44,o),
(142,72,c),
(146,72,l),
(171,20,o),
(216,-10,o),
(268,-10,cs),
(366,-10,o),
(421,92,o),
(421,269,cs),
(421,454,o),
(366,547,o),
(263,547,cs),
(215,547,o),
(175,522,o),
(146,464,c),
(141,464,l),
(144,484,o),
(146,503,o),
(146,520,cs),
(146,620,ls),
(146,675,o),
(157,692,o),
(188,692,cs),
(199,692,o),
(211,689,o),
(223,684,c),
(223,756,l),
(212,761,o),
(192,765,o),
(175,765,cs)
);
},
{
closed = 1;
nodes = (
(312,477,o),
(338,407,o),
(338,268,cs),
(338,127,o),
(308,61,o),
(246,61,cs),
(178,61,o),
(146,124,o),
(146,265,cs),
(146,285,ls),
(146,417,o),
(178,477,o),
(245,477,cs)
);
}
);
width = 462;
},
{
anchors = (
{
name = bottom;
pos = (250,-240);
},
{
name = center;
pos = (260,262);
},
{
name = top;
pos = (250,765);
}
);
layerId = "43B45EC1-5522-4B1A-B0C7-88628E50A583";
shapes = (
{
closed = 1;
nodes = (
(107,765,o),
(56,700,o),
(56,591,cs),
(56,-240,l),
(186,-240,l),
(186,-21,ls),
(186,-1,o),
(185,30,o),
(182,72,c),
(187,72,l),
(215,16,o),
(257,-10,o),
(307,-10,cs),
(405,-10,o),
(464,96,o),
(464,272,cs),
(464,454,o),
(406,557,o),
(303,557,cs),
(254,557,o),
(220,539,o),
(187,475,c),
(180,475,l),
(184,500,o),
(186,524,o),
(186,541,cs),
(186,585,ls),
(186,632,o),
(199,651,o),
(230,651,cs),
(243,651,o),
(256,648,o),
(271,642,c),
(271,754,l),
(256,760,o),
(222,765,o),
(201,765,cs)
);
},
{
closed = 1;
nodes = (
(310,447,o),
(332,389,o),
(332,271,cs),
(332,158,o),
(309,103,o),
(262,103,cs),
(210,103,o),
(186,151,o),
(186,260,cs),
(186,287,ls),
(186,399,o),
(209,447,o),
(262,447,cs)
);
}
);
width = 500;
},
{
anchors = (
{
name = bottom;
pos = (262,-240);
},
{
name = center;
pos = (271,262);
},
{
name = top;
pos = (262,765);
}
);
layerId = "98E204A9-1C79-49C7-AB3E-40A925F56409";
shapes = (
{
closed = 1;
nodes = (
(110,765,o),
(50,691,o),
(50,570,cs),
(50,-240,l),
(212,-240,l),
(212,-35,ls),
(212,-14,o),
(210,21,o),
(207,71,c),
(212,71,l),
(242,14,o),
(282,-10,o),
(332,-10,cs),
(430,-10,o),
(492,98,o),
(492,275,cs),
(492,454,o),
(431,563,o),
(328,563,cs),
(279,563,o),
(249,550,o),
(212,482,c),
(204,482,l),
(209,510,o),
(212,537,o),
(212,554,cs),
(212,562,ls),
(212,604,o),
(226,625,o),
(256,625,cs),
(270,625,o),
(285,622,o),
(301,616,c),
(301,753,l),
(283,759,o),
(241,765,o),
(217,765,cs)
);
},
{
closed = 1;
nodes = (
(309,428,o),
(328,378,o),
(328,273,cs),
(328,177,o),
(310,129,o),
(273,129,cs),
(230,129,o),
(212,168,o),
(212,256,cs),
(212,288,ls),
(212,388,o),
(230,428,o),
(274,428,cs)
);
}
);
width = 524;
}
);
script = latin;
subCategory = Lowercase;
unicode = 421;
}
{
category = Letter;
glyphname = Zstroke;
layers = (
{
anchors = (
{
name = bottom;
pos = (289,0);
},
{
name = center;
pos = (287,357);
},
{
name = top;
pos = (289,714);
}
);
layerId = "AB666A95-3AF9-4DE8-B258-097FFCFE8A59";
shapes = (
{
closed = 1;
nodes = (
(82,357,l),
(265,357,l),
(36,18,l),
(36,0,l),
(538,0,l),
(538,25,l),
(73,25,l),
(297,357,l),
(489,357,l),
(489,382,l),
(314,382,l),
(526,696,l),
(526,714,l),
(64,714,l),
(64,689,l),
(489,689,l),
(282,382,l),
(82,382,l)
);
}
);
width = 578;
},
{
anchors = (
{
name = bottom;
pos = (286,0);
},
{
name = center;
pos = (285,357);
},
{
name = top;
pos = (286,714);
}
);
layerId = "9FF96064-8718-4A86-A5C8-73C592101F67";
shapes = (
{
closed = 1;
nodes = (
(79,336,l),
(216,336,l),
(38,68,l),
(38,0,l),
(533,0,l),
(533,80,l),
(147,80,l),
(317,336,l),
(486,336,l),
(486,407,l),
(364,407,l),
(523,646,l),
(523,714,l),
(50,714,l),
(50,634,l),
(414,634,l),
(263,407,l),
(79,407,l)
);
}
);
width = 572;
},
{
anchors = (
{
name = bottom;
pos = (290,0);
},
{
name = center;
pos = (289,357);
},
{
name = top;
pos = (290,714);
}
);
layerId = "134B12F2-BF5D-48E3-8003-C7502B438C7E";
shapes = (
{
closed = 1;
nodes = (
(62,291,l),
(159,291,l),
(24,98,l),
(24,0,l),
(555,0,l),
(555,125,l),
(204,125,l),
(319,291,l),
(499,291,l),
(499,415,l),
(406,415,l),
(546,616,l),
(546,714,l),
(33,714,l),
(33,589,l),
(366,589,l),
(245,415,l),
(62,415,l)
);
}
);
width = 579;
},
{
anchors = (
{
name = bottom;
pos = (290,0);
},
{
name = center;
pos = (290,357);
},
{
name = top;
pos = (290,714);
}
);
layerId = "0A718E2F-231D-484E-9433-16A5230D2CE8";
shapes = (
{
closed = 1;
nodes = (
(59,273,l),
(124,273,l),
(17,125,l),
(17,0,l),
(564,0,l),
(564,160,l),
(248,160,l),
(329,273,l),
(510,273,l),
(510,434,l),
(443,434,l),
(555,589,l),
(555,714,l),
(21,714,l),
(21,554,l),
(325,554,l),
(237,434,l),
(59,434,l)
);
}
);
width = 580;
},
{
anchors = (
{
name = bottom;
pos = (162,0);
},
{
name = center;
pos = (165,357);
},
{
name = top;
pos = (162,714);
}
);
layerId = "029FEF0C-5FA4-4A3E-AC23-838A1147A554";
shapes = (
{
closed = 1;
nodes = (
(68,363,l),
(151,363,l),
(28,24,l),
(28,0,l),
(303,0,l),
(303,25,l),
(57,25,l),
(179,363,l),
(269,363,l),
(269,388,l),
(188,388,l),
(296,689,l),
(296,714,l),
(40,714,l),
(40,689,l),
(269,689,l),
(160,388,l),
(68,388,l)
);
}
);
width = 323;
},
{
anchors = (
{
name = bottom;
pos = (181,0);
},
{
name = center;
pos = (183,357);
},
{
name = top;
pos = (181,714);
}
);
layerId = "36F3C8CB-53EE-4548-BFDE-2C03212BACAA";
shapes = (
{
closed = 1;
nodes = (
(47,340,l),
(129,340,l),
(26,65,l),
(26,0,l),
(341,0,l),
(341,76,l),
(115,76,l),
(214,340,l),
(326,340,l),
(326,408,l),
(244,408,l),
(335,648,l),
(335,714,l),
(30,714,l),
(30,638,l),
(244,638,l),
(159,408,l),
(47,408,l)
);
}
);
width = 361;
},
{
anchors = (
{
name = bottom;
pos = (214,0);
},
{
name = center;
pos = (215,357);
},
{
name = top;
pos = (214,714);
}
);
layerId = "43B45EC1-5522-4B1A-B0C7-88628E50A583";
shapes = (
{
closed = 1;
nodes = (
(43,321,l),
(125,321,l),
(23,98,l),
(23,0,l),
(407,0,l),
(407,119,l),
(170,119,l),
(262,321,l),
(391,321,l),
(391,424,l),
(314,424,l),
(401,616,l),
(401,714,l),
(27,714,l),
(27,596,l),
(254,596,l),
(177,424,l),
(43,424,l)
);
}
);
width = 428;
},
{
anchors = (
{
name = bottom;
pos = (236,0);
},
{
name = center;
pos = (235,357);
},
{
name = top;
pos = (236,714);
}
);
layerId = "98E204A9-1C79-49C7-AB3E-40A925F56409";
shapes = (
{
closed = 1;
nodes = (
(40,309,l),
(122,309,l),
(21,119,l),
(21,0,l),
(450,0,l),
(450,146,l),
(206,146,l),
(292,309,l),
(433,309,l),
(433,434,l),
(359,434,l),
(444,595,l),
(444,714,l),
(26,714,l),
(26,570,l),
(260,570,l),
(188,434,l),
(40,434,l)
);
}
);
width = 471;
}
);
script = latin;
subCategory = Uppercase;
unicode = 437;
}
{
category = Letter;
glyphname = ezhreversed;
layers = (
{
anchors = (
{
name = bottom;
pos = (219,-240);
},
{
name = center;
pos = (220,144);
},
{
name = top;
pos = (219,528);
}
);
layerId = "AB666A95-3AF9-4DE8-B258-097FFCFE8A59";
shapes = (
{
closed = 1;
nodes = (
(316,-240,o),
(368,-228,o),
(415,-208,c),
(415,-180,l),
(367,-203,o),
(311,-215,o),
(249,-215,cs),
(122,-215,o),
(52,-143,o),
(52,-27,cs),
(52,103,o),
(134,170,o),
(309,170,cs),
(347,170,l),
(347,192,l),
(84,503,l),
(403,503,l),
(403,528,l),
(45,528,l),
(45,508,l),
(312,195,l),
(111,195,o),
(25,109,o),
(25,-29,cs),
(25,-159,o),
(106,-240,o),
(249,-240,cs)
);
}
);
width = 437;
},
{
anchors = (
{
name = bottom;
pos = (249,-240);
},
{
name = center;
pos = (259,148);
},
{
name = top;
pos = (249,536);
}
);
layerId = "9FF96064-8718-4A86-A5C8-73C592101F67";
shapes = (
{
closed = 1;
nodes = (
(378,-240,o),
(441,-227,o),
(484,-205,c),
(484,-125,l),
(440,-146,o),
(373,-167,o),
(295,-167,cs),
(192,-167,o),
(122,-104,o),
(122,-9,cs),
(122,111,o),
(203,158,o),
(324,158,cs),
(383,158,l),
(383,219,l),
(164,462,l),
(470,462,l),
(470,536,l),
(61,536,l),
(61,472,l),
(280,228,l),
(144,219,o),
(34,146,o),
(34,-11,cs),
(34,-141,o),
(130,-240,o),
(288,-240,cs)
);
}
);
width = 498;
},
{
anchors = (
{
name = bottom;
pos = (291,-240);
},
{
name = center;
pos = (291,153);
},
{
name = top;
pos = (291,546);
}
);
layerId = "134B12F2-BF5D-48E3-8003-C7502B438C7E";
shapes = (
{
closed = 1;
nodes = (
(413,-240,o),
(482,-225,o),
(543,-199,c),
(543,-73,l),
(479,-104,o),
(404,-120,o),
(343,-120,cs),
(232,-120,o),
(190,-63,o),
(190,9,cs),
(190,82,o),
(233,139,o),
(385,139,cs),
(443,139,l),
(443,245,l),
(250,432,l),
(538,432,l),
(538,546,l),
(66,546,l),
(66,449,l),
(277,247,l),
(106,222,o),
(39,125,o),
(39,0,cs),
(39,-142,o),
(134,-240,o),
(322,-240,cs)
);
}
);
width = 581;
},
{
anchors = (
{
name = bottom;
pos = (318,-240);
},
{
name = center;
pos = (313,156);
},
{
name = top;
pos = (318,553);
}
);
layerId = "0A718E2F-231D-484E-9433-16A5230D2CE8";
shapes = (
{
closed = 1;
nodes = (
(443,-240,o),
(518,-225,o),
(586,-196,c),
(586,-34,l),
(519,-67,o),
(431,-86,o),
(372,-86,c),
(263,-86,o),
(236,-32,o),
(236,18,c),
(236,73,o),
(269,122,o),
(420,122,c),
(476,122,l),
(476,258,l),
(304,407,l),
(582,407,l),
(582,553,l),
(66,553,l),
(66,428,l),
(263,262,l),
(98,227,o),
(40,125,o),
(40,6,c),
(41,-135,o),
(134,-239,o),
(344,-240,c)
);
}
);
width = 635;
},
{
anchors = (
{
name = bottom;
pos = (150,-242);
},
{
name = center;
pos = (157,142);
},
{
name = top;
pos = (150,527);
}
);
layerId = "029FEF0C-5FA4-4A3E-AC23-838A1147A554";
shapes = (
{
closed = 1;
nodes = (
(233,-242,o),
(260,-228,o),
(280,-215,c),
(280,-185,l),
(256,-204,o),
(226,-217,o),
(192,-217,cs),
(104,-217,o),
(62,-131,o),
(62,-6,cs),
(62,116,o),
(103,185,o),
(199,185,cs),
(225,185,l),
(225,202,l),
(74,502,l),
(257,502,l),
(257,527,l),
(46,527,l),
(46,506,l),
(194,209,l),
(85,208,o),
(35,127,o),
(35,-8,cs),
(35,-129,o),
(74,-242,o),
(192,-242,cs)
);
}
);
width = 300;
},
{
anchors = (
{
name = bottom;
pos = (186,-240);
},
{
name = center;
pos = (193,148);
},
{
name = top;
pos = (186,537);
}
);
layerId = "36F3C8CB-53EE-4548-BFDE-2C03212BACAA";
shapes = (
{
closed = 1;
nodes = (
(298,-240,o),
(332,-223,o),
(355,-210,c),
(355,-131,l),
(328,-147,o),
(294,-166,o),
(242,-166,cs),
(158,-166,o),
(115,-102,o),
(115,6,cs),
(115,109,o),
(161,159,o),
(252,159,cs),
(285,159,l),
(285,219,l),
(141,467,l),
(335,467,l),
(335,537,l),
(48,537,l),
(48,480,l),
(199,224,l),
(97,215,o),
(32,147,o),
(32,8,cs),
(32,-137,o),
(102,-240,o),
(239,-240,cs)
);
}
);
width = 371;
},
{
anchors = (
{
name = bottom;
pos = (216,-240);
},
{
name = center;
pos = (225,153);
},
{
name = top;
pos = (216,547);
}
);
layerId = "43B45EC1-5522-4B1A-B0C7-88628E50A583";
shapes = (
{
closed = 1;
nodes = (
(349,-240,o),
(395,-220,o),
(421,-207,c),
(421,-86,l),
(389,-104,o),
(344,-123,o),
(287,-123,cs),
(206,-123,o),
(161,-75,o),
(161,14,cs),
(161,103,o),
(210,140,o),
(305,140,cs),
(341,140,l),
(341,234,l),
(203,437,l),
(405,437,l),
(405,547,l),
(50,547,l),
(50,459,l),
(204,238,l),
(103,226,o),
(29,163,o),
(29,20,cs),
(29,-140,o),
(121,-240,o),
(275,-240,cs)
);
}
);
width = 432;
},
{
anchors = (
{
name = bottom;
pos = (235,-240);
},
{
name = center;
pos = (244,156);
},
{
name = top;
pos = (235,553);
}
);
layerId = "98E204A9-1C79-49C7-AB3E-40A925F56409";
shapes = (
{
closed = 1;
nodes = (
(381,-240,o),
(434,-219,o),
(463,-205,c),
(463,-58,l),
(426,-76,o),
(375,-95,o),
(315,-95,cs),
(236,-95,o),
(190,-58,o),
(190,19,cs),
(190,100,o),
(241,128,o),
(337,128,cs),
(375,128,l),
(375,243,l),
(241,418,l),
(449,418,l),
(449,553,l),
(50,553,l),
(50,446,l),
(206,247,l),
(106,233,o),
(26,173,o),
(26,28,cs),
(26,-143,o),
(132,-240,o),
(297,-240,cs)
);
}
);
width = 470;
}
);
script = latin;
subCategory = Lowercase;
unicode = 441;
}
{
category = Letter;
glyphname = glottalinvertedstroke;
layers = (
{
anchors = (
{
name = bottom;
pos = (220,0);
},
{
name = center;
pos = (223,324);
},
{
name = top;
pos = (220,659);
}
);
layerId = "AB666A95-3AF9-4DE8-B258-097FFCFE8A59";
shapes = (
{
closed = 1;
nodes = (
(339,-10,o),
(395,55,o),
(395,141,cs),
(395,239,o),
(315,263,o),
(245,286,cs),
(202,300,o),
(178,317,o),
(178,402,cs),
(178,503,l),
(350,503,l),
(350,528,l),
(178,528,l),
(178,659,l),
(157,659,l),
(151,528,l),
(71,525,l),
(71,503,l),
(152,503,l),
(152,397,ls),
(152,299,o),
(183,280,o),
(235,263,cs),
(298,242,o),
(368,226,o),
(368,138,cs),
(368,69,o),
(329,15,o),
(201,15,cs),
(140,15,o),
(95,26,o),
(52,44,c),
(52,15,l),
(78,4,o),
(129,-10,o),
(202,-10,cs)
);
}
);
width = 439;
},
{
anchors = (
{
name = bottom;
pos = (232,0);
},
{
name = center;
pos = (227,324);
},
{
name = top;
pos = (232,659);
}
);
layerId = "9FF96064-8718-4A86-A5C8-73C592101F67";
shapes = (
{
closed = 1;
nodes = (
(335,-10,o),
(418,44,o),
(418,148,cs),
(418,229,o),
(363,268,o),
(271,302,cs),
(236,314,o),
(224,330,o),
(224,376,cs),
(224,468,l),
(379,468,l),
(379,536,l),
(224,536,l),
(224,659,l),
(172,659,l),
(137,545,l),
(45,510,l),
(45,468,l),
(136,468,l),
(136,378,ls),
(136,296,o),
(161,261,o),
(219,237,cs),
(309,200,o),
(333,178,o),
(333,140,cs),
(333,92,o),
(295,61,o),
(206,61,cs),
(143,61,o),
(78,83,o),
(36,104,c),
(36,24,l),
(77,2,o),
(129,-10,o),
(204,-10,cs)
);
}
);
width = 463;
},
{
anchors = (
{
name = bottom;
pos = (249,0);
},
{
name = center;
pos = (247,326);
},
{
name = top;
pos = (249,662);
}
);
layerId = "134B12F2-BF5D-48E3-8003-C7502B438C7E";
shapes = (
{
closed = 1;
nodes = (
(395,-10,o),
(459,64,o),
(459,157,cs),
(459,258,o),
(389,286,o),
(316,329,cs),
(282,349,o),
(271,361,o),
(271,399,cs),
(271,434,l),
(409,434,l),
(409,546,l),
(271,546,l),
(271,662,l),
(176,662,l),
(133,547,l),
(36,497,l),
(36,434,l),
(131,434,l),
(131,394,ls),
(131,288,o),
(181,258,o),
(239,223,cs),
(279,199,o),
(314,189,o),
(314,153,cs),
(314,117,o),
(284,99,o),
(213,99,cs),
(154,99,o),
(79,124,o),
(36,147,c),
(36,24,l),
(79,3,o),
(158,-10,o),
(226,-10,cs)
);
}
);
width = 497;
},
{
anchors = (
{
name = bottom;
pos = (260,0);
},
{
name = center;
pos = (253,326);
},
{
name = top;
pos = (260,663);
}
);
layerId = "0A718E2F-231D-484E-9433-16A5230D2CE8";
shapes = (
{
closed = 1;
nodes = (
(421,-10,o),
(484,73,o),
(484,174,cs),
(484,253,o),
(434,293,o),
(364,326,cs),
(318,348,o),
(305,363,o),
(305,391,cs),
(305,409,l),
(435,409,l),
(435,553,l),
(305,553,l),
(305,663,l),
(179,663,l),
(127,551,l),
(22,488,l),
(22,409,l),
(124,409,l),
(124,376,ls),
(124,285,o),
(161,249,o),
(245,212,cs),
(279,197,o),
(296,186,o),
(296,165,cs),
(296,140,o),
(278,128,o),
(228,128,cs),
(159,128,o),
(73,157,o),
(31,182,c),
(31,30,l),
(78,6,o),
(169,-10,o),
(236,-10,cs)
);
}
);
width = 519;
},
{
anchors = (
{
name = bottom;
pos = (136,0);
},
{
name = center;
pos = (124,323);
},
{
name = top;
pos = (136,656);
}
);
layerId = "029FEF0C-5FA4-4A3E-AC23-838A1147A554";
shapes = (
{
closed = 1;
nodes = (
(185,-10,o),
(230,36,o),
(230,125,cs),
(230,183,o),
(211,221,o),
(165,283,cs),
(128,333,o),
(104,357,o),
(104,426,cs),
(104,502,l),
(203,502,l),
(203,527,l),
(104,527,l),
(104,656,l),
(83,656,l),
(76,528,l),
(28,521,l),
(28,502,l),
(78,502,l),
(78,423,ls),
(78,356,o),
(99,328,o),
(130,285,cs),
(161,242,o),
(203,200,o),
(203,124,cs),
(203,55,o),
(169,15,o),
(101,15,cs),
(69,15,o),
(38,24,o),
(18,38,c),
(18,9,l),
(39,-4,o),
(73,-10,o),
(102,-10,cs)
);
}
);
width = 272;
},
{
anchors = (
{
name = bottom;
pos = (165,0);
},
{
name = center;
pos = (156,324);
},
{
name = top;
pos = (165,658);
}
);
layerId = "36F3C8CB-53EE-4548-BFDE-2C03212BACAA";
shapes = (
{
closed = 1;
nodes = (
(239,-10,o),
(291,49,o),
(292,137,cs),
(292,203,o),
(276,241,o),
(219,303,cs),
(183,342,o),
(170,371,o),
(170,412,cs),
(170,469,l),
(267,469,l),
(267,537,l),
(170,537,l),
(170,658,l),
(115,658,l),
(92,535,l),
(29,513,l),
(29,469,l),
(90,469,l),
(90,404,ls),
(90,349,o),
(100,311,o),
(142,270,cs),
(188,221,o),
(209,187,o),
(209,142,cs),
(209,91,o),
(180,64,o),
(133,64,cs),
(93,64,o),
(57,73,o),
(21,94,c),
(21,14,l),
(54,-2,o),
(94,-10,o),
(144,-10,cs)
);
}
);
width = 330;
},
{
anchors = (
{
name = bottom;
pos = (191,0);
},
{
name = center;
pos = (185,326);
},
{
name = top;
pos = (191,662);
}
);
layerId = "43B45EC1-5522-4B1A-B0C7-88628E50A583";
shapes = (
{
closed = 1;
nodes = (
(287,-10,o),
(347,55,o),
(347,150,cs),
(348,228,o),
(327,268,o),
(267,321,cs),
(231,352,o),
(222,375,o),
(222,400,cs),
(222,439,l),
(325,439,l),
(325,547,l),
(222,547,l),
(222,662,l),
(134,662,l),
(102,543,l),
(28,509,l),
(28,439,l),
(93,439,l),
(93,389,ls),
(93,334,o),
(104,295,o),
(152,257,cs),
(195,221,o),
(215,197,o),
(215,162,cs),
(215,126,o),
(193,107,o),
(151,107,cs),
(114,107,o),
(70,115,o),
(24,142,c),
(24,20,l),
(67,-2,o),
(115,-10,o),
(178,-10,cs)
);
}
);
width = 381;
},
{
anchors = (
{
name = bottom;
pos = (207,0);
},
{
name = center;
pos = (205,327);
},
{
name = top;
pos = (207,664);
}
);
layerId = "98E204A9-1C79-49C7-AB3E-40A925F56409";
shapes = (
{
closed = 1;
nodes = (
(319,-10,o),
(384,59,o),
(384,158,cs),
(384,244,o),
(361,285,o),
(299,332,cs),
(263,359,o),
(257,378,o),
(257,392,cs),
(257,420,l),
(363,420,l),
(363,553,l),
(257,553,l),
(257,664,l),
(147,664,l),
(109,548,l),
(29,506,l),
(29,420,l),
(97,420,l),
(97,380,ls),
(97,324,o),
(108,284,o),
(160,249,cs),
(200,222,o),
(220,203,o),
(220,175,cs),
(220,149,o),
(202,134,o),
(163,134,cs),
(128,134,o),
(80,142,o),
(27,172,c),
(27,23,l),
(77,-1,o),
(129,-10,o),
(201,-10,cs)
);
}
);
width = 414;
}
);
script = latin;
subCategory = Lowercase;
unicode = 446;
}
{
category = Letter;
glyphname = Lbar;
layers = (
{
anchors = (
{
name = bottom;
pos = (283,0);
},
{
name = top;
pos = (116,714);
}
);
layerId = "AB666A95-3AF9-4DE8-B258-097FFCFE8A59";
shapes = (
{
closed = 1;
nodes = (
(327,330,l),
(327,355,l),
(7,355,l),
(7,330,l)
);
},
{
alignment = -1;
ref = L;
}
);
width = 506;
},
{
anchors = (
{
name = bottom;
pos = (300,0);
},
{
name = top;
pos = (140,714);
}
);
layerId = "9FF96064-8718-4A86-A5C8-73C592101F67";
shapes = (
{
closed = 1;
nodes = (
(357,332,l),
(357,403,l),
(10,403,l),
(10,332,l)
);
},
{
alignment = -1;
ref = L;
}
);
width = 524;
},
{
anchors = (
{
name = bottom;
pos = (308,0);
},
{
name = top;
pos = (164,714);
}
);
layerId = "134B12F2-BF5D-48E3-8003-C7502B438C7E";
shapes = (
{
closed = 1;
nodes = (
(357,291,l),
(357,415,l),
(23,415,l),
(23,291,l)
);
},
{
alignment = -1;
ref = L;
}
);
width = 565;
},
{
anchors = (
{
name = bottom;
pos = (309,0);
},
{
name = top;
pos = (170,714);
}
);
layerId = "0A718E2F-231D-484E-9433-16A5230D2CE8";
shapes = (
{
closed = 1;
nodes = (
(407,280,l),
(407,432,l),
(11,432,l),
(11,280,l)
);
},
{
alignment = -1;
ref = L;
}
);
width = 582;
},
{
anchors = (
{
name = bottom;
pos = (191,0);
},
{
name = top;
pos = (90,714);
}
);
layerId = "029FEF0C-5FA4-4A3E-AC23-838A1147A554";
shapes = (
{
closed = 1;
nodes = (
(230,363,l),
(230,388,l),
(7,388,l),
(7,363,l)
);
},
{
alignment = -1;
ref = L;
}
);
width = 341;
},
{
anchors = (
{
name = bottom;
pos = (216,0);
},
{
name = top;
pos = (115,714);
}
);
layerId = "36F3C8CB-53EE-4548-BFDE-2C03212BACAA";
shapes = (
{
closed = 1;
nodes = (
(278,328,l),
(278,384,l),
(9,384,l),
(9,328,l)
);
},
{
alignment = -1;
ref = L;
}
);
width = 371;
},
{
anchors = (
{
name = bottom;
pos = (229,0);
},
{
name = top;
pos = (134,714);
}
);
layerId = "43B45EC1-5522-4B1A-B0C7-88628E50A583";
shapes = (
{
closed = 1;
nodes = (
(320,325,l),
(320,402,l),
(9,402,l),
(9,325,l)
);
},
{
alignment = -1;
ref = L;
}
);
width = 406;
},
{
anchors = (
{
name = bottom;
pos = (238,0);
},
{
name = top;
pos = (146,714);
}
);
layerId = "98E204A9-1C79-49C7-AB3E-40A925F56409";
shapes = (
{
closed = 1;
nodes = (
(347,322,l),
(347,413,l),
(10,413,l),
(10,322,l)
);
},
{
alignment = -1;
ref = L;
}
);
width = 428;
}
);
metricWidth = "=L";
script = latin;
subCategory = Uppercase;
unicode = 573;
}
{
category = Letter;
glyphname = Ubar;
layers = (
{
anchors = (
{
name = bottom;
pos = (356,0);
},
{
name = top;
pos = (356,714);
}
);
layerId = "AB666A95-3AF9-4DE8-B258-097FFCFE8A59";
shapes = (
{
closed = 1;
nodes = (
(698,386,l),
(698,411,l),
(13,411,l),
(13,386,l)
);
},
{
alignment = -1;
ref = U;
}
);
width = 712;
},
{
anchors = (
{
name = bottom;
pos = (364,0);
},
{
name = top;
pos = (366,714);
}
);
layerId = "9FF96064-8718-4A86-A5C8-73C592101F67";
shapes = (
{
closed = 1;
nodes = (
(721,354,l),
(721,432,l),
(10,432,l),
(10,354,l)
);
},
{
alignment = -1;
ref = U;
}
);
width = 731;
},
{
anchors = (
{
name = bottom;
pos = (376,0);
},
{
name = top;
pos = (378,714);
}
);
layerId = "134B12F2-BF5D-48E3-8003-C7502B438C7E";
shapes = (
{
closed = 1;
nodes = (
(756,331,l),
(756,455,l),
(0,455,l),
(0,331,l)
);
},
{
alignment = -1;
ref = U;
}
);
width = 756;
},
{
anchors = (
{
name = bottom;
pos = (377,0);
},
{
name = top;
pos = (379,714);
}
);
layerId = "0A718E2F-231D-484E-9433-16A5230D2CE8";
shapes = (
{
closed = 1;
nodes = (
(760,312,l),
(760,473,l),
(-2,473,l),
(-2,312,l)
);
},
{
alignment = -1;
ref = U;
}
);
width = 757;
},
{
anchors = (
{
name = bottom;
pos = (243,0);
},
{
name = top;
pos = (243,714);
}
);
layerId = "029FEF0C-5FA4-4A3E-AC23-838A1147A554";
shapes = (
{
closed = 1;
nodes = (
(472,363,l),
(472,388,l),
(14,388,l),
(14,363,l)
);
},
{
alignment = -1;
ref = U;
}
);
width = 486;
},
{
anchors = (
{
name = bottom;
pos = (263,0);
},
{
name = top;
pos = (261,714);
}
);
layerId = "36F3C8CB-53EE-4548-BFDE-2C03212BACAA";
shapes = (
{
closed = 1;
nodes = (
(517,358,l),
(517,423,l),
(6,423,l),
(6,358,l)
);
},
{
alignment = -1;
ref = U;
}
);
width = 522;
},
{
anchors = (
{
name = bottom;
pos = (281,0);
},
{
name = top;
pos = (281,714);
}
);
layerId = "43B45EC1-5522-4B1A-B0C7-88628E50A583";
shapes = (
{
closed = 1;
nodes = (
(560,336,l),
(560,438,l),
(2,438,l),
(2,336,l)
);
},
{
alignment = -1;
ref = U;
}
);
width = 562;
},
{
anchors = (
{
name = bottom;
pos = (291,0);
},
{
name = top;
pos = (294,714);
}
);
layerId = "98E204A9-1C79-49C7-AB3E-40A925F56409";
shapes = (
{
closed = 1;
nodes = (
(588,322,l),
(588,447,l),
(0,447,l),
(0,322,l)
);
},
{
alignment = -1;
ref = U;
}
);
width = 588;
}
);
metricWidth = "=U";
script = latin;
subCategory = Uppercase;
unicode = 580;
}
{
category = Letter;
glyphname = Ystroke;
layers = (
{
anchors = (
{
name = bottom;
pos = (253,0);
},
{
name = top;
pos = (253,714);
}
);
layerId = "AB666A95-3AF9-4DE8-B258-097FFCFE8A59";
shapes = (
{
closed = 1;
nodes = (
(10,581,l),
(10,556,l),
(492,556,l),
(492,581,l)
);
},
{
alignment = -1;
ref = Y;
}
);
width = 505;
},
{
anchors = (
{
name = bottom;
pos = (283,0);
},
{
name = top;
pos = (283,714);
}
);
layerId = "9FF96064-8718-4A86-A5C8-73C592101F67";
shapes = (
{
closed = 1;
nodes = (
(10,586,l),
(10,508,l),
(556,508,l),
(556,586,l)
);
},
{
alignment = -1;
ref = Y;
}
);
width = 566;
},
{
anchors = (
{
name = bottom;
pos = (312,0);
},
{
name = top;
pos = (312,714);
}
);
layerId = "134B12F2-BF5D-48E3-8003-C7502B438C7E";
shapes = (
{
closed = 1;
nodes = (
(0,619,l),
(0,522,l),
(624,522,l),
(624,619,l)
);
},
{
alignment = -1;
ref = Y;
}
);
width = 624;
},
{
anchors = (
{
name = bottom;
pos = (332,0);
},
{
name = top;
pos = (332,714);
}
);
layerId = "0A718E2F-231D-484E-9433-16A5230D2CE8";
shapes = (
{
closed = 1;
nodes = (
(-5,638,l),
(-5,514,l),
(673,514,l),
(673,638,l)
);
},
{
alignment = -1;
ref = Y;
}
);
width = 667;
},
{
anchors = (
{
name = bottom;
pos = (158,0);
},
{
name = top;
pos = (158,714);
}
);
layerId = "029FEF0C-5FA4-4A3E-AC23-838A1147A554";
shapes = (
{
closed = 1;
nodes = (
(0,566,l),
(0,542,l),
(310,542,l),
(310,566,l)
);
},
{
alignment = -1;
ref = Y;
}
);
width = 315;
},
{
anchors = (
{
name = bottom;
pos = (196,0);
},
{
name = top;
pos = (196,714);
}
);
layerId = "36F3C8CB-53EE-4548-BFDE-2C03212BACAA";
shapes = (
{
closed = 1;
nodes = (
(5,582,l),
(5,528,l),
(387,528,l),
(387,582,l)
);
},
{
alignment = -1;
ref = Y;
}
);
width = 392;
},
{
anchors = (
{
name = bottom;
pos = (237,0);
},
{
name = top;
pos = (237,714);
}
);
layerId = "43B45EC1-5522-4B1A-B0C7-88628E50A583";
shapes = (
{
closed = 1;
nodes = (
(5,592,l),
(5,516,l),
(469,516,l),
(469,592,l)
);
},
{
alignment = -1;
ref = Y;
}
);
width = 474;
},
{
anchors = (
{
name = bottom;
pos = (263,0);
},
{
name = top;
pos = (263,714);
}
);
layerId = "98E204A9-1C79-49C7-AB3E-40A925F56409";
shapes = (
{
closed = 1;
nodes = (
(5,598,l),
(5,508,l),
(521,508,l),
(521,598,l)
);
},
{
alignment = -1;
ref = Y;
}
);
width = 526;
}
);
script = latin;
subCategory = Uppercase;
unicode = 590;
}
{
category = Letter;
glyphname = ccurl;
layers = (
{
anchors = (
{
name = bottom;
pos = (247,0);
},
{
name = center;
pos = (257,250);
},
{
name = top;
pos = (247,528);
}
);
layerId = "AB666A95-3AF9-4DE8-B258-097FFCFE8A59";
shapes = (
{
closed = 1;
nodes = (
(157,538,o),
(59,422,o),
(59,261,cs),
(59,189,o),
(76,125,o),
(110,77,c),
(91,44,o),
(76,6,o),
(67,-32,c),
(92,-38,l),
(101,-4,o),
(112,29,o),
(128,56,c),
(168,15,o),
(225,-10,o),
(302,-10,cs),
(404,-10,o),
(455,37,o),
(455,100,cs),
(455,160,o),
(404,201,o),
(325,201,cs),
(237,201,o),
(168,158,o),
(126,101,c),
(98,144,o),
(86,200,o),
(86,261,cs),
(86,409,o),
(175,513,o),
(319,513,cs),
(357,513,o),
(397,507,o),
(437,489,c),
(442,514,l),
(405,530,o),
(367,538,o),
(319,538,cs)
);
},
{
closed = 1;
nodes = (
(390,176,o),
(428,145,o),
(428,98,cs),
(428,54,o),
(388,15,o),
(302,15,cs),
(231,15,o),
(177,40,o),
(142,80,c),
(182,137,o),
(247,176,o),
(323,176,cs)
);
}
);
width = 494;
},
{
anchors = (
{
name = bottom;
pos = (266,0);
},
{
name = center;
pos = (268,248);
},
{
name = top;
pos = (266,536);
}
);
layerId = "9FF96064-8718-4A86-A5C8-73C592101F67";
shapes = (
{
closed = 1;
nodes = (
(169,546,o),
(62,463,o),
(62,265,cs),
(62,195,o),
(75,139,o),
(100,97,c),
(80,63,o),
(62,24,o),
(48,-18,c),
(115,-49,l),
(126,-16,o),
(139,13,o),
(152,38,c),
(194,5,o),
(249,-10,o),
(313,-10,cs),
(397,-10,o),
(489,31,o),
(489,132,cs),
(489,204,o),
(432,254,o),
(336,254,cs),
(273,254,o),
(213,226,o),
(163,177,c),
(156,203,o),
(153,232,o),
(153,266,cs),
(153,400,o),
(204,469,o),
(311,469,cs),
(348,469,o),
(395,456,o),
(427,444,c),
(454,517,l),
(422,533,o),
(367,546,o),
(313,546,cs)
);
},
{
closed = 1;
nodes = (
(386,181,o),
(406,155,o),
(406,130,cs),
(406,89,o),
(366,63,o),
(312,63,cs),
(262,63,o),
(224,79,o),
(198,109,c),
(240,161,o),
(286,181,o),
(330,181,cs)
);
}
);
width = 531;
},
{
anchors = (
{
name = bottom;
pos = (275,0);
},
{
name = center;
pos = (281,251);
},
{
name = top;
pos = (275,546);
}
);
layerId = "134B12F2-BF5D-48E3-8003-C7502B438C7E";
shapes = (
{
closed = 1;
nodes = (
(156,556,o),
(45,471,o),
(45,270,cs),
(45,192,o),
(62,135,o),
(96,85,c),
(77,51,o),
(62,21,o),
(47,-20,c),
(121,-53,l),
(133,-20,o),
(143,1,o),
(157,29,c),
(196,3,o),
(247,-10,o),
(316,-10,cs),
(424,-10,o),
(517,34,o),
(517,147,cs),
(517,232,o),
(457,286,o),
(357,286,cs),
(293,286,o),
(239,262,o),
(201,227,c),
(198,244,o),
(197,259,o),
(197,271,cs),
(197,384,o),
(237,436,o),
(325,436,cs),
(368,436,o),
(404,422,o),
(449,404,c),
(493,519,l),
(452,538,o),
(403,556,o),
(325,556,cs)
);
},
{
closed = 1;
nodes = (
(388,197,o),
(409,179,o),
(409,151,cs),
(409,119,o),
(376,99,o),
(330,99,cs),
(285,99,o),
(252,115,o),
(232,143,c),
(255,168,o),
(295,197,o),
(347,197,cs)
);
}
);
width = 550;
},
{
anchors = (
{
name = bottom;
pos = (285,0);
},
{
name = center;
pos = (290,252);
},
{
name = top;
pos = (285,553);
}
);
layerId = "0A718E2F-231D-484E-9433-16A5230D2CE8";
shapes = (
{
closed = 1;
nodes = (
(160,563,o),
(39,469,o),
(39,274,c),
(39,193,o),
(60,138,o),
(91,90,c),
(73,56,o),
(58,26,o),
(42,-17,c),
(131,-58,l),
(142,-26,o),
(155,3,o),
(169,29,c),
(204,9,o),
(252,-10,o),
(324,-10,cs),
(449,-10,o),
(542,49,o),
(542,167,cs),
(542,250,o),
(493,306,o),
(385,306,cs),
(312,306,o),
(261,279,o),
(239,258,c),
(238,266,o),
(237,280,o),
(237,289,cs),
(237,367,o),
(274,409,o),
(343,409,cs),
(390,409,o),
(424,396,o),
(469,376,c),
(520,520,l),
(479,540,o),
(425,563,o),
(333,563,c)
);
},
{
closed = 1;
nodes = (
(386,206,o),
(408,192,o),
(408,166,cs),
(408,138,o),
(375,125,o),
(342,125,cs),
(303,125,o),
(281,140,o),
(264,164,c),
(278,182,o),
(310,206,o),
(355,206,cs)
);
}
);
width = 569;
},
{
anchors = (
{
name = bottom;
pos = (153,0);
},
{
name = center;
pos = (167,259);
},
{
name = top;
pos = (153,527);
}
);
layerId = "029FEF0C-5FA4-4A3E-AC23-838A1147A554";
shapes = (
{
closed = 1;
nodes = (
(111,537,o),
(47,436,o),
(47,258,cs),
(47,182,o),
(59,117,o),
(82,70,c),
(73,46,o),
(65,19,o),
(56,-10,c),
(80,-18,l),
(86,2,o),
(91,23,o),
(98,43,c),
(122,9,o),
(155,-10,o),
(196,-10,cs),
(253,-10,o),
(288,27,o),
(288,89,cs),
(288,145,o),
(260,188,o),
(201,188,cs),
(149,188,o),
(119,155,o),
(95,103,c),
(80,145,o),
(73,199,o),
(73,258,cs),
(73,426,o),
(131,512,o),
(218,512,cs),
(243,512,o),
(262,505,o),
(278,495,c),
(288,519,l),
(268,531,o),
(244,537,o),
(218,537,cs)
);
},
{
closed = 1;
nodes = (
(240,165,o),
(264,132,o),
(264,89,cs),
(264,56,o),
(249,13,o),
(196,13,cs),
(158,13,o),
(129,36,o),
(108,73,c),
(128,124,o),
(155,165,o),
(200,165,cs)
);
}
);
width = 306;
},
{
anchors = (
{
name = bottom;
pos = (179,0);
},
{
name = center;
pos = (187,259);
},
{
name = top;
pos = (179,537);
}
);
layerId = "36F3C8CB-53EE-4548-BFDE-2C03212BACAA";
shapes = (
{
closed = 1;
nodes = (
(101,547,o),
(43,441,o),
(43,265,cs),
(43,191,o),
(52,132,o),
(72,88,c),
(60,61,o),
(48,30,o),
(35,-5,c),
(100,-28,l),
(106,-8,o),
(113,10,o),
(118,26,c),
(145,2,o),
(179,-10,o),
(221,-10,cs),
(295,-10,o),
(339,36,o),
(339,106,cs),
(339,177,o),
(301,224,o),
(235,224,cs),
(191,224,o),
(161,208,o),
(134,174,c),
(128,199,o),
(125,230,o),
(125,266,cs),
(125,404,o),
(161,475,o),
(229,475,cs),
(251,475,o),
(275,468,o),
(300,455,c),
(326,522,l),
(297,538,o),
(264,547,o),
(223,547,cs)
);
},
{
closed = 1;
nodes = (
(255,162,o),
(271,143,o),
(271,106,cs),
(271,80,o),
(258,52,o),
(229,52,cs),
(196,52,o),
(171,68,o),
(154,100,c),
(178,147,o),
(200,162,o),
(229,162,cs)
);
}
);
width = 358;
},
{
anchors = (
{
name = bottom;
pos = (204,0);
},
{
name = center;
pos = (203,260);
},
{
name = top;
pos = (204,547);
}
);
layerId = "43B45EC1-5522-4B1A-B0C7-88628E50A583";
shapes = (
{
closed = 1;
nodes = (
(100,557,o),
(37,437,o),
(37,271,cs),
(37,203,o),
(45,148,o),
(62,106,c),
(47,76,o),
(32,40,o),
(16,-2,c),
(114,-36,l),
(121,-17,o),
(128,1,o),
(135,18,c),
(164,-1,o),
(199,-10,o),
(242,-10,cs),
(335,-10,o),
(390,45,o),
(390,124,cs),
(390,206,o),
(339,256,o),
(264,256,cs),
(228,256,o),
(199,248,o),
(172,229,c),
(170,240,o),
(169,255,o),
(169,271,cs),
(169,384,o),
(200,444,o),
(253,444,cs),
(283,444,o),
(312,435,o),
(342,417,c),
(378,521,l),
(340,545,o),
(298,557,o),
(244,557,cs)
);
},
{
closed = 1;
nodes = (
(273,164,o),
(288,150,o),
(288,122,cs),
(288,101,o),
(276,81,o),
(253,81,cs),
(225,81,o),
(205,94,o),
(191,122,c),
(212,154,o),
(231,164,o),
(254,164,cs)
);
}
);
width = 407;
},
{
anchors = (
{
name = bottom;
pos = (220,0);
},
{
name = center;
pos = (212,260);
},
{
name = top;
pos = (220,553);
}
);
layerId = "98E204A9-1C79-49C7-AB3E-40A925F56409";
shapes = (
{
closed = 1;
nodes = (
(99,563,o),
(32,435,o),
(32,274,cs),
(32,211,o),
(40,159,o),
(55,118,c),
(38,86,o),
(21,47,o),
(3,1,c),
(122,-42,l),
(130,-22,o),
(137,-4,o),
(144,12,c),
(174,-3,o),
(211,-10,o),
(254,-10,cs),
(360,-10,o),
(421,50,o),
(421,135,cs),
(421,224,o),
(363,276,o),
(281,276,cs),
(250,276,o),
(222,273,o),
(196,264,c),
(196,267,o),
(196,271,o),
(196,274,c),
(196,371,o),
(224,425,o),
(268,425,cs),
(302,425,o),
(334,414,o),
(367,392,c),
(410,521,l),
(366,549,o),
(318,563,o),
(257,563,cs)
);
},
{
closed = 1;
nodes = (
(284,166,o),
(299,154,o),
(299,133,cs),
(299,114,o),
(288,100,o),
(268,100,cs),
(244,100,o),
(226,111,o),
(214,137,c),
(234,159,o),
(251,166,o),
(269,166,cs)
);
}
);
width = 439;
}
);
script = latin;
subCategory = Lowercase;
unicode = 597;
}
